<svg xmlns="http://www.w3.org/2000/svg" viewBox="0 0 500 500"><g id="freepik--background-simple--inject-233"><path d="M87.5,113.13c27.92-59.45,127.06-51.06,165.32-9.25s50.7,68.6,85.21,53,78.52-11.44,81,38.16S381.16,303.29,317,320.64,252.82,399.4,167.88,387c-46.31-6.76-47.36-56.86-40.82-98.3S55.13,182.08,87.5,113.13Z" style="fill:#CF9455"></path><path d="M87.5,113.13c27.92-59.45,127.06-51.06,165.32-9.25s50.7,68.6,85.21,53,78.52-11.44,81,38.16S381.16,303.29,317,320.64,252.82,399.4,167.88,387c-46.31-6.76-47.36-56.86-40.82-98.3S55.13,182.08,87.5,113.13Z" style="fill:#fff;opacity:0.9"></path></g><g id="freepik--Shadow--inject-233"><ellipse id="freepik--path--inject-233" cx="250" cy="416.24" rx="193.89" ry="11.32" style="fill:#f5f5f5"></ellipse></g><g id="freepik--icon-1--inject-233"><circle cx="163.55" cy="97.78" r="29.49" transform="translate(-21.24 144.28) rotate(-45)" style="fill:#CF9455"></circle><circle cx="163.55" cy="97.78" r="29.49" transform="translate(-21.24 144.28) rotate(-45)" style="fill:#fff;opacity:0.5"></circle><path d="M163.52,130.78a32.73,32.73,0,0,1-9.44-1.38l.3-1a31.84,31.84,0,0,0,12.54,1.16l.11,1A34.23,34.23,0,0,1,163.52,130.78Zm5.67-.49-.18-1a32.26,32.26,0,0,0,5.11-1.33l.34,1A32.91,32.91,0,0,1,169.19,130.29ZM149,127.41c-.65-.32-1.29-.67-1.92-1l.52-.9q.91.52,1.86,1Zm36.64-5.12-.7-.77c.52-.47,1-1,1.52-1.47l.75.73C186.71,121.3,186.18,121.81,185.65,122.29Zm-48.34-4.48a32.76,32.76,0,0,1-2.93-4.59l.92-.49a32.27,32.27,0,0,0,2.84,4.45Zm53.37-1.25-.86-.59c.49-.71,1-1.45,1.4-2.21a31.77,31.77,0,0,0,3.59-9.35l1,.22a33.15,33.15,0,0,1-3.71,9.65C191.67,115.06,191.18,115.83,190.68,116.56Zm-57.26-5.3a32.89,32.89,0,0,1-2.86-12.69l1,0a31.75,31.75,0,0,0,2.78,12.28Zm62.79-8.78-1-.15a31,31,0,0,0,.32-4.52v-.75l1,0c0,.26,0,.52,0,.77A33.13,33.13,0,0,1,196.21,102.48Zm-64.31-9.2-1-.14c.1-.72.23-1.44.38-2.15l1,.21C132.12,91.89,132,92.59,131.9,93.28Zm60.83-8.5c-.28-.65-.59-1.29-.92-1.9l.92-.49c.34.64.66,1.3,1,2Zm-55.48-5.15-.86-.59a33.16,33.16,0,0,1,3.45-4.21l.75.72A31.12,31.12,0,0,0,137.25,79.63ZM189,78.43a31.73,31.73,0,0,0-9.46-8.32l.44-1,.08,0a32.86,32.86,0,0,1,9.77,8.59ZM142.1,74.08l-.69-.77a32.75,32.75,0,0,1,11.17-6.65l.35,1A31.75,31.75,0,0,0,142.1,74.08Zm35.48-5a32.35,32.35,0,0,0-4.92-1.92l.3-1a32.93,32.93,0,0,1,5.07,2ZM158,66.31l-.18-1c.72-.12,1.44-.23,2.16-.3l.11,1C159.43,66.09,158.72,66.19,158,66.31Z" style="fill:#CF9455"></path><path d="M163.55,147.1a2.62,2.62,0,0,1-1.84-.76,2.59,2.59,0,1,1,3.67,0A2.62,2.62,0,0,1,163.55,147.1Zm0-4.14a1.55,1.55,0,1,0,1.09.45A1.55,1.55,0,0,0,163.55,143Z" style="fill:#CF9455"></path><rect x="163.02" y="130.22" width="1.04" height="12.22" style="fill:#CF9455"></rect><path d="M170.9,111.56a7.07,7.07,0,0,1-14.06,1.08,6.38,6.38,0,0,1-.09-1.08,7.07,7.07,0,0,1,7-7.08h.07A7.07,7.07,0,0,1,170.9,111.56Z" style="fill:#fff;opacity:0.9"></path><path d="M170.1,111.56a6.28,6.28,0,1,1-6.27-6.28A6.28,6.28,0,0,1,170.1,111.56Z" style="isolation:isolate;opacity:0.1"></path><text transform="translate(161.57 113.7)" style="font-size:7.278180122375488px;fill:#fff;font-family:Montserrat-Medium, Montserrat;font-weight:500">$</text><path d="M163.76,104.48a9,9,0,0,1-.36,1.73,9.68,9.68,0,0,1-6.56,6.43,6.38,6.38,0,0,1-.09-1.08A7.07,7.07,0,0,1,163.76,104.48Z" style="isolation:isolate;opacity:0.1"></path><path d="M163.83,100.94a9.67,9.67,0,1,1-9.66-9.66,9.64,9.64,0,0,1,9.66,9.66Z" style="fill:#fff;opacity:0.9"></path><path d="M162.73,100.94a8.57,8.57,0,1,1-8.57-8.57A8.57,8.57,0,0,1,162.73,100.94Z" style="isolation:isolate;opacity:0.1"></path><text transform="translate(151.08 103.86)" style="font-size:9.935270309448242px;fill:#fff;font-family:Montserrat-Medium, Montserrat;font-weight:500">$</text><path d="M163.83,100.94a9.59,9.59,0,0,1-.43,2.85,12.16,12.16,0,0,1-5.76-11.87A9.69,9.69,0,0,1,163.83,100.94Z" style="isolation:isolate;opacity:0.1"></path><path d="M182.46,91.2A12.16,12.16,0,1,1,170.3,79.05,12.15,12.15,0,0,1,182.46,91.2Z" style="fill:#fff;opacity:0.9"></path><path d="M181.09,91.2A10.79,10.79,0,1,1,170.3,80.42,10.78,10.78,0,0,1,181.09,91.2Z" style="isolation:isolate;opacity:0.1"></path><text transform="translate(166.42 94.87)" style="font-size:12.497739791870117px;fill:#fff;font-family:Montserrat-Medium, Montserrat;font-weight:500">$</text></g><g id="freepik--Calculator--inject-233"><rect x="64" y="157.59" width="111.04" height="171.24" rx="7.53" style="fill:#263238"></rect><g style="isolation:isolate;opacity:0.2"><path d="M64,203.33V321a7.84,7.84,0,0,0,7.85,7.84h95.34A7.85,7.85,0,0,0,175,321V203.33Z" style="fill:#fff"></path></g><rect x="74.63" y="237.46" width="18.13" height="11.61" rx="1.22" style="fill:#263238"></rect><rect x="98.52" y="237.46" width="18.13" height="11.61" rx="1.22" style="fill:#263238"></rect><rect x="122.42" y="237.46" width="18.13" height="11.61" rx="1.22" style="fill:#263238"></rect><rect x="146.31" y="237.46" width="18.13" height="11.61" rx="1.22" style="fill:#263238"></rect><rect x="146.31" y="209.22" width="18.13" height="11.61" rx="1.22" style="fill:#263238"></rect><rect x="122" y="209.22" width="18.13" height="11.61" rx="1.22" style="fill:#263238"></rect><g style="isolation:isolate;opacity:0.30000000000000004"><rect x="74.6" y="225.89" width="10.84" height="6.4" rx="1.22" style="fill:#fff"></rect></g><g style="isolation:isolate;opacity:0.30000000000000004"><rect x="90.4" y="225.89" width="10.84" height="6.4" rx="1.22" style="fill:#fff"></rect></g><g style="isolation:isolate;opacity:0.30000000000000004"><rect x="106.2" y="225.89" width="10.84" height="6.4" rx="1.22" style="fill:#fff"></rect></g><g style="isolation:isolate;opacity:0.30000000000000004"><rect x="122" y="225.89" width="10.84" height="6.4" rx="1.22" style="fill:#fff"></rect></g><g style="isolation:isolate;opacity:0.30000000000000004"><rect x="137.8" y="225.89" width="10.84" height="6.4" rx="1.22" style="fill:#fff"></rect></g><g style="isolation:isolate;opacity:0.30000000000000004"><rect x="153.6" y="225.89" width="10.84" height="6.4" rx="1.22" style="fill:#fff"></rect></g><g style="isolation:isolate;opacity:0.2"><rect x="74.6" y="209.22" width="5.42" height="11.61"></rect></g><g style="isolation:isolate;opacity:0.2"><rect x="80.98" y="209.22" width="5.42" height="11.61"></rect></g><g style="isolation:isolate;opacity:0.2"><rect x="87.37" y="209.22" width="5.42" height="11.61"></rect></g><g style="isolation:isolate;opacity:0.2"><rect x="93.75" y="209.22" width="5.42" height="11.61"></rect></g><g style="isolation:isolate;opacity:0.2"><rect x="100.14" y="209.22" width="5.42" height="11.61"></rect></g><g style="isolation:isolate;opacity:0.2"><rect x="106.53" y="209.22" width="5.42" height="11.61"></rect></g><rect x="74.63" y="253.61" width="18.13" height="11.61" rx="1.22" style="fill:#263238"></rect><rect x="98.52" y="253.61" width="18.13" height="11.61" rx="1.22" style="fill:#263238"></rect><rect x="122.42" y="253.61" width="18.13" height="11.61" rx="1.22" style="fill:#263238"></rect><rect x="146.31" y="253.61" width="18.13" height="11.61" rx="1.22" style="fill:#263238"></rect><rect x="74.63" y="269.75" width="18.13" height="11.61" rx="1.22" style="fill:#263238"></rect><rect x="98.52" y="269.75" width="18.13" height="11.61" rx="1.22" style="fill:#263238"></rect><rect x="122.42" y="269.75" width="18.13" height="11.61" rx="1.22" style="fill:#263238"></rect><rect x="146.31" y="269.75" width="18.13" height="11.61" rx="1.22" style="fill:#263238"></rect><rect x="74.63" y="285.9" width="18.13" height="11.61" rx="1.22" style="fill:#263238"></rect><rect x="98.52" y="285.9" width="18.13" height="11.61" rx="1.22" style="fill:#263238"></rect><rect x="122.42" y="285.9" width="18.13" height="11.61" rx="1.22" style="fill:#263238"></rect><rect x="74.63" y="302.04" width="18.13" height="11.61" rx="1.22" style="fill:#263238"></rect><rect x="98.52" y="302.04" width="18.13" height="11.61" rx="1.22" style="fill:#263238"></rect><rect x="122.42" y="302.04" width="18.13" height="11.61" rx="1.22" style="fill:#263238"></rect><path d="M163.17,285.9H147.58a1.26,1.26,0,0,0-1.27,1.26v25.22a1.27,1.27,0,0,0,1.27,1.27h15.59a1.27,1.27,0,0,0,1.27-1.27V287.16A1.26,1.26,0,0,0,163.17,285.9Z" style="fill:#263238"></path><g style="isolation:isolate;opacity:0.4"><rect x="74.6" y="172.43" width="89.84" height="22.07" style="fill:#fff"></rect></g><path d="M94.81,192.24v1.42H94v-1.42a5,5,0,0,1-3-1.08l.46-1a4.33,4.33,0,0,0,2.58,1v-2.9c-1.38-.33-2.83-.77-2.83-2.47,0-1.24.89-2.31,2.83-2.47v-1.43h.79v1.42a4.94,4.94,0,0,1,2.54.76l-.41,1a4.41,4.41,0,0,0-2.13-.7v2.91c1.4.35,2.9.76,2.9,2.47C97.71,191,96.79,192.08,94.81,192.24ZM94,187.1v-2.7c-1.12.14-1.6.7-1.6,1.36S93.12,186.86,94,187.1Zm2.47,2.75c0-.8-.75-1.12-1.68-1.37v2.69C96,191.06,96.49,190.52,96.49,189.85Z" style="fill:#263238"></path><path d="M101.41,183.41v8.75h-1.23V184.5h-2v-1.09Z" style="fill:#263238"></path><path d="M109.31,189.58c0,1.48-1.09,2.68-3.31,2.68a4.92,4.92,0,0,1-3.21-1.07l.58-1a3.91,3.91,0,0,0,2.63.93c1.31,0,2.06-.59,2.06-1.54s-.66-1.53-2.16-1.53h-.7v-.87l2.2-2.7h-4.21v-1.09H109v.85l-2.28,2.83C108.42,187.25,109.31,188.23,109.31,189.58Z" style="fill:#263238"></path><path d="M110.45,191.37a.84.84,0,0,1,.85-.85.82.82,0,0,1,.82.85.83.83,0,0,1-.82.86A.85.85,0,0,1,110.45,191.37Z" style="fill:#263238"></path><path d="M119.42,189.58c0,1.48-1.09,2.68-3.31,2.68a4.92,4.92,0,0,1-3.21-1.07l.58-1a3.91,3.91,0,0,0,2.63.93c1.31,0,2.06-.59,2.06-1.54s-.66-1.53-2.16-1.53h-.7v-.87l2.2-2.7H113.3v-1.09h5.77v.85l-2.28,2.83C118.53,187.25,119.42,188.23,119.42,189.58Z" style="fill:#263238"></path><path d="M127.09,187.67c0,3-1.68,4.59-4.13,4.59a4.2,4.2,0,0,1-2.17-.52l.47-1a3.08,3.08,0,0,0,1.69.41c1.77,0,2.89-1.11,2.89-3.29v-.32a2.91,2.91,0,0,1-2.52,1.15,2.69,2.69,0,0,1-3-2.65,2.81,2.81,0,0,1,3.08-2.76C125.77,183.31,127.09,184.89,127.09,187.67ZM125.56,186c0-.9-.73-1.69-2.09-1.69a1.72,1.72,0,0,0-1.92,1.7c0,1,.76,1.69,2,1.69A1.83,1.83,0,0,0,125.56,186Z" style="fill:#263238"></path><path d="M134.41,191.07v1.09h-6.29v-.85l3.56-3.44c.93-.9,1.1-1.45,1.1-2,0-.9-.64-1.45-1.86-1.45a2.75,2.75,0,0,0-2.24,1l-.84-.73a4,4,0,0,1,3.19-1.33c1.83,0,3,.94,3,2.44a3.54,3.54,0,0,1-1.44,2.75l-2.67,2.57Z" style="fill:#263238"></path><path d="M135.53,191.37a.84.84,0,0,1,.85-.85.83.83,0,0,1,.83.85.83.83,0,0,1-.83.86A.85.85,0,0,1,135.53,191.37Z" style="fill:#263238"></path><path d="M138.25,187.78c0-2.84,1.52-4.47,3.57-4.47s3.56,1.63,3.56,4.47-1.53,4.48-3.56,4.48S138.25,190.63,138.25,187.78Zm5.88,0c0-2.23-.95-3.36-2.31-3.36s-2.33,1.13-2.33,3.36.95,3.36,2.33,3.36S144.13,190,144.13,187.78Z" style="fill:#263238"></path><path d="M146.58,187.78c0-2.84,1.53-4.47,3.57-4.47s3.56,1.63,3.56,4.47-1.52,4.48-3.56,4.48S146.58,190.63,146.58,187.78Zm5.88,0c0-2.23-.94-3.36-2.31-3.36s-2.32,1.13-2.32,3.36.95,3.36,2.32,3.36S152.46,190,152.46,187.78Z" style="fill:#263238"></path><path d="M154.92,187.78c0-2.84,1.52-4.47,3.57-4.47s3.56,1.63,3.56,4.47-1.52,4.48-3.56,4.48S154.92,190.63,154.92,187.78Zm5.88,0c0-2.23-1-3.36-2.31-3.36s-2.32,1.13-2.32,3.36,1,3.36,2.32,3.36S160.8,190,160.8,187.78Z" style="fill:#263238"></path></g><g id="freepik--character-1--inject-233"><rect x="207.32" y="328.46" width="58.91" height="27.52" style="fill:#CF9455"></rect><rect x="207.32" y="328.46" width="58.91" height="27.52" style="fill:#fff;isolation:isolate;opacity:0.6000000000000001"></rect><polygon points="266.23 332.58 224.08 332.58 266.23 333.81 266.23 332.58" style="isolation:isolate;opacity:0.2"></polygon><polygon points="216.12 336.66 255.12 336.19 216.12 337.89 216.12 336.66" style="isolation:isolate;opacity:0.2"></polygon><path d="M266.23,342c-1,.06-40.91.89-40.91.89l40.91,1.56Z" style="isolation:isolate;opacity:0.2"></path><polygon points="216.12 347.84 247.16 348.51 216.12 349.19 216.12 347.84" style="isolation:isolate;opacity:0.2"></polygon><polygon points="266.23 351.04 236.17 352.14 266.23 352.14 266.23 351.04" style="isolation:isolate;opacity:0.2"></polygon><polygon points="216.12 329.69 216.12 354.74 268.85 354.74 268.85 356.96 130.69 356.96 130.69 327.47 268.85 327.47 268.85 329.69 216.12 329.69" style="fill:#CF9455"></polygon><polygon points="216.12 329.69 216.12 354.74 268.85 354.74 268.85 356.96 130.69 356.96 130.69 327.47 268.85 327.47 268.85 329.69 216.12 329.69" style="fill:#fff;isolation:isolate;opacity:0.2"></polygon><polygon points="216.12 329.69 216.12 354.74 268.85 354.74 268.85 356.96 212.24 356.96 212.24 327.47 268.85 327.47 268.85 329.69 216.12 329.69" style="isolation:isolate;opacity:0.2"></polygon><rect x="158.16" y="337.21" width="44.16" height="10.01" style="fill:#fff;isolation:isolate;opacity:0.6000000000000001"></rect><circle cx="146.02" cy="342.21" r="5.99" style="fill:#fff;isolation:isolate;opacity:0.6000000000000001"></circle><path d="M150.25,343.5a4.42,4.42,0,1,1-2.94-5.52A4.41,4.41,0,0,1,150.25,343.5Z" style="isolation:isolate;opacity:0.2"></path><rect x="218.77" y="357.94" width="58.91" height="27.52" style="fill:#CF9455"></rect><rect x="218.77" y="357.94" width="58.91" height="27.52" style="fill:#fff;isolation:isolate;opacity:0.6000000000000001"></rect><polygon points="277.68 362.06 235.54 362.06 277.68 363.3 277.68 362.06" style="isolation:isolate;opacity:0.2"></polygon><polygon points="227.57 366.14 266.58 365.67 227.57 367.38 227.57 366.14" style="isolation:isolate;opacity:0.2"></polygon><path d="M277.68,371.48c-.94.06-40.91.88-40.91.88l40.91,1.57Z" style="isolation:isolate;opacity:0.2"></path><polygon points="227.57 377.33 258.61 377.99 227.57 378.68 227.57 377.33" style="isolation:isolate;opacity:0.2"></polygon><polygon points="277.68 380.52 247.62 381.62 277.68 381.62 277.68 380.52" style="isolation:isolate;opacity:0.2"></polygon><polygon points="227.57 359.18 227.57 384.22 280.3 384.22 280.3 386.44 142.15 386.44 142.15 356.96 280.3 356.96 280.3 359.18 227.57 359.18" style="fill:#263238"></polygon><polygon points="227.57 359.18 227.57 384.22 280.3 384.22 280.3 386.44 223.69 386.44 223.69 356.96 280.3 356.96 280.3 359.18 227.57 359.18" style="isolation:isolate;opacity:0.2"></polygon><rect x="169.62" y="366.69" width="44.16" height="10.01" style="fill:#fff;isolation:isolate;opacity:0.6000000000000001"></rect><path d="M163.46,371.7a6,6,0,1,1-6-6A6,6,0,0,1,163.46,371.7Z" style="fill:#fff;isolation:isolate;opacity:0.6000000000000001"></path><path d="M161.7,373a4.42,4.42,0,1,1-2.94-5.52A4.43,4.43,0,0,1,161.7,373Z" style="isolation:isolate;opacity:0.2"></path><rect x="210.57" y="387.39" width="58.91" height="27.52" style="fill:#CF9455"></rect><rect x="210.57" y="387.39" width="58.91" height="27.52" style="fill:#fff;isolation:isolate;opacity:0.6000000000000001"></rect><polygon points="269.48 391.51 227.34 391.51 269.48 392.75 269.48 391.51" style="isolation:isolate;opacity:0.2"></polygon><polygon points="219.37 395.6 258.37 395.12 219.37 396.83 219.37 395.6" style="isolation:isolate;opacity:0.2"></polygon><path d="M269.48,400.93c-.94.06-40.91.88-40.91.88l40.91,1.57Z" style="isolation:isolate;opacity:0.2"></path><polygon points="219.37 406.78 250.41 407.44 219.37 408.13 219.37 406.78" style="isolation:isolate;opacity:0.2"></polygon><polygon points="269.48 409.97 239.42 411.07 269.48 411.07 269.48 409.97" style="isolation:isolate;opacity:0.2"></polygon><polygon points="219.37 388.63 219.37 413.67 272.1 413.67 272.1 415.89 133.94 415.89 133.94 386.41 272.1 386.41 272.1 388.63 219.37 388.63" style="fill:#CF9455"></polygon><polygon points="219.37 388.63 219.37 413.67 272.1 413.67 272.1 415.89 215.49 415.89 215.49 386.41 272.1 386.41 272.1 388.63 219.37 388.63" style="isolation:isolate;opacity:0.2"></polygon><rect x="161.41" y="396.14" width="44.16" height="10.01" style="fill:#fff;isolation:isolate;opacity:0.6000000000000001"></rect><path d="M155.26,401.15a6,6,0,1,1-6-6A6,6,0,0,1,155.26,401.15Z" style="fill:#fff;isolation:isolate;opacity:0.6000000000000001"></path><path d="M153.5,402.44a4.42,4.42,0,1,1-2.94-5.52A4.43,4.43,0,0,1,153.5,402.44Z" style="isolation:isolate;opacity:0.2"></path><g id="freepik--group--inject-233"><path d="M197.71,257.61c-.25,4.78-.66,9.48-1.26,14.23-.29,2.37-.64,4.75-1.06,7.16-.22,1.21-.44,2.42-.74,3.68-.13.61-.33,1.3-.5,1.95-.08.32-.23.74-.35,1.1l-.2.57-.06.16-.13.32c-.1.22-.2.42-.29.58a8,8,0,0,1-1.14,1.53,11.11,11.11,0,0,1-1,1,17.64,17.64,0,0,1-1.87,1.35,36.86,36.86,0,0,1-3.48,1.91c-2.29,1.11-4.55,2-6.83,2.84A119.22,119.22,0,0,1,165,300a2.54,2.54,0,0,1-1.71-4.74l.05,0c4.14-2.07,8.33-4.17,12.37-6.3,2-1.07,4-2.18,5.83-3.32a28.28,28.28,0,0,0,2.52-1.74,8,8,0,0,0,.92-.81,2.82,2.82,0,0,0,.23-.26c0-.06,0-.07-.11.11l-.1.18-.05.12v0l.06-.28c0-.2.09-.33.13-.59.08-.5.18-.94.25-1.49.15-1,.29-2.15.42-3.26.23-2.24.43-4.52.64-6.81L187.55,257v0a5.09,5.09,0,0,1,10.16.67Z" style="fill:#ff8b7b"></path><path d="M164.37,294.27l-6.79.38,2.72,7.69s6.1-1.08,6-4.42Z" style="fill:#ff8b7b"></path><path d="M152.83,299.88l1.4,2.53a2.36,2.36,0,0,0,2.86,1.08l3.21-1.15-2.72-7.69-3.79,2A2.36,2.36,0,0,0,152.83,299.88Z" style="fill:#ff8b7b"></path><path d="M184.23,252.91c9.74.82,15.78-.21,14.79,10.37s-2.11,14.19-2.11,14.19H184.67S183,258.11,183,256.28A6.22,6.22,0,0,1,184.23,252.91Z" style="fill:#CF9455"></path><path d="M199,263.29c-.07.82-.14,1.6-.22,2.34-.44,4.09-.87,6.94-1.23,8.82a29.39,29.39,0,0,1-.66,3H184.67s-.06-.8-.17-2.08c-.43-5-1.46-17.65-1.46-19.11a6.27,6.27,0,0,1,1.19-3.38C194,253.74,200,252.7,199,263.29Z" style="fill:#fff;isolation:isolate;opacity:0.7000000000000001"></path><polygon points="184.11 275.42 199.87 274.3 197.05 280.06 184.11 280.06 184.11 275.42" style="fill:#CF9455"></polygon><polygon points="199.87 274.29 197.05 280.06 184.1 280.06 184.1 275.42 184.5 275.39 191.16 274.92 197.57 274.45 199.87 274.29" style="fill:#CF9455"></polygon><polygon points="199.87 274.29 197.05 280.06 184.1 280.06 184.1 275.42 184.5 275.39 191.16 274.92 197.57 274.45 199.87 274.29" style="fill:#fff;opacity:0.6000000000000001"></polygon><path d="M199.87,274.29l-2.82,5.77h-2.32a7.72,7.72,0,0,1-2.42-2.59,12.31,12.31,0,0,1-1.15-2.55c-2.15-6.28-.93-15.09-.93-15.09,3.13.65,6.17,2.94,8.57,5.8-.44,4.09-.87,6.94-1.23,8.82Z" style="isolation:isolate;opacity:0.2"></path><polygon points="189.95 400.12 182.4 400.6 176.45 386.6 184 386.12 189.95 400.12" style="fill:#e4897b"></polygon><polygon points="184 386.12 176.45 386.6 179.53 393.82 187.07 393.34 184 386.12" style="isolation:isolate;opacity:0.2"></polygon><path d="M179.56,398.33l7.48-3.55a.62.62,0,0,1,.73.18l3.81,4.91a1,1,0,0,1-.19,1.41,1.18,1.18,0,0,1-.19.11c-2.44,1.11-4.27,1.8-7.31,3.24-1.88.89-7.43,3.76-10,5s-4.13-1.17-3.19-1.91c4.26-3.29,7.16-6.41,8-8.5A1.66,1.66,0,0,1,179.56,398.33Z" style="fill:#263238"></path><path d="M178,400.38a2.05,2.05,0,0,1-1.33.25A1,1,0,0,1,176,400a.49.49,0,0,1,.05-.53c.52-.68,3.09-.4,3.37-.36a.15.15,0,0,1,.14.11.18.18,0,0,1-.05.18A8.55,8.55,0,0,1,178,400.38Zm-1.52-.84a.41.41,0,0,0-.17.12s-.06.1,0,.22a.65.65,0,0,0,.44.43,3.27,3.27,0,0,0,2.25-.93A6.44,6.44,0,0,0,176.51,399.54Z" style="fill:#CF9455"></path><path d="M196.35,291.88c0-7.13-1.14-28.9-12.12-39a32.4,32.4,0,0,1,6.83-5.63A41.28,41.28,0,0,1,209.23,241c4.36-.44,5.17-.26,10.61.9,0,0,12.45,14.87,13.34,50Z" style="fill:#CF9455"></path><path d="M233.17,291.88H196.35c0-1.08,0-2.49-.13-4.14a93.71,93.71,0,0,0-1.13-10.55c-1.44-8.6-4.47-18.42-10.86-24.27a32.31,32.31,0,0,1,6.82-5.64A41.5,41.5,0,0,1,209.23,241c4.36-.44,5.17-.26,10.61.9a35.89,35.89,0,0,1,3.59,5.8A66.8,66.8,0,0,1,227,256c.5,1.36,1,2.83,1.46,4.43a102.86,102.86,0,0,1,3.24,14.56A136.49,136.49,0,0,1,233.17,291.88Z" style="fill:#fff;isolation:isolate;opacity:0.7000000000000001"></path><path d="M179.51,399.41l-.08,0c-.79-.05-2.67-.82-2.85-1.53a.53.53,0,0,1,.29-.61.89.89,0,0,1,.71-.1c1,.24,2,1.94,2,2a.15.15,0,0,1,0,.17A.11.11,0,0,1,179.51,399.41Zm-2.43-1.91-.07,0c-.19.09-.15.21-.14.25.11.44,1.38,1.09,2.24,1.27a3.79,3.79,0,0,0-1.64-1.58A.53.53,0,0,0,177.08,397.5Z" style="fill:#CF9455"></path><path d="M234.31,301.52l-1.25-14.72-36.77,2.59-1.63,12.36s-43-1.69-48.27,9.78c-8.1,17.64,29.93,79.09,29.93,79.09l9.67-1.14s-21.35-60.62-18.65-63.14c1.86-1.74,41.42-1.34,41.42-1.34S236.82,325.1,234.31,301.52Z" style="fill:#263238"></path><path d="M208.76,325s-10.8-.11-21.38,0c-9.67.14-19.15.48-20,1.3-.27.25-.3,1-.15,2.28h0C168.6,340.09,186,389.48,186,389.48l-9.67,1.14s-38-61.45-29.92-79.09c5.26-11.47,48.27-9.77,48.27-9.77l1.63-12.37,36.77-2.6,1.25,14.73C236.81,325.11,208.76,325,208.76,325Z" style="fill:#fff;isolation:isolate;opacity:0.4"></path><polygon points="175.52 392.85 187.73 390.9 186.56 387.58 173.28 390.35 175.52 392.85" style="fill:#CF9455"></polygon><polygon points="175.52 392.85 187.73 390.9 186.56 387.58 173.28 390.35 175.52 392.85" style="fill:#fff;opacity:0.5"></polygon><polygon points="220.02 288.58 220.22 293.28 196.36 293.17 196.3 289.71 220.02 288.58" style="fill:#263238"></polygon><polygon points="221.4 288.51 233.24 287.95 233.49 293.33 221.4 293.28 221.4 288.51" style="fill:#263238"></polygon><path d="M203.61,293.33l4.63.23a.75.75,0,0,0,.84-.7v-3.31a.76.76,0,0,0-.84-.71l-4.63.23a.71.71,0,0,0-.67.69v2.89A.69.69,0,0,0,203.61,293.33Z" style="fill:#fff"></path><polygon points="205.16 400.84 197.6 400.47 193.26 385.89 200.81 386.26 205.16 400.84" style="fill:#e4897b"></polygon><polygon points="200.81 386.26 193.26 385.89 195.5 393.41 203.06 393.78 200.81 386.26" style="isolation:isolate;opacity:0.2"></polygon><path d="M196.52,399.41l7.33-3.84a.6.6,0,0,1,.74.15l4,4.75a1,1,0,0,1-.14,1.42.71.71,0,0,1-.18.12c-2.4,1.2-4.2,2-7.18,3.52-1.84,1-7.28,4.05-9.82,5.37s-4.17-1-3.26-1.78c4.13-3.45,6.9-6.68,7.69-8.8A1.63,1.63,0,0,1,196.52,399.41Z" style="fill:#263238"></path><path d="M195.07,401.51a2,2,0,0,1-1.32.3,1,1,0,0,1-.7-.61.49.49,0,0,1,0-.53c.48-.7,3.06-.52,3.35-.49a.15.15,0,0,1,.14.1.17.17,0,0,1,0,.18A8,8,0,0,1,195.07,401.51Zm-1.55-.78a.37.37,0,0,0-.17.13s0,.1,0,.22a.65.65,0,0,0,.46.41,3.3,3.3,0,0,0,2.21-1A6.61,6.61,0,0,0,193.52,400.73Z" style="fill:#CF9455"></path><path d="M196.5,400.49l-.07,0c-.79,0-2.7-.71-2.91-1.41a.53.53,0,0,1,.27-.62.87.87,0,0,1,.7-.13c1,.2,2,1.86,2.1,1.94a.17.17,0,0,1,0,.17A.13.13,0,0,1,196.5,400.49ZM194,398.67l-.07,0c-.19.09-.14.21-.13.25.13.43,1.42,1,2.29,1.18a3.89,3.89,0,0,0-1.7-1.51A.52.52,0,0,0,194,398.67Z" style="fill:#CF9455"></path><polygon points="192.23 391.18 204.54 392.31 204.23 388.8 190.67 388.19 192.23 391.18" style="fill:#CF9455"></polygon><polygon points="192.23 391.18 204.54 392.31 204.23 388.8 190.67 388.19 192.23 391.18" style="fill:#fff;opacity:0.5"></polygon><path d="M187.38,325c-9.67.14-19.15.48-20,1.3-.27.25-.3,1-.15,2.28-6.61-22,26.73-22,26.73-22C196.92,311.56,193.08,319.26,187.38,325Z" style="isolation:isolate;opacity:0.2"></path><path d="M233.18,296.73s5.43,18.6-3.35,26.81S193,328,193,328l10,61.86H192.28s-26.08-59.06-20.2-73.47S218.94,305,218.94,305Z" style="fill:#263238"></path><path d="M233.18,296.73s5.43,18.6-3.35,26.81S193,328,193,328l10,61.86H192.28s-26.08-59.06-20.2-73.47S218.94,305,218.94,305Z" style="fill:#fff;isolation:isolate;opacity:0.4"></path><path d="M200.16,241.25c5-1.63,12.11,0,12.11,0l-6.84,12.95-5-2.53-1.79,3.39s-5.41-5.26-4.68-7.87C194.63,244.88,200.16,241.25,200.16,241.25Z" style="fill:#CF9455"></path><path d="M195.12,246.27a8.6,8.6,0,0,1-1.13.92,7.9,7.9,0,0,0,8.09,3.55c5.61-.89,7.23-9.27,7.23-9.27s-3.66,0-5.29-.71-5-5.77-5-5.77l-1,.88-6.36,5.49s4.54,2.59,4.43,3.56A2.52,2.52,0,0,1,195.12,246.27Z" style="fill:#e4897b"></path><path d="M231.73,274.94c-5.69,12.66-21.28,14.61-19.46,11.86,2-3.06,4.19-24.49,4.19-24.49s7-2.87,12-1.93A102.86,102.86,0,0,1,231.73,274.94Z" style="isolation:isolate;opacity:0.2"></path><path d="M196,244.92a2.52,2.52,0,0,1-.91,1.35c4.76-1,3.36-10.37,3.36-10.37l-.52,0-6.36,5.49S196.14,244,196,244.92Z" style="isolation:isolate;opacity:0.2"></path><path d="M177.11,225.55s-.11,7.82,5.32,10.73,3.07-14.42,3.07-14.42Z" style="fill:#263238"></path><path d="M180.8,239.5a22.39,22.39,0,0,0,1.19,2.35c.14.22.27.43.42.63l.15.19a9.42,9.42,0,0,0,6,3.65,8.65,8.65,0,0,0,1.14.13,8.44,8.44,0,0,0,8-4.42,1.69,1.69,0,0,0,.17-.29c2.23-4.32.95-8.09-.68-14.65a9.27,9.27,0,0,0-14.93-5C177.39,226,178.36,234,180.8,239.5Z" style="fill:#e4897b"></path><path d="M187.88,232a.85.85,0,0,1-.32,1.14c-.35.11-.76-.24-.92-.76s0-1,.32-1.14S187.71,231.44,187.88,232Z" style="fill:#263238"></path><path d="M182,233.83a.85.85,0,0,1-.32,1.14c-.34.11-.76-.24-.92-.76s0-1,.32-1.14S181.79,233.33,182,233.83Z" style="fill:#263238"></path><path d="M183.92,233.49a19.87,19.87,0,0,1-1.1,5.28,3.22,3.22,0,0,0,2.67-.32Z" style="fill:#de5753"></path><path d="M188.5,228.17a.35.35,0,0,1-.34,0,2.62,2.62,0,0,0-2.33,0,.32.32,0,1,1-.33-.55h0a3.21,3.21,0,0,1,2.94,0,.33.33,0,0,1,.16.43h0A.38.38,0,0,1,188.5,228.17Z" style="fill:#263238"></path><path d="M187,240.48h0a5,5,0,0,0,2-4.12.17.17,0,0,0-.19-.16.16.16,0,0,0-.15.18h0a4.74,4.74,0,0,1-1.86,3.82.16.16,0,0,0,0,.23h0a.16.16,0,0,0,.23,0Z" style="fill:#263238"></path><path d="M178.67,232a.27.27,0,0,1-.23-.48h0a3.21,3.21,0,0,1,2.71-1.17.31.31,0,0,1,.27.36h0a.33.33,0,0,1-.36.28h0a2.59,2.59,0,0,0-2.13,1A.3.3,0,0,1,178.67,232Z" style="fill:#263238"></path><path d="M200.74,236.82h0a1.4,1.4,0,0,1-2.26-.91c-.23-2.13-.85-3.94-1.4-3.95-1,0-.73,1-.73,1-2.25-1-4.61-4.41-4.31-7.08a2.39,2.39,0,0,0-3.58-2.21s6.55-4.73,8.42-3.3,4.39,6.22,4.42,12.34A13,13,0,0,1,200.74,236.82Z" style="fill:#263238"></path><path d="M201.57,231.5a6.45,6.45,0,0,1-2.55,4.2c-1.82,1.32-3.51-.12-3.66-2.25-.12-1.9.65-4.93,2.81-5.39A2.87,2.87,0,0,1,201.57,231.5Z" style="fill:#e4897b"></path><path d="M191.6,222.63s-10.23,7.67-15.86,4.63,0-9.37,0-9.37.14,2.83,2,2.26a2.71,2.71,0,0,1,1.47-3.8s-.54,2,1.46,2,4.61-3.38,10.13-3.24,9.48,5.15,7.9,8.58S191.6,222.63,191.6,222.63Z" style="fill:#263238"></path><path d="M207,240.26l-6.58,10.68-5.81-5.34s-3,4.18,3.82,10.68l2-4.15,5.56,2.93,6.2-13.81Z" style="fill:#CF9455"></path><path d="M207,240.26l-6.58,10.68-5.81-5.34s-3,4.18,3.82,10.68l2-4.15,5.56,2.93,6.2-13.81Z" style="fill:#fff;opacity:0.6000000000000001"></path><path d="M228.9,258.59c-.06,4.54-.3,9-.8,13.49-.23,2.26-.54,4.51-1,6.86-.1.59-.24,1.2-.37,1.79s-.32,1.26-.49,1.89l-.36,1.07-.2.57c-.09.2-.17.4-.27.6l-.27.49a9.74,9.74,0,0,1-2,2.28,22,22,0,0,1-3.41,2.26c-1.09.6-2.16,1.12-3.23,1.61-2.14.95-4.26,1.79-6.4,2.54a117.57,117.57,0,0,1-13,3.78,2.54,2.54,0,0,1-1.71-4.75l0,0c3.89-1.93,7.81-3.91,11.62-5.89,1.89-1,3.78-2,5.54-3.09.89-.53,1.75-1.06,2.54-1.61a13.85,13.85,0,0,0,2-1.58c.2-.19.32-.42.14-.19l-.07.13a.81.81,0,0,0-.1.21.85.85,0,0,1,0-.22l.11-.5.21-1.34.17-1.47c.24-2,.34-4.14.48-6.26l.62-12.89v-.06a5.09,5.09,0,0,1,10.18.3Z" style="fill:#ff8b7b"></path><path d="M196.53,292.05l-6.79.38,2.72,7.69s6.11-1.09,6-4.42Z" style="fill:#ff8b7b"></path><path d="M185,297.66l1.41,2.53a2.35,2.35,0,0,0,2.85,1.08l3.21-1.15-2.72-7.69-3.79,2A2.36,2.36,0,0,0,185,297.66Z" style="fill:#ff8b7b"></path><path d="M218.91,241.7c9.74.82,12.19,8.77,11.21,19.36s-1,14.19-1,14.19H216.83s-.56-19.36-.56-21.19S218.91,241.7,218.91,241.7Z" style="fill:#CF9455"></path><path d="M218.91,241.7c9.74.82,12.19,8.77,11.21,19.36s-1,14.19-1,14.19H216.83s-.56-19.36-.56-21.19S218.91,241.7,218.91,241.7Z" style="fill:#fff;isolation:isolate;opacity:0.7000000000000001"></path><polygon points="216.27 273.2 232.03 272.07 229.22 277.84 216.27 277.84 216.27 273.2" style="fill:#CF9455"></polygon><polygon points="216.27 273.2 232.03 272.07 229.22 277.84 216.27 277.84 216.27 273.2" style="fill:#CF9455"></polygon><polygon points="216.27 273.2 232.03 272.07 229.22 277.84 216.27 277.84 216.27 273.2" style="fill:#fff;opacity:0.6000000000000001"></polygon><path d="M144.84,300.71v2.67c0,.68.8,1,1.48,1h53.33c.69,0,1.51-.28,1.51-1v-2.67Z" style="fill:#CF9455"></path><path d="M144.84,300.71v2.67c0,.68.8,1,1.48,1h53.33c.69,0,1.51-.28,1.51-1v-2.67Z" style="fill:#fff;isolation:isolate;opacity:0.4"></path><path d="M144.84,300.71v2.67c0,.68.8,1,1.48,1h35.17c.69,0,1.5-.28,1.5-1v-2.67Z" style="isolation:isolate;opacity:0.2"></path><path d="M135.91,273l6.35,28.8a2.15,2.15,0,0,0,2.06,1.63H179a1.4,1.4,0,0,0,1.31-1.81L174,273.05a2,2,0,0,0-2.07-1.41H137.22C136.29,271.64,135.71,272.06,135.91,273Z" style="fill:#CF9455"></path><path d="M135.91,273l6.35,28.8a2.15,2.15,0,0,0,2.06,1.63h33.5a1.41,1.41,0,0,0,1.32-1.81l-6.35-28.57a2,2,0,0,0-2.06-1.41H137.22C136.29,271.64,135.71,272.06,135.91,273Z" style="fill:#fff;isolation:isolate;opacity:0.4"></path><path d="M153,287.64h0c0,2.47,2.65,4.47,4.58,4.47s3.09-2,2.54-4.47-2.48-4.38-4.38-4.46c.55,2.47-.63,4.46-2.56,4.46Z" style="isolation:isolate;opacity:0.2"></path></g></g></svg>