<svg xmlns="http://www.w3.org/2000/svg" viewBox="0 0 500 500"><g id="freepik--Floor--inject-238"><ellipse id="freepik--floor--inject-238" cx="250" cy="355.78" rx="227.89" ry="131.57" style="fill:#f5f5f5"></ellipse></g><g id="freepik--Document--inject-238"><g id="freepik--Contract--inject-238"><g id="freepik--Sheet--inject-238"><polygon points="283.16 485.26 283.15 490.31 479.74 376.81 479.74 371.76 283.16 485.26" style="fill:#f0f0f0"></polygon><polygon points="479.74 371.76 218.26 220.79 21.6 334.35 283.16 485.26 479.74 371.76" style="fill:#fafafa"></polygon><path d="M218.26,222,477.65,371.76,283.16,484.05,23.7,334.34,218.26,222m0-1.21L21.6,334.34,283.16,485.26l196.58-113.5-261.48-151Z" style="fill:#ebebeb"></path><polygon points="283.16 485.26 21.6 334.35 21.6 339.26 283.15 490.31 283.16 485.36 283.16 485.26" style="fill:#e0e0e0"></polygon><g id="freepik--Text--inject-238"><path d="M103.56,308.36,56.64,335.45c-1.16.67-1.21,1.72-.13,2.35a4.51,4.51,0,0,0,4.06-.08l46.92-27.09c1.16-.67,1.22-1.72.13-2.34A4.48,4.48,0,0,0,103.56,308.36Z" style="fill:#e0e0e0"></path><path d="M119.29,317.44,72.37,344.53c-1.16.67-1.22,1.72-.13,2.35a4.51,4.51,0,0,0,4.06-.08l46.92-27.09c1.16-.67,1.22-1.72.13-2.34A4.47,4.47,0,0,0,119.29,317.44Z" style="fill:#e0e0e0"></path><path d="M93.86,323,64.5,340c-1.15.67-1.21,1.72-.13,2.34a4.47,4.47,0,0,0,4.06-.07l29.36-16.95c1.16-.67,1.22-1.72.13-2.34A4.48,4.48,0,0,0,93.86,323Z" style="fill:#e0e0e0"></path></g><g id="freepik--text--inject-238"><path d="M256.7,268.56,103.36,357.09c-1.15.67-1.21,1.72-.13,2.35a4.51,4.51,0,0,0,4.06-.08l153.34-88.53c1.16-.67,1.22-1.72.13-2.34A4.47,4.47,0,0,0,256.7,268.56Z" style="fill:#e0e0e0"></path><path d="M264.56,273.1,111.23,361.63c-1.16.67-1.22,1.72-.13,2.34a4.48,4.48,0,0,0,4.06-.07l153.33-88.53c1.16-.67,1.22-1.72.13-2.34A4.48,4.48,0,0,0,264.56,273.1Z" style="fill:#e0e0e0"></path><path d="M272.43,277.64,119.09,366.17c-1.16.67-1.22,1.72-.13,2.34a4.47,4.47,0,0,0,4.06-.07l153.34-88.53c1.15-.67,1.21-1.72.13-2.34A4.47,4.47,0,0,0,272.43,277.64Z" style="fill:#e0e0e0"></path><path d="M280.29,282.18,127,370.71c-1.15.67-1.21,1.72-.13,2.35a4.51,4.51,0,0,0,4.06-.08l153.34-88.53c1.16-.67,1.22-1.72.13-2.34A4.47,4.47,0,0,0,280.29,282.18Z" style="fill:#e0e0e0"></path></g><g id="freepik--text--inject-238"><path d="M296.16,291.35,142.83,379.87c-1.16.67-1.22,1.72-.13,2.35a4.48,4.48,0,0,0,4.06-.08l153.33-88.52c1.16-.67,1.22-1.72.13-2.35A4.48,4.48,0,0,0,296.16,291.35Z" style="fill:#e0e0e0"></path><path d="M304,295.89,150.69,384.41c-1.16.67-1.22,1.72-.13,2.35a4.48,4.48,0,0,0,4.06-.08L308,298.16c1.16-.67,1.21-1.72.13-2.35A4.48,4.48,0,0,0,304,295.89Z" style="fill:#e0e0e0"></path><path d="M311.89,300.43,158.55,389c-1.15.67-1.21,1.72-.13,2.35a4.5,4.5,0,0,0,4.07-.08L315.82,302.7C317,302,317,301,316,300.35A4.48,4.48,0,0,0,311.89,300.43Z" style="fill:#e0e0e0"></path><path d="M319.75,305,166.42,393.49c-1.16.67-1.22,1.72-.13,2.35a4.48,4.48,0,0,0,4.06-.08l153.33-88.52c1.16-.67,1.22-1.72.13-2.35A4.48,4.48,0,0,0,319.75,305Z" style="fill:#e0e0e0"></path></g><path d="M335.63,314.13,182.29,402.66c-1.16.67-1.21,1.72-.13,2.34a4.47,4.47,0,0,0,4.06-.07L339.56,316.4c1.16-.67,1.21-1.72.13-2.34A4.47,4.47,0,0,0,335.63,314.13Z" style="fill:#e0e0e0"></path><path d="M343.49,318.67,190.15,407.2c-1.15.67-1.21,1.72-.13,2.34a4.5,4.5,0,0,0,4.07-.07l153.33-88.53c1.16-.67,1.22-1.72.13-2.34A4.48,4.48,0,0,0,343.49,318.67Z" style="fill:#e0e0e0"></path><path d="M280.29,364.22l-82.21,47.43c-1.15.67-1.21,1.72-.13,2.35a4.53,4.53,0,0,0,4.07-.08l82.2-47.43c1.16-.66,1.22-1.71.13-2.34A4.51,4.51,0,0,0,280.29,364.22Z" style="fill:#e0e0e0"></path><path d="M267.87,450.24,337.63,410c.74-.43.78-1.1.08-1.51a2.89,2.89,0,0,0-2.61.05l-69.76,40.27c-.75.43-.79,1.11-.09,1.51A2.88,2.88,0,0,0,267.87,450.24Z" style="fill:#e0e0e0"></path><path d="M262.81,447.31l52.91-30.52c.74-.43.78-1.11.08-1.51a2.86,2.86,0,0,0-2.61.05l-52.91,30.52c-.75.43-.79,1.11-.09,1.51A2.92,2.92,0,0,0,262.81,447.31Z" style="fill:#e0e0e0"></path><path d="M354.41,400.3,424.17,360c.75-.43.78-1.1.09-1.51a2.92,2.92,0,0,0-2.62.05l-69.76,40.27c-.74.43-.78,1.11-.08,1.51A2.86,2.86,0,0,0,354.41,400.3Z" style="fill:#e0e0e0"></path><path d="M349.35,397.37l52.91-30.52c.75-.43.78-1.11.09-1.51a2.88,2.88,0,0,0-2.62.05l-52.91,30.52c-.74.43-.78,1.11-.08,1.51A2.89,2.89,0,0,0,349.35,397.37Z" style="fill:#e0e0e0"></path></g><path d="M328.21,404.28a51.5,51.5,0,0,0-16.08,5c-.38-.26-.72-.53-1-.79a31.56,31.56,0,0,1-6.32-7.23c-.06-.31-.13-.63-.19-.94l-1.14-5.87a6.73,6.73,0,0,0-.71-2.77,2.28,2.28,0,0,0-2.32-.83c-.2,0-.51.15-.5.29a23.53,23.53,0,0,0,3.69,10.41l0,.16c.2,1,.39,1.92.58,2.87a4.53,4.53,0,0,1,.17,2.52,3.07,3.07,0,0,1-2.85,1.44,3.14,3.14,0,0,1-3.05-1.5c-.12-.31-1.19-.27-1.09,0,.23.58.4,1.15.58,1.73l-3.22-1.76c-.33-.18-1.18-.07-1,.25a7.74,7.74,0,0,1,1.06,5.83,38.14,38.14,0,0,1-6.39-7.15c-.22-.33-1.28-.23-1.19.15.67,3,1.38,6.08,2.07,9.12.35,1.51.69,3,1,4.51a11.35,11.35,0,0,1,.48,2.11l-1.41.94c-.91-.73-1.79-1.48-2.6-2.25a10.89,10.89,0,0,0,0-3.37,20.71,20.71,0,0,0-2.74-9.71,17.78,17.78,0,0,0-1.54-2.15,11.39,11.39,0,0,0-2.09-2.07,2.68,2.68,0,0,0-2.5-.19,1.64,1.64,0,0,0-1,1.56,16.25,16.25,0,0,0,1.06,4.83,25,25,0,0,0,2.29,4.8,32.72,32.72,0,0,0,5.28,6.48,2.44,2.44,0,0,1-2.23,2L282,422c-.31-.15-1-.09-1,.17a4.29,4.29,0,0,0-.17,1.81l-3.31-.6c-.29-.05-.79.06-.82.26l-.38,2.92c0,.24.07,1.39-.43,1.48s-1.32-.48-1.6-.64-.52-.33-.76-.5a6.44,6.44,0,0,0-2.44-4.18c-.3-.26-1.21-.08-1.21.23A4.73,4.73,0,0,0,271,426a8.54,8.54,0,0,0,1,1,5.6,5.6,0,0,1-2,4.75,4.62,4.62,0,0,1-3.29,1.49,3.36,3.36,0,0,1-.85-.15c2.42-3.14,2.77-6.83.68-10a10.71,10.71,0,0,0-1.42-1.72,1,1,0,0,0-1-.1c-2.72,1.24-4.05,3.18-4.1,5.15a8.49,8.49,0,0,0,2.66,5.8,6.05,6.05,0,0,0,1.6,1.16,13.08,13.08,0,0,1-1.33,1.36,16.41,16.41,0,0,1-4,2.57,10.71,10.71,0,0,1-5.41,1.26c-2.39-.21-3.65-1.95-4.48-3.1a10.67,10.67,0,0,1-1.33-2.51c6.19-2.3,10.85-5.92,13-10,1.3-2.42,2.05-5.32.89-7.81a5.13,5.13,0,0,0-4.29-2.78,9,9,0,0,0-5.35,1.09,9.87,9.87,0,0,0-3.52,3.29,13.91,13.91,0,0,0-1.94,4.49,25.36,25.36,0,0,0-.87,8.94,12.54,12.54,0,0,0,.61,2.72l-.83.3c-.86.29-1.75.55-2.67.79-.49.13.17.4.53.31,1.08-.27,2.13-.57,3.15-.91a9.41,9.41,0,0,0,.41.93,10.18,10.18,0,0,0,3.29,3.9c3.28,2.26,8.38.33,11.15-1.26a16,16,0,0,0,4-3.19l.14,0a6,6,0,0,0,4-.55,7.25,7.25,0,0,0,3.88-4.75,5.39,5.39,0,0,0,.08-.56,7.39,7.39,0,0,0,1,.43c1.25.44,2.65.18,2.86-.7a26.46,26.46,0,0,0,.47-3.64l3.37.6c.35.06.86-.08.81-.32a4,4,0,0,1,0-1.46,4.28,4.28,0,0,0,.79.34,3,3,0,0,0,1.43-.07,3.55,3.55,0,0,0,2.09-1.31,3.14,3.14,0,0,0,.18-.31c.69.63,1.42,1.24,2.18,1.84a217.72,217.72,0,0,0-20.75,16,180.74,180.74,0,0,0-13.24,12.95c-.33.35.82.45,1.09.16A193.55,193.55,0,0,1,280,430.77c3-2.31,6.16-4.57,9.38-6.79l.07,0a1.08,1.08,0,0,0,1,.05,2.13,2.13,0,0,0,1.58-1.86c5.44-3.64,11.15-7.15,17.15-10.46.93-.52,1.9-1,2.87-1.52a7,7,0,0,0,2.25.64,11.12,11.12,0,0,0,4.65-.72,28.12,28.12,0,0,0,9.9-5.45C329.07,404.48,328.64,404.22,328.21,404.28Zm-80.83,27.43a19.68,19.68,0,0,1,.05-7.87c.46-2.86,1.14-5.82,3.55-8.37a7.73,7.73,0,0,1,4.12-2.36,4.85,4.85,0,0,1,5,1.67,5.55,5.55,0,0,1,.84,3.73,10.34,10.34,0,0,1-.88,3.56c-1.85,4.17-6.32,7.91-12.42,10.38C247.52,432.2,247.44,432,247.38,431.71Zm16.63.23a8.75,8.75,0,0,1-2.54-4.83,4.88,4.88,0,0,1,2.82-5,8,8,0,0,1,.6,10.53A6.18,6.18,0,0,1,264,431.94Zm15-23.4a20.28,20.28,0,0,1-.52-2.11,6.48,6.48,0,0,1-.24-2,1.05,1.05,0,0,1,.5-.85c.53-.25,1.09.43,1.34.66A18.1,18.1,0,0,1,281.7,406a17.7,17.7,0,0,1,3.55,8.14,32.53,32.53,0,0,1,.48,4.91c0,.14,0,.29,0,.46A27.23,27.23,0,0,1,279,408.54Zm22.24-17c.59.37.7,1.5.75,1.75l.57,2.88c.08.43.17.86.25,1.29A21.91,21.91,0,0,1,301.22,391.56Zm-5.25,27c-1.37.86-2.71,1.73-4.05,2.61,0-.14-.05-.27-.08-.4-.37-1.63-.75-3.27-1.12-4.9q-.84-3.72-1.71-7.44a47.65,47.65,0,0,0,5.68,5.69c.2.17.91.12,1-.1a7.66,7.66,0,0,0-.27-5.81l3,1.62c.26.14,1.09.12,1-.17s-.26-.74-.38-1.1a6.41,6.41,0,0,0,3.24.44c2.59-.31,3.55-1.65,3.4-3.05-.06-.64-.17-1.27-.29-1.91a28.25,28.25,0,0,0,5.17,5.28,6.22,6.22,0,0,0,.65.45l-.28.13C305.61,412.6,300.72,415.57,296,418.57Zm23.6-9.38a11.52,11.52,0,0,1-4.71,1.09,5.37,5.37,0,0,1-1.91-.51,49.9,49.9,0,0,1,13.91-4.62A26.67,26.67,0,0,1,319.57,409.19Z" style="fill:#e0e0e0"></path><path d="M376.1,350.35c-.18.07-.31.2-.3.32a43.64,43.64,0,0,0,4,13.74c-1.19.3-2.73.25-3.46-.44-.21-.2-1-.22-1.08.07s-.12.58-.19.88l-2-1.22c-.26-.15-1.07-.12-1,.17l.51,2.44a11,11,0,0,1-2.2-1.59c-.26-.26-1.19-.17-1,.17a4.08,4.08,0,0,1,.34,2.69,31.57,31.57,0,0,1-3.33-2.87c-.2-.21-1.15-.21-1.05.11a14.25,14.25,0,0,1,.53,2.8c0,.41,0,.82,0,1.24s.1,1-.32,1.38c-.64.57-1.39-.44-1.64-.73a6.26,6.26,0,0,1-.56-.74,22.58,22.58,0,0,0-1.18-2.92h0s0,0,0-.06c-.13-.28-1.1-.16-1.07.12a6.71,6.71,0,0,0,1.21,3,19.64,19.64,0,0,1,.82,3.81c-1.07.74-2.17,1.49-3.27,2.23a1.09,1.09,0,0,0-.08-.15c-.3-.6-.56-1.21-.8-1.83a9.65,9.65,0,0,0,.65-2.91,10.12,10.12,0,0,0-1.6-5.87,12.35,12.35,0,0,0,.48-2.39,8.49,8.49,0,0,0-1.18-5.1,7.62,7.62,0,0,0-5.8-3.86c-5.91-.84-10.74,2.4-11.54,5.49-1,3.72,2.15,7.47,4.47,10.83,1.26,1.84,2.56,3.67,3.76,5.52a42.82,42.82,0,0,1-6.08,3.62,44.26,44.26,0,0,1-4.24,1.8c-.38.13.31.35.61.25a47,47,0,0,0,10.14-5,44.24,44.24,0,0,1,3.1,5.6c-3.39,2.94-5.89,6.12-6.19,9.82a7.64,7.64,0,0,0,1.17,4.77c.49.77,2.26,3.48,4.42,2.49a2.53,2.53,0,0,0,1-1,12.46,12.46,0,0,0,.86-1.28,13,13,0,0,0,1.14-2.43,13.64,13.64,0,0,0,.74-5.27A19.8,19.8,0,0,0,353,381a76.4,76.4,0,0,1,6.31-4.67,4.57,4.57,0,0,0,1.43,1.79,2.75,2.75,0,0,0,2.85.07,1.52,1.52,0,0,0,.58-1.19c.06-.46.1-.93.12-1.4a18.25,18.25,0,0,0-.09-2.66c.63-.44,1.27-.88,1.88-1.34.45-.34-.57-.55-.94-.28s-.7.49-1.05.74c-.07-.47-.15-.94-.25-1.41a2.5,2.5,0,0,0,1.67.31c1.63-.26,1.43-1.64,1.43-2.38a14,14,0,0,0-.27-2.4,35.68,35.68,0,0,0,2.86,2.33c.22.16.89.13,1-.1a4.3,4.3,0,0,0,.24-2.34,14.92,14.92,0,0,0,2.14,1.19c.27.12,1,0,.91-.22l-.48-2.3,1.7,1c.23.14.94.14,1-.1s.14-.57.2-.85A7,7,0,0,0,380,365a51.18,51.18,0,0,0,2.56,4.6,58,58,0,0,0,3.69,5.18c.31.39,1.6.09,1.29-.3a53.16,53.16,0,0,1-6.3-9.86,3.94,3.94,0,0,0,2.49-3.48,12.13,12.13,0,0,0-2.86-8.84C380.12,351.36,378.43,349.47,376.1,350.35ZM353.2,391.8a13.23,13.23,0,0,1-2.38,5.14c-.11.14-.24.46-.44.56s-.17.09-.45,0a1.39,1.39,0,0,1-.34-.2,5.92,5.92,0,0,1-1.09-1.09,7.88,7.88,0,0,1-1.36-2.34c-1.22-3.3.15-6.81,2.65-9.8a24.68,24.68,0,0,1,2.21-2.26A16.81,16.81,0,0,1,353.2,391.8Zm5.25-22.2a8.78,8.78,0,0,1-.15,1.69c-.14-.47-.26-1-.36-1.43a17.48,17.48,0,0,1-.33-4A9.59,9.59,0,0,1,358.45,369.6Zm-15.18-4.13c-2.07-3.29-3.9-7.36.38-10.36a10.52,10.52,0,0,1,7.75-1.55,7,7,0,0,1,5.19,4.72,8.67,8.67,0,0,1,.17,5.51c-.07,0-.12.08-.13.13s0,.26,0,.38a16.36,16.36,0,0,1-2.35,4.51A25.18,25.18,0,0,1,349,374C347.15,371.16,345.08,368.33,343.27,365.47Zm6.22,9.24a24.84,24.84,0,0,0,7-7.26,18.27,18.27,0,0,0,1.29,5.74,2.57,2.57,0,0,1-2.11,1.91c-.61.11,0,.45.47.38a3.09,3.09,0,0,0,2.09-1.21c.2.43.42.86.65,1.29-2.19,1.5-4.36,3-6.3,4.6A48.25,48.25,0,0,0,349.49,374.71Zm13.58,1.73c0,.36.07,1-.34,1.34-.7.51-1.31-.14-1.59-.51a10.71,10.71,0,0,1-1-1.58c.85-.57,1.7-1.14,2.53-1.72l.44-.31A19.85,19.85,0,0,1,363.07,376.44ZM379,352a12.36,12.36,0,0,1,1.5,1.88,11.8,11.8,0,0,1,1.71,4.28,7.92,7.92,0,0,1-.09,4.37,2.93,2.93,0,0,1-1.16,1.4,43.22,43.22,0,0,1-2.82-7.88,37.49,37.49,0,0,1-.9-5.22C377.93,350.86,378.76,351.75,379,352Z" style="fill:#e0e0e0"></path><path d="M396.49,361.94c-.85,1-1.12,2.21-2.9,2.84a4.66,4.66,0,0,1-2.21.24h0a3.05,3.05,0,0,0-1.18-2.23,1.82,1.82,0,0,0-2.06,0c-.55.48.07,1.2.5,1.64a3.68,3.68,0,0,0,1.64.93,2.67,2.67,0,0,1-.25,1.2c-.05.12-.73,1.25-1,1.15s-.79.08-.42.24c1.59.68,2.57-1.47,2.72-2a2.32,2.32,0,0,0,.07-.38,7,7,0,0,0,2.34-.19c2.16-.54,3.59-2.07,3.79-3.38C397.5,361.74,396.66,361.75,396.49,361.94Zm-7.1,1.82c-.05-.08-.4-.75-.22-.73,0,0,.24.31.26.33s.19.23.28.34a3,3,0,0,1,.4.8A3.12,3.12,0,0,1,389.39,363.76Z" style="fill:#e0e0e0"></path><path d="M392.71,358.19c-.32.18.35.4.61.25S393,358,392.71,358.19Z" style="fill:#e0e0e0"></path><path d="M325.65,412.93l-4.28,2c10,6.85,28.36,7.53,41,1.51L359,414.16C348.71,419.05,333.76,418.5,325.65,412.93Zm5.56-17.84c-9.1,4.34-10.64,11.89-3.45,16.83s20.44,5.43,29.54,1.09,10.64-11.89,3.44-16.83S340.3,390.75,331.21,395.09Zm24.39,16.76c-7.91,3.78-19.44,3.35-25.7-1a11.61,11.61,0,0,1-1.2-.94L357.16,411A17.56,17.56,0,0,1,355.6,411.85Zm3.66-2.31-32-1.19c-2.26-3.17-1.47-6.9,2.09-9.86l31.88,1.18C363.51,402.84,362.78,406.57,359.26,409.54ZM331.45,397c.46-.27.94-.52,1.45-.77,7.91-3.78,19.44-3.35,25.7.95a13.15,13.15,0,0,1,1.12.86Zm-14.33,20c11.83,8.13,33.63,8.93,48.59,1.79s17.5-19.56,5.67-27.69-33.63-8.93-48.59-1.79S305.29,408.87,317.12,417Zm52.12-24.88c10.9,7.49,8.56,18.93-5.22,25.51s-33.86,5.84-44.76-1.65-8.56-18.93,5.22-25.51S358.34,384.64,369.24,392.12Zm-39.7,1.82c10.26-4.89,25.2-4.34,33.32,1.23l4.27-2c-10-6.85-28.36-7.53-41-1.51Z" style="fill:#CF9455;opacity:0.2"></path><path d="M151.32,304.78l-2.89-6.19a3.16,3.16,0,0,1-.05-.35c0-.17.1-.33.38-.49l1.4-.81a1.19,1.19,0,0,1,.56-.13,1.15,1.15,0,0,1,.55.13l13.33,7.7a.36.36,0,0,1,.22.32.37.37,0,0,1-.22.32l-1.67,1a1.19,1.19,0,0,1-1.12,0l-8.06-4.65,2,4.23a.81.81,0,0,1,0,.36c0,.14-.11.26-.3.37l-1.07.62a1.44,1.44,0,0,1-.65.18,5.78,5.78,0,0,1-.63,0l-7.32-1.13,8.06,4.65a.39.39,0,0,1,.23.32.37.37,0,0,1-.23.32l-1.67,1a1.08,1.08,0,0,1-.56.13,1,1,0,0,1-.55-.13l-13.33-7.69a.35.35,0,0,1,0-.65l1.41-.81a1.59,1.59,0,0,1,.83-.22l.61,0Z" style="fill:#CF9455"></path><path d="M175.41,296.06a1.15,1.15,0,0,1,.55-.13,1.19,1.19,0,0,1,.56.13l1.46.85a.36.36,0,0,1,.23.32.38.38,0,0,1-.23.32l-9,5.23a1.08,1.08,0,0,1-.56.13,1,1,0,0,1-.55-.13l-13.33-7.69a.34.34,0,0,1,0-.65l8.89-5.13a1.08,1.08,0,0,1,.56-.13,1,1,0,0,1,.55.13l1.47.85a.37.37,0,0,1,.23.32.39.39,0,0,1-.23.32l-6.66,3.85,3.28,1.89,6.2-3.59a1.22,1.22,0,0,1,.56-.13,1.19,1.19,0,0,1,.56.13l1.46.85a.38.38,0,0,1,.23.32.37.37,0,0,1-.23.32L165.15,298l3.43,2Z" style="fill:#CF9455"></path><path d="M172.54,284a11,11,0,0,1,5.11-1.57,8.65,8.65,0,0,1,4.67,1.15,3.9,3.9,0,0,1,1.87,1.88,2.09,2.09,0,0,1-.45,2.08l7.94,1.3a.9.9,0,0,1,.29.09.29.29,0,0,1,0,.53l-1.76,1a1.57,1.57,0,0,1-.8.24,3.69,3.69,0,0,1-.64-.05l-7.51-1.21-2.74,1.58,4.81,2.77a.38.38,0,0,1,.22.33.37.37,0,0,1-.23.32l-1.67,1a1,1,0,0,1-.55.13,1.08,1.08,0,0,1-.56-.13l-13.32-7.69a.38.38,0,0,1-.23-.32.37.37,0,0,1,.23-.32Zm3.4,5.54,3-1.73a3.4,3.4,0,0,0,1.47-1.32c.19-.43-.1-.86-.87-1.31a3.43,3.43,0,0,0-2.25-.49,6.87,6.87,0,0,0-2.27.86l-3,1.73Z" style="fill:#CF9455"></path><path d="M185.31,282.82a6.23,6.23,0,0,1-1.81-1.57,2.61,2.61,0,0,1-.56-1.7,3.12,3.12,0,0,1,.8-1.77A8.44,8.44,0,0,1,186,276a13.21,13.21,0,0,1,3.42-1.44,13.72,13.72,0,0,1,3-.43,9.33,9.33,0,0,1,2.31.21,8.61,8.61,0,0,1,1.49.49c.18.09.26.2.24.32a.43.43,0,0,1-.24.33l-1.67,1a1.06,1.06,0,0,1-.48.14,1.94,1.94,0,0,1-.43,0l-.58-.08a5.82,5.82,0,0,0-1.13,0,10.23,10.23,0,0,0-1.54.27,7.06,7.06,0,0,0-1.78.76c-1,.59-1.58,1.23-1.64,1.91s.35,1.3,1.24,1.86c.5.32,1.05.65,1.64,1s1.17.66,1.73.94a6.51,6.51,0,0,0,3.47.87,7.12,7.12,0,0,0,3.25-1,6.12,6.12,0,0,0,1.24-.9,1.83,1.83,0,0,0,.56-.95,1.23,1.23,0,0,0-.25-1,4,4,0,0,0-1.24-1l-.17-.1-2.51,1.46a1.19,1.19,0,0,1-.56.13,1.22,1.22,0,0,1-.56-.13l-1.46-.85a.38.38,0,0,1-.23-.32.37.37,0,0,1,.23-.32l4.74-2.74a1.27,1.27,0,0,1,1.12,0l2.27,1.31a6.39,6.39,0,0,1,1.88,1.54A2.56,2.56,0,0,1,204,281a3.08,3.08,0,0,1-.78,1.81,8.46,8.46,0,0,1-2.32,1.82,13.25,13.25,0,0,1-3.14,1.34,12.3,12.3,0,0,1-3.07.44,11.25,11.25,0,0,1-3-.36,12.1,12.1,0,0,1-2.72-1.06l-.9-.48c-.32-.18-.65-.36-1-.56l-1-.56Z" style="fill:#CF9455"></path><path d="M216.55,272.31a1.1,1.1,0,0,1,.56-.13,1.08,1.08,0,0,1,.56.13l1.46.84a.39.39,0,0,1,.23.32.37.37,0,0,1-.23.32l-9,5.23a1.27,1.27,0,0,1-1.12,0l-13.32-7.69a.38.38,0,0,1-.23-.32.37.37,0,0,1,.23-.32l8.89-5.14a1.19,1.19,0,0,1,.56-.13,1.15,1.15,0,0,1,.55.13l1.47.85a.37.37,0,0,1,.22.32.36.36,0,0,1-.22.32l-6.67,3.85,3.28,1.89,6.21-3.58a1.27,1.27,0,0,1,1.12,0l1.46.84a.34.34,0,0,1,0,.65l-6.21,3.58,3.43,2Z" style="fill:#CF9455"></path><path d="M213.69,260.27a10.84,10.84,0,0,1,5.11-1.58,8.59,8.59,0,0,1,4.66,1.15,4,4,0,0,1,1.88,1.88,2.08,2.08,0,0,1-.45,2.08l7.94,1.3a1,1,0,0,1,.28.1.3.3,0,0,1,.19.26.31.31,0,0,1-.18.26l-1.76,1a1.57,1.57,0,0,1-.8.24,2.85,2.85,0,0,1-.64-.05l-7.51-1.21-2.74,1.58,4.8,2.78a.35.35,0,0,1,.23.32.38.38,0,0,1-.23.32l-1.67,1a1.15,1.15,0,0,1-.55.13,1.19,1.19,0,0,1-.56-.13L208.36,264a.36.36,0,0,1-.22-.32.37.37,0,0,1,.22-.32Zm3.4,5.53,3-1.72a3.43,3.43,0,0,0,1.46-1.32c.2-.43-.09-.87-.86-1.31a3.32,3.32,0,0,0-2.25-.49,6.66,6.66,0,0,0-2.27.86l-3,1.72Z" style="fill:#CF9455"></path><path d="M134,301.52a.79.79,0,0,1-.45.11.85.85,0,0,1-.46-.11l-10.9-6.29A.31.31,0,0,1,122,295a.32.32,0,0,1,.18-.27l5-2.87a7.24,7.24,0,0,1,2.13-.85,8.34,8.34,0,0,1,2-.2A7.48,7.48,0,0,1,133,291a5.56,5.56,0,0,1,1.28.52,2.78,2.78,0,0,1,.77.6,1.62,1.62,0,0,1,.34.58,1.29,1.29,0,0,1,.08.49,1.07,1.07,0,0,1-.06.32,9.38,9.38,0,0,1,2,0,5.33,5.33,0,0,1,2.08.69,3.62,3.62,0,0,1,1,.88,1.94,1.94,0,0,1,.44,1.05,1.71,1.71,0,0,1-.32,1.13,3.59,3.59,0,0,1-1.26,1.1Zm-1.9-8.6a2.39,2.39,0,0,0-1.38-.32,3.55,3.55,0,0,0-1.61.55l-3,1.72,2.6,1.5,3-1.72c.58-.34.9-.65,1-.93S132.48,293.17,132.06,292.92Zm1.62,6.33,3.12-1.8c.62-.36.94-.69,1-1s-.18-.6-.61-.85a2.79,2.79,0,0,0-1.49-.35,3.72,3.72,0,0,0-1.75.55l-3.12,1.8Z" style="fill:#CF9455"></path><path d="M142.4,283a.92.92,0,0,1,.46-.1.88.88,0,0,1,.45.1l6.92,4a5.66,5.66,0,0,1,1.59,1.26,2,2,0,0,1,0,2.79,6.37,6.37,0,0,1-1.78,1.4,10,10,0,0,1-2.45,1,9.37,9.37,0,0,1-2.44.33,8.84,8.84,0,0,1-2.36-.32,9.63,9.63,0,0,1-2.18-.92l-6.92-4a.32.32,0,0,1-.18-.27.31.31,0,0,1,.18-.26l1.37-.79a.89.89,0,0,1,.46-.11.88.88,0,0,1,.45.11l6.83,4a6.05,6.05,0,0,0,1.37.57,4.68,4.68,0,0,0,1.32.16,4.88,4.88,0,0,0,1.27-.2,6.1,6.1,0,0,0,1.17-.51,4.24,4.24,0,0,0,.9-.69,1.23,1.23,0,0,0,.36-.73,1.12,1.12,0,0,0-.27-.77,3.28,3.28,0,0,0-1-.79l-6.83-3.95a.28.28,0,0,1,0-.53Z" style="fill:#CF9455"></path><path d="M149.28,278.85a10,10,0,0,1,2.3-1,11.65,11.65,0,0,1,2.19-.39,8.15,8.15,0,0,1,1.88.08A4.88,4.88,0,0,1,157,278c.15.07.22.16.2.26a.32.32,0,0,1-.2.26l-1.18.69a1.23,1.23,0,0,1-.54.18,2.71,2.71,0,0,1-.56,0,5.42,5.42,0,0,0-1.5,0,5.31,5.31,0,0,0-1.84.7,4,4,0,0,0-.74.54,1.79,1.79,0,0,0-.42.55.73.73,0,0,0,0,.52.88.88,0,0,0,.41.43,2,2,0,0,0,.79.27,3.09,3.09,0,0,0,1-.07,8.71,8.71,0,0,0,1.33-.39l1.9-.69a23.59,23.59,0,0,1,2.26-.71,9.38,9.38,0,0,1,1.91-.28,6.26,6.26,0,0,1,1.65.15,5.24,5.24,0,0,1,1.46.58,2.76,2.76,0,0,1,1.07,1,1.55,1.55,0,0,1,.15,1.19,3.16,3.16,0,0,1-.8,1.32,7.83,7.83,0,0,1-1.77,1.33,11.09,11.09,0,0,1-2,.91,11.26,11.26,0,0,1-2.18.5,8.79,8.79,0,0,1-2.11,0,5.54,5.54,0,0,1-1.81-.51c-.14-.08-.21-.16-.2-.27a.36.36,0,0,1,.2-.26l1.18-.68a1.57,1.57,0,0,1,.54-.2,1.81,1.81,0,0,1,.56,0c.23,0,.47.07.73.09a3.47,3.47,0,0,0,.84,0,5.61,5.61,0,0,0,1-.25,7.24,7.24,0,0,0,1.18-.56,7.06,7.06,0,0,0,.9-.61,2.14,2.14,0,0,0,.57-.62.86.86,0,0,0,.14-.58.76.76,0,0,0-.43-.51,1.7,1.7,0,0,0-.85-.21,4.36,4.36,0,0,0-1.12.18c-.43.12-.93.29-1.51.5s-1.25.46-2,.72a17.4,17.4,0,0,1-2,.58,9.06,9.06,0,0,1-1.73.21,5.83,5.83,0,0,1-1.57-.2,5.9,5.9,0,0,1-1.51-.64,2.64,2.64,0,0,1-1.06-1,1.66,1.66,0,0,1-.17-1.17,2.85,2.85,0,0,1,.69-1.23A6,6,0,0,1,149.28,278.85Z" style="fill:#CF9455"></path><path d="M168.6,281.52a.79.79,0,0,1-.45.11.85.85,0,0,1-.46-.11l-10.9-6.29a.31.31,0,0,1-.18-.26.32.32,0,0,1,.18-.27l1.37-.78a.79.79,0,0,1,.45-.11.83.83,0,0,1,.46.11l10.9,6.29c.12.07.19.16.18.26a.3.3,0,0,1-.18.26Z" style="fill:#CF9455"></path><path d="M180.72,274.53a1.16,1.16,0,0,1-.59.16h-.46l-11.74-1.33,6.95,4c.12.08.19.16.19.27a.32.32,0,0,1-.19.26l-1.37.79a.88.88,0,0,1-.45.11,1,1,0,0,1-.46-.11l-10.9-6.29a.32.32,0,0,1-.18-.27.31.31,0,0,1,.18-.26l1.18-.68a1.18,1.18,0,0,1,.59-.17h.46l11.74,1.33-6.95-4a.3.3,0,0,1-.18-.26.31.31,0,0,1,.18-.26l1.37-.79a.88.88,0,0,1,.45-.11.92.92,0,0,1,.46.11l10.9,6.29a.29.29,0,0,1,0,.53Z" style="fill:#CF9455"></path><path d="M190.74,266.31a.92.92,0,0,1,.46-.11.88.88,0,0,1,.45.11l1.2.69c.12.07.19.16.18.26a.3.3,0,0,1-.18.26l-7.41,4.28a.88.88,0,0,1-.45.11.92.92,0,0,1-.46-.11l-10.9-6.29a.29.29,0,0,1,0-.53l7.27-4.2a1.11,1.11,0,0,1,.92,0l1.19.7a.27.27,0,0,1,0,.52l-5.45,3.15,2.68,1.55,5.08-2.93a1,1,0,0,1,.92,0l1.19.69a.27.27,0,0,1,0,.52l-5.08,2.93,2.8,1.62Z" style="fill:#CF9455"></path><path d="M187.47,256.8a9.43,9.43,0,0,1,2.29-1,10.34,10.34,0,0,1,2.19-.39,8.16,8.16,0,0,1,1.88.07,5.13,5.13,0,0,1,1.36.41q.23.11.21.27a.36.36,0,0,1-.2.26l-1.19.68a1.4,1.4,0,0,1-.54.19,3.53,3.53,0,0,1-.55,0,5.13,5.13,0,0,0-1.51,0,5,5,0,0,0-1.83.7,4.67,4.67,0,0,0-.75.53,1.82,1.82,0,0,0-.42.56.65.65,0,0,0,0,.51.78.78,0,0,0,.4.43,2.25,2.25,0,0,0,.8.28,3,3,0,0,0,1-.07,11.82,11.82,0,0,0,1.33-.39l1.91-.69a19.74,19.74,0,0,1,2.26-.71,9.25,9.25,0,0,1,1.9-.29,6.26,6.26,0,0,1,1.65.15,5.57,5.57,0,0,1,1.46.58,2.76,2.76,0,0,1,1.07,1,1.57,1.57,0,0,1,.15,1.2,3,3,0,0,1-.8,1.31,7.84,7.84,0,0,1-1.77,1.34,12,12,0,0,1-2,.91,11.53,11.53,0,0,1-2.19.5,9.33,9.33,0,0,1-2.11,0,5.32,5.32,0,0,1-1.8-.52c-.15-.07-.22-.16-.21-.26a.39.39,0,0,1,.21-.27l1.18-.68a1.4,1.4,0,0,1,.54-.19,1.74,1.74,0,0,1,.55,0c.23,0,.47.07.73.09a4.91,4.91,0,0,0,.84,0,5.49,5.49,0,0,0,1-.26,7.12,7.12,0,0,0,1.18-.55,7.41,7.41,0,0,0,.9-.61,2.34,2.34,0,0,0,.58-.62.88.88,0,0,0,.13-.59.77.77,0,0,0-.43-.5,1.59,1.59,0,0,0-.84-.21,3.81,3.81,0,0,0-1.12.17c-.44.13-.94.29-1.51.51l-2,.72a17.24,17.24,0,0,1-2,.57,7.63,7.63,0,0,1-1.73.21A6.17,6.17,0,0,1,188,262a6.51,6.51,0,0,1-1.51-.64,2.68,2.68,0,0,1-1.07-1,1.66,1.66,0,0,1-.17-1.17A2.8,2.8,0,0,1,186,258,6.08,6.08,0,0,1,187.47,256.8Z" style="fill:#CF9455"></path><path d="M198.4,250.49a9.77,9.77,0,0,1,2.3-1,11.51,11.51,0,0,1,2.19-.39,8.06,8.06,0,0,1,1.87.08,5.33,5.33,0,0,1,1.37.41c.14.07.21.16.2.26a.35.35,0,0,1-.2.27l-1.18.68a1.23,1.23,0,0,1-.54.18,2.15,2.15,0,0,1-.56,0,5.84,5.84,0,0,0-1.5,0,5.52,5.52,0,0,0-1.84.7,4,4,0,0,0-.74.54,1.58,1.58,0,0,0-.42.56.7.7,0,0,0,0,.51.8.8,0,0,0,.41.43,2,2,0,0,0,.79.27,3,3,0,0,0,1-.06,11.91,11.91,0,0,0,1.34-.39l1.9-.7a22.74,22.74,0,0,1,2.26-.71,9.28,9.28,0,0,1,1.91-.28,6.22,6.22,0,0,1,1.64.15,5.43,5.43,0,0,1,1.46.58,2.73,2.73,0,0,1,1.08,1,1.67,1.67,0,0,1,.15,1.2,3.17,3.17,0,0,1-.81,1.31,7.4,7.4,0,0,1-1.77,1.33,10.37,10.37,0,0,1-2,.91,10.72,10.72,0,0,1-2.18.5,8.3,8.3,0,0,1-2.11,0,5.31,5.31,0,0,1-1.81-.51c-.15-.07-.21-.16-.2-.27a.36.36,0,0,1,.2-.26l1.18-.68a1.26,1.26,0,0,1,.54-.19,2.15,2.15,0,0,1,.56,0,7.07,7.07,0,0,0,.72.09,3.58,3.58,0,0,0,.85,0,5.52,5.52,0,0,0,1-.25,6.19,6.19,0,0,0,1.18-.56,7.17,7.17,0,0,0,.91-.6A2.48,2.48,0,0,0,210,255a.92.92,0,0,0,.14-.58.75.75,0,0,0-.43-.5,1.61,1.61,0,0,0-.85-.22,4.3,4.3,0,0,0-1.12.18c-.43.12-.94.29-1.51.5s-1.25.46-2,.72a16.69,16.69,0,0,1-1.95.58,7.77,7.77,0,0,1-1.73.21,5.78,5.78,0,0,1-1.57-.2,6.07,6.07,0,0,1-1.51-.63,2.66,2.66,0,0,1-1.06-1,1.6,1.6,0,0,1-.17-1.17,2.77,2.77,0,0,1,.69-1.22A5.84,5.84,0,0,1,198.4,250.49Z" style="fill:#CF9455"></path></g></g><g id="freepik--Shadows--inject-238"><path id="freepik--Shadow--inject-238" d="M179.33,369.53c9-4.25,17.84-9,27.13-12.43,7.6-2.83,15.58-4.84,22.62-8.87a20.55,20.55,0,0,0,6.77-5.71,9.92,9.92,0,0,0,1.66-8.46c-1.13-3.63-4.4-4.83-7.86-5-8.53-.35-17,1.86-24.87,5.24s-15.15,7.89-22.42,12.38a87.88,87.88,0,0,1-21.72,10.05c-8.09,2.42-16.44,4.41-23.87,8.56A11.65,11.65,0,0,0,132,369.5c-2.34,4.23,1.58,8.61,5.63,9.49a38.83,38.83,0,0,0,14.77-.06C161.83,377.3,170.64,373.64,179.33,369.53Z" style="opacity:0.15"></path><path id="freepik--shadow--inject-238" d="M332.28,276.55c-2.1-2.54-5.71-3.65-9.47-3.1s-7.22,2.48-10.56,4.37c-5.53,3.14-11.06,6.27-16.31,9.88-2.7,1.87-6,3.65-8.22,6.12-1.47,1.66-3,3.5-3.24,5.71-.45,3.84,2.83,6,6.07,6.81a20.33,20.33,0,0,0,8,.18c6.72-1,13-3.94,18.86-7.21,5.51-3.06,11.2-6.08,14.73-11.53a10.72,10.72,0,0,0,2-5.78A8.47,8.47,0,0,0,332.28,276.55Z" style="opacity:0.15"></path></g><g id="freepik--Characters--inject-238"><g id="freepik--Character--inject-238"><g id="freepik--Chartacter--inject-238"><g id="freepik--Bottom--inject-238"><path d="M333.22,250.16a10,10,0,0,1,6,3.19c2.15,2.74,6.92,10.93,7.86,11.84a6.7,6.7,0,0,1-2.13,2.24l-2.55-2.88c-.63-.52-.9-1.1-.87.6s.27,3.45.23,6c0,2,.38,5.8-3.06,9.64-3.21,3.59-6.66,5.32-9.06,5.65-1.43.2-3.94-.13-3.78-3,.08-1.51.76-6.48,1-9.23S333.22,250.16,333.22,250.16Z" style="fill:#263238"></path><path d="M333.9,250.79a11.47,11.47,0,0,1-2.72-3.6c-.62-1.26-3.78-8.23-7.56-17.9-4.88-12.43-13-21.61-15.51-26.28a98.08,98.08,0,0,1-7.06-15.9L291,193.83l-13.3-.24c-.13,2,.68,4.6,2.16,7.66h0l0,.08c.13.27.28.56.43.84,3,5.82,8,12.86,13.65,20l.13.17.2.25c5.44,6.88,11.41,13.88,16.63,19.94v-.15a136.74,136.74,0,0,1,11.54,15.2c4.72,7.73,4.4,14.5,4.43,18.63,0,2.58,2,3.07,4.73.82a13.78,13.78,0,0,0,5.26-11.34C337.45,256.86,336.68,254.32,333.9,250.79Z" style="fill:#b16668"></path><path d="M300.75,194l-23.1-.43c0,.25,0,.52,0,.79,0,.1,0,.21,0,.31s0,.36.05.55,0,.27.08.41l.09.5c0,.16.09.33.13.5l.12.45c0,.05,0,.1.05.14s5.84,4,16.65,5.84c0,0,.33,17.24,3.19,24.2l0,0v0l3.21,3.89C301.73,220.85,300.75,194,300.75,194Z" style="fill:#9a4a4d"></path><path d="M316.94,268.46a11.53,11.53,0,0,1,3.14,6.48c.32,3.73-.12,13.93.17,15.31a6.44,6.44,0,0,1-3,.77l-.58-4.1c-.25-.84-.16-1.51-1.06,0s-1.65,3.28-3.05,5.54c-1.12,1.79-2.83,5.47-7.81,6.93-4.64,1.37-8.48.91-10.67-.19-1.31-.65-3.24-2.43-1.56-4.91.89-1.32,4.16-5.41,5.86-7.76S316.94,268.46,316.94,268.46Z" style="fill:#263238"></path><path d="M304.3,268.34c.24-9.76-8.94-54.36-6.47-75.31l26.19-.32a112.87,112.87,0,0,0-2.71,18.51c-.43,5.7,1.4,18.74-1.26,32.84a190.37,190.37,0,0,0-3,19.91c0,1.51-.16,4.71-.09,5.54.42,4.82-.31,7.56-5.6,15.2-1,1.47-3.48,6.24-10.58,7.17-3.49.45-4.91-1.17-3.53-3.51C299.51,284.62,304.07,278.09,304.3,268.34Z" style="fill:#b16668"></path><path d="M321.31,211.22c-.05,2.22.08,4.42.2,6.63s.2,4.43.27,6.64a107.54,107.54,0,0,1-.48,13.31c-.23,2.21-.59,4.4-1,6.58l-1.2,6.5q-.59,3.26-1.1,6.53c-.35,2.18-.7,4.36-.91,6.56a127,127,0,0,1,1.5-13.19c.64-4.38,1.64-8.68,2-13.07.26-2.18.39-4.39.51-6.59s.1-4.41.12-6.62,0-4.42-.08-6.63S321.1,213.43,321.31,211.22Z" style="fill:#9a4a4d"></path><path d="M297.45,204.69a82.08,82.08,0,0,1,.38-11.66l26.19-.32a83.34,83.34,0,0,0-1.68,8.81h0S312.28,206.59,297.45,204.69Z" style="fill:#9a4a4d"></path><path d="M278.12,150.42a153.4,153.4,0,0,1,2.84-17.9c1-4.52,2-8.44,2.71-11.9,7.61,5.07,26.53,5.53,35.24-.18a90.76,90.76,0,0,1,9.21,16.07c3,7.08,4.23,11.5,4.09,20.29-.13,8-3.72,31.68-7,41.78-8.85,4.91-39.88,3.78-48.66-5C276.56,193.57,277.07,158.75,278.12,150.42Z" style="fill:#455a64"></path></g><g id="freepik--Top--inject-238"><g id="freepik--Head--inject-238"><path d="M286.32,41.3a4.72,4.72,0,0,1,.5-2.95c1.1-2,3.53-2.94,5.81-3.17a9.94,9.94,0,0,0,3.65-.68C297.3,34,298,33,299,32.36a5.68,5.68,0,0,1,3.84-.7,7.58,7.58,0,0,1,4.22,1.95,7.57,7.57,0,0,0,3.14,1.92c2.85.82,4.89-.2,7.56,2.12a7.24,7.24,0,0,1,2.19,6c2,1.09,4.87,8,1.3,16-1.83,4.08-4.17,6-7.05,9.49l-2.93.14c-1.08-2.44-3.55-1.86-5.86-2.32-1.42-.56-2.24-2-3.59-2.63a10.89,10.89,0,0,0-4-.67,7.68,7.68,0,0,1-4.35-1.23,7,7,0,0,1-1.81-3c-.3-.71-.84-3.09,0-3.68-1.31,1-3.91,1.52-5.31.49a2.88,2.88,0,0,1-1.09-2.85,2.32,2.32,0,0,0,.11-.64,1.39,1.39,0,0,0-.72-1.05c-.38-.24-.8-.38-1.17-.63a3.22,3.22,0,0,1-1-3.55,6.21,6.21,0,0,1,2.43-3c.68-.49,1.48-1,1.61-1.84A4,4,0,0,0,286.32,41.3Z" style="fill:#263238"></path><path d="M297.49,78.57l1.52-.26c1.3-.22,1.12-1.7,1.18-3l0-2a8.89,8.89,0,0,1-6.62-1.76c-2.8-2.23-4.46-6.85-4.43-11.89,0-3.35.82-5,.74-5.7-.49-4.47-.18-5.28.76-7.64,1.71-3.77,6.37-5.33,8.59-1.46,5.63-4.82,12.35.87,12.42,7.79-.53,5.74,1.23,5.94,2.35,5.93,1.48-3.63,5.16-3.74,6.81-1.52,1.5,2,1.61,5.22-1,8.26s-5.52,1.27-5.58.69c0,0-.09,7.71-.08,9.24s.22,2.43,2.15,3h0l2.78.78s-.14.2-.43.54c-.65.84-2.08,2.67-4.49,5.8a133.29,133.29,0,0,0-18.43,9.4,85.14,85.14,0,0,1-3.4-9.89A36.6,36.6,0,0,1,297.49,78.57Z" style="fill:#b16668"></path><path d="M303.39,63.48l-4.3,1.36a2.21,2.21,0,0,0,2.79,1.55A2.37,2.37,0,0,0,303.39,63.48Z" style="fill:#9a4a4d"></path><path d="M303.11,64.47a2.48,2.48,0,0,0-2.48,1.93,2.13,2.13,0,0,0,1.25,0,2.34,2.34,0,0,0,1.57-1.87Z" style="fill:#f28f8f"></path><path d="M291.23,51.59l3.31-1.05a1.67,1.67,0,0,0-2.12-1.16A1.82,1.82,0,0,0,291.23,51.59Z" style="fill:#263238"></path><path d="M307.07,52.43l-3.27-1.27a1.69,1.69,0,0,1,2.21-1A1.84,1.84,0,0,1,307.07,52.43Z" style="fill:#263238"></path><path d="M295.2,54.87a1.46,1.46,0,0,1-1.31,1.54,1.37,1.37,0,0,1-1.52-1.25,1.45,1.45,0,0,1,1.31-1.54A1.37,1.37,0,0,1,295.2,54.87Z" style="fill:#263238"></path><path d="M305.48,55.49a1.5,1.5,0,0,1-1.33,1.58,1.4,1.4,0,0,1-1.55-1.29,1.49,1.49,0,0,1,1.33-1.57A1.4,1.4,0,0,1,305.48,55.49Z" style="fill:#263238"></path><path d="M300.22,73.32c5.5-.54,10.78-2,12.13-5.39a5.65,5.65,0,0,1-3.15,4.68,19.9,19.9,0,0,1-9,2.33Z" style="fill:#9a4a4d"></path><polygon points="294.5 59.59 299.56 61.46 300.22 51.95 294.5 59.59" style="fill:#9a4a4d"></polygon></g><path d="M276.37,97c-5.95,16.73-8.69,23.73-8.69,23.73s-19.06,17.07-22.2,19.33-9,5.8-9,5.8c-3.57,2.47-4.84,4-5.75,6.3s.48,6.44,2,8.25,2.82,3.11,4.76,3.34h0a13.19,13.19,0,0,0,3.77-.07c.45-.22.86-.54,1.33-.72s1.22-.23,1.77-.5c.89-.43,1.35-1.44,2.16-2,.4-.27.86-.42,1.25-.69a3.8,3.8,0,0,0,.85-.8,2.47,2.47,0,0,0,.67-1.81,3,3,0,0,0-.29-.78l-.51-1.08a3.67,3.67,0,0,1,.48-2.08c.61-.79,2.68-3.36,2.68-3.36h0l.17-.12c1.23-1,2.12-2,3.06-2.8a38.69,38.69,0,0,1,5.06-3.48c9.42-5.71,15.24-10.07,18.8-12.27s4.07-4.37,6.7-8.88c4.47-7.67,9.42-19,9.42-19l.39-25.67C284.36,78.33,280.26,86.05,276.37,97Zm-38.93,66.75h0Zm.15,0,.45.06Z" style="fill:#b16668"></path><path d="M256.79,130.15l-4.37,3.64a14.26,14.26,0,0,1,4.76,4.47,15.38,15.38,0,0,1,2.24,5.87l4.86-3s0-2.63-2.46-6.32A15.12,15.12,0,0,0,256.79,130.15Z" style="fill:#CF9455"></path><path d="M256.79,130.15l-4.37,3.64a14.26,14.26,0,0,1,4.76,4.47,15.38,15.38,0,0,1,2.24,5.87l4.86-3s0-2.63-2.46-6.32A15.12,15.12,0,0,0,256.79,130.15Z" style="fill:#fff;opacity:0.7000000000000001"></path><path d="M295.2,77.31c-6.23.84-10.82,2.14-14.54,9.32s-13.06,33.22-13.06,33.22l-12.89,11.68a14.54,14.54,0,0,1,4.93,4.55,17.23,17.23,0,0,1,2.51,6.7s12.54-8.13,16.69-10.73,5.41-5.27,9.63-12.89,7.45-13.75,7.45-13.75Z" style="fill:#263238"></path><g id="freepik--Chest--inject-238"><path d="M298.93,78.33s-2.45,5.1-.78,8.18c8.24-.94,15.2-4.77,18-7.35l6.93,1.09s4.53,8.65,3.12,16-7.3,24.18-7.3,24.18c-7.84,11.39-34.53,5.37-35.24.18,0,0-.79-6.46-1.45-11.78,0,0-3.74-3.59-3.92-8.39-.2-5,1.88-8.57,7-13.77a62.71,62.71,0,0,1,9.64-8.18Z" style="fill:#CF9455"></path><path d="M298.93,78.33s-2.45,5.1-.78,8.18c8.24-.94,15.2-4.77,18-7.35l6.93,1.09s4.53,8.65,3.12,16-7.3,24.18-7.3,24.18c-7.84,11.39-34.53,5.37-35.24.18,0,0-.79-6.46-1.45-11.78,0,0-3.74-3.59-3.92-8.39-.2-5,1.88-8.57,7-13.77a62.71,62.71,0,0,1,9.64-8.18Z" style="fill:#fff;opacity:0.7000000000000001"></path><path d="M313.84,107.79a10.61,10.61,0,0,1-9.14,7,11.18,11.18,0,0,1-10.28-4.48s1.44,7.68,10.56,6.33S313.84,107.79,313.84,107.79Z" style="fill:#CF9455;opacity:0.30000000000000004"></path><path d="M314.28,76.22s-6.8,15.83-9.09,23.47-1.1,13.74-.24,27.57c.67,10.64,1.83,26.7,1.83,26.7s20.19-.29,26.39-9.29c-1.65-5.29-6.83-17.63-8.16-21s-.68-6.36,1.47-14.16,5.63-12.08,5.53-17.86a16.14,16.14,0,0,0-5.6-11.43Z" style="fill:#37474f"></path><path d="M300,77.52a1.27,1.27,0,0,1-.85.8s-13.7,13.17-14.65,26.81-1.81,43.52-1.81,43.52-1.49-.69-4.39-3.85c.62-6.2,2.76-30.67,2.18-33.47s-7.26-9.19-1.14-18.3S295.2,77.31,295.2,77.31l5-1.09A3.25,3.25,0,0,1,300,77.52Z" style="fill:#37474f"></path><path d="M293.24,80.85c-.87.79-1.74,1.58-2.57,2.4-1.68,1.63-3.35,3.27-5,5-.8.86-1.6,1.72-2.37,2.6-.39.44-.77.89-1.14,1.36a4.63,4.63,0,0,0-1,1.62,5.23,5.23,0,0,0-.11,1.88,10.37,10.37,0,0,0,.34,1.78,22,22,0,0,0,1.12,3.16,14.35,14.35,0,0,0-2.31,3.78,2.44,2.44,0,0,0-.14.62,3.27,3.27,0,0,0,0,.63c0,.39.1.77.16,1.15.13.75.28,1.5.44,2.24.64,3,1.4,5.91,2.23,8.84-.59-3-1.18-6-1.72-8.93-.13-.75-.25-1.49-.35-2.24,0-.37-.1-.74-.11-1.1a2.07,2.07,0,0,1,.12-1,14.51,14.51,0,0,1,2.37-3.71l.14-.18-.09-.21a21.88,21.88,0,0,1-1.12-3.25,10.73,10.73,0,0,1-.3-1.66A4.54,4.54,0,0,1,282,94a4.25,4.25,0,0,1,.81-1.36c.36-.46.73-.9,1.11-1.34.75-.89,1.54-1.75,2.32-2.61,1.57-1.73,3.16-3.45,4.78-5.13s3.22-3.39,4.94-5C295,79.29,294.11,80.07,293.24,80.85Z" style="fill:#263238"></path><path d="M317.3,99V93.39c-.05-5-.11-9.91-.28-14.87-.21,5-.31,9.92-.4,14.89l0,3.72,0,1.86v.46a1,1,0,0,1,0,.35,2,2,0,0,1-.38.66,8.62,8.62,0,0,1-2.95,1.9,25.08,25.08,0,0,1-3.44,1.21l-.41.11.15.38a42.77,42.77,0,0,1,1.56,4.59c.1.39.19.78.25,1.17a2.83,2.83,0,0,1,.05,1.07l0,.1-.07.14-.95,1.92c-.72,1.46-1.46,2.91-2.16,4.39L306,121.85l2.4-4.27c.8-1.42,1.57-2.86,2.35-4.3l.58-1.07.29-.54.22-.41.06-.19a3.43,3.43,0,0,0,0-1.35,9.9,9.9,0,0,0-.24-1.23,42.62,42.62,0,0,0-1.39-4.32,26.67,26.67,0,0,0,3.19-1.09,8.55,8.55,0,0,0,3.22-2.13,2.58,2.58,0,0,0,.52-1,2.22,2.22,0,0,0,.07-.57Z" style="fill:#263238"></path></g><path d="M343.11,118c.87,6.54,1.05,7.65.63,12-.31,3.26-.65,3.81-1.88,9.75s-4.33,16.78-4.28,18.36a26.36,26.36,0,0,1,0,4.53,19.11,19.11,0,0,1-1.25,5.23c-.45,1.15-.74,2.42-1.27,3.54a13.91,13.91,0,0,1-1.62,2.13c-.6.78-.81,1.78-1.55,2.48-1.28,1.22-2.63,1.4-3.85,2-.53.77-1.41,2.41-2,3.14-1.51,1.85-1.85-1.18-1.8-2.21a15.9,15.9,0,0,1,.62-3.26,75.15,75.15,0,0,0,1.86-8.12c.08-.49.67-2.5-.13-2.49a1,1,0,0,0-.66.39c-.55.62-.91,1.39-1.4,2.06a12.82,12.82,0,0,1-1.29,1.46,4.38,4.38,0,0,1-1.3,1c-.52.22-2.42.37-2.5-.52a.92.92,0,0,1,.1-.42c.39-.91.86-1.8,1.26-2.71a26.63,26.63,0,0,0,1.1-2.8,22.89,22.89,0,0,1,3.4-7.92c3.22-4.44,3.89-30.65,3.89-30.65l-4.32-18.06a39.76,39.76,0,0,1-2.49-15.2c.28-8.58,3.49-10.87,3.49-10.87,6.65,2.67,10.27,4.76,12,10.88S342.52,113.6,343.11,118Z" style="fill:#b16668"></path><path d="M328,141.67l-.5,5.14s2.25-.62,6.92.69c3.69,1.05,5,2.87,5,2.87l1.21-5S336.72,141.19,328,141.67Z" style="fill:#CF9455"></path><path d="M328,141.67l-.5,5.14s2.25-.62,6.92.69c3.69,1.05,5,2.87,5,2.87l1.21-5S336.72,141.19,328,141.67Z" style="fill:#fff;opacity:0.7000000000000001"></path><path d="M344,122.67c-.19-1.55-1.16-9.68-3.57-21.57-2.28-11.3-2.83-12.56-4.79-15.16-1.65-2.18-3.36-3.8-9.18-5.72,0,0-4.74,2.83-4.85,10.28-.11,7.1,2.94,17,2.94,17l4.11,18.31-1,18.23c3.17-1.11,10.91.66,12.56,3.8,0,0,2-7.48,3.23-13.27A35.48,35.48,0,0,0,344,122.67Z" style="fill:#263238"></path></g></g></g><g id="freepik--character--inject-238"><g id="freepik--Arm--inject-238"><path id="freepik--arm--inject-238" d="M141.25,189.24l6.07-22.51c2.8-11.56-.84-26.17-.84-26.17-5.19.61-9.79,3-12.31,9.55s-6.19,29-7.07,33.89a44,44,0,0,0-.5,12.8c.45,5.45,3.19,15.23,4.28,20.57.5,2.47.81,4.86,1.14,7.38a57.07,57.07,0,0,0,2.08,7.63,7,7,0,0,0,2,3.14c.58.55,1.4.65,2,1.17s.65,1.37,1.44,1.81,1.9.25,2.66.75a23.65,23.65,0,0,0,2.34,1.69,4.89,4.89,0,0,1,2,1.27c.48.58.92,1.86,1.84,1.81s1.25-1,1.34-1.9a7.86,7.86,0,0,0-1.42-4.72,43.55,43.55,0,0,0-2.77-4.41,10.88,10.88,0,0,1-2-4.46c-.27-1.07-.11-2.43,1.23-1.75,1.59.81,3.23,2.44,5.18,2.19,1.36-.16,1.48-1.22.74-2.14a38.93,38.93,0,0,1-3.31-4.8c-1-1.71-1.82-3.52-2.87-5.2a23.66,23.66,0,0,0-1.88-2.5c-1.85-2.24-1.64-5.16-1.74-7.88C140.68,202.64,141.08,194.11,141.25,189.24Z" style="fill:#ffa8a7"></path><path d="M128.05,206.59l1.2,5.49s2.09,1.3,6.43.7,5.69-2,5.69-2l-.25-5.78Z" style="fill:#f0f0f0"></path><path d="M144.89,137.59c-7.54.92-10.19,5.6-12.48,13.26-2.36,7.86-4.9,25.72-5.54,29.44A51.27,51.27,0,0,0,125.76,194a126,126,0,0,0,2.45,14.45s2,1.12,6.23.91c5.88-.3,7-2.12,7-2.12l.38-17.9,8.39-28.06Z" style="fill:#455a64"></path></g><g id="freepik--bottom--inject-238"><path d="M233.62,329.72c.55-.25,1,1.2.87,2-.39,2.35-2.54,5.46-6.36,7.81s-12.23,3.95-14.7,4.68-6.28,3.46-8.58,4.7c-4.2,2.25-7.63,2-9.54,1a3,3,0,0,1-1.28-2c-.5-1.78-.46-2.19-.27-2.24Z" style="fill:#263238"></path><path d="M192.65,340.37a24.21,24.21,0,0,0,1.58,6.51,4.65,4.65,0,0,0,3.72,1.41c3.19,0,6-1.17,8.94-3a24.06,24.06,0,0,1,6.05-2.89c2.57-.71,8.31-2,10.85-2.83a17.77,17.77,0,0,0,6.44-3.72c1.42-1.38,3.4-4.05,3.54-5.6-.43-3.36-1.32-5.15-3.39-5.64s-4.9.16-8.62,1.11c-1.12.28-2.52.68-3.12.81-2.28.49-4.39,1-6.1,1.48a9.56,9.56,0,0,1-4.4.45,2.89,2.89,0,0,1-1.78-.92c-.6-.7-1-1.89-1.66-1.73,0,0-11.77,6.46-12.75,6.91S192.13,334.76,192.65,340.37Z" style="fill:#37474f"></path><path d="M219.57,326.11a3.57,3.57,0,0,1,1.27.84,6.73,6.73,0,0,1,1,1.32c.37.61-.37,1-.92.35a8.62,8.62,0,0,0-1.45-1.52,2,2,0,0,0-1.33-.44l-.65.15C217.55,326.25,219,325.94,219.57,326.11Z" style="fill:#fafafa"></path><path d="M213.73,327.33a1.53,1.53,0,0,1,1.29,0,3.12,3.12,0,0,1,1.31,1.08,13.92,13.92,0,0,1,1.11,1.81c.18.41-.79.72-1,.29a17.12,17.12,0,0,0-1-1.63c-.2-.26-1.05-1.22-1.75-1.11l-.3.08c-.05-.14.11-.31.23-.39Z" style="fill:#fafafa"></path><path d="M210.41,328.35a1.24,1.24,0,0,1,.86.2,3.81,3.81,0,0,1,.84.86,7.42,7.42,0,0,1,.94,2c.18.54-.82.72-1,.36a5.73,5.73,0,0,0-1.48-2.56,2.52,2.52,0,0,0-1.11-.63c0-.11.13-.17.23-.19S210.25,328.35,210.41,328.35Z" style="fill:#fafafa"></path><path d="M187.29,319s3.7,11.79,4.83,14.48c.36.86,2.06.67,3,.77a10.13,10.13,0,0,1,3.36.75c2.77,1.48,4.5,1.45,4.59-2.8a1.39,1.39,0,0,1,1.4-1.52,5.89,5.89,0,0,0,2.26-.41c.09-.12,0-.27-.14-.36a4,4,0,0,1-1.69-2.77c-1.15-5-1.75-9.39-3-15.59Z" style="fill:#ffa8a7"></path><path d="M178.39,202.38s5.65,7.11,9.06,20.41a320.43,320.43,0,0,1,7,37.57c.82,5.66,1.42,9.7,2.88,20C198.59,289,204,320.9,204,320.9s-3.94,3.58-7.25,4.9c-3.08,1.22-5.94,1.71-7.07,1.22,0,0-3.8-10.25-8.5-23.67a133.68,133.68,0,0,1-5.41-19c-.61-3.32-.46-9.22-.4-12.2l-25.26-41a28.58,28.58,0,0,1-4.71-8.55c-3.32-8.76.92-21.38.92-21.38Z" style="fill:#263238"></path><path d="M153.54,213.89h31a72.29,72.29,0,0,1,2.9,8.9,304.22,304.22,0,0,1,6.62,34.59c-.76,5.34-1.61,10.81-2.4,14.58-2.09,9.94-3.39,17-5,21.07A66.58,66.58,0,0,1,181,303a131.75,131.75,0,0,1-5.28-18.56c-.61-3.32-.46-9.22-.4-12.2L157,242.42l-1.43-9.22C150.87,225.17,151.39,219.15,153.54,213.89Z"></path><path d="M139,335.64c1.77-3,3.37-7.62,7.28-19.29l14.56,12-9,15.05a15.53,15.53,0,0,0-.66,2.39C149.25,348.69,139,335.64,139,335.64Z" style="fill:#ffa8a7"></path><path d="M133.64,342c0-.17-.06-1.58,0-1.75.38-1.51,1.27-1.93,2.41-2.78a18.46,18.46,0,0,0,3.16-2.83c.38-.56.45-.85,1.05-1.1a5.37,5.37,0,0,1,4.65.64c3.28,1.81,4.28,4,4.1,6.36-.15,1.81-.29,4.21,1.22,5.28.63.45,1.63-2.44,1.63-2.44.93,1.65-.38,3.93-1.06,7.26a14.45,14.45,0,0,0-.1,5.6c.34,2.92.72,2.91,2.2,3.12,1.27.17,4.88-.08,7.08,1.53a5,5,0,0,1,2.22,5.18c-.4,1.12-3.69,6.57-15.71,4.54-3.49-.59-10.82-6.36-10.71-6.89a7.09,7.09,0,0,0,0-1.66c0-1.29-.09-2.58-.14-3.88a20.67,20.67,0,0,0-.21-3.69,22,22,0,0,1-.45-3.05l-.69-7.78C134.18,342.91,133.55,342.74,133.64,342Z" style="fill:#37474f"></path><path d="M132.13,341.49c-1.19,1.2-.46,4.7,1.13,8.9.7,1.87,2,5.07,1.63,8.48s-.45,5,.38,6.62c1.31,2.5,8.3,5.7,12.42,6.7a24.64,24.64,0,0,1-4.19-12.5c-.41-7.53-1-12.38-4.23-15.72C135.13,339.75,132.13,341.49,132.13,341.49Z"></path><path d="M162.18,366.07s-2.42,4.74-11.72,4.59c-3.66-.06-5.62-1.94-5.71-7.79-.11-7.05-.65-14.17-2.82-17.67s-5.63-5.2-8.31-4.95a2.64,2.64,0,0,0-1.49,1.24s2.68-.93,6.86,2.71c3.08,2.69,3.91,8.3,3.87,15.28,0,3-.2,6.4.64,8.68a6.72,6.72,0,0,0,4.44,4.11c5.06,1.49,12-1,13.73-3.21A3.63,3.63,0,0,0,162.18,366.07Z" style="fill:#263238"></path><path d="M151,358.08a2,2,0,0,1,.75,1.16,3.39,3.39,0,0,1-1.46,3.06c-.56.37-1,.24-.16-1A6.36,6.36,0,0,0,151,358.08Z" style="fill:#fafafa"></path><path d="M150.5,354.43s.29.2.37,1.18c0,.52-.74,2.64-1.72,3.14s-.45-.68,0-1.26A8,8,0,0,0,150.5,354.43Z" style="fill:#fafafa"></path><path d="M150.83,350.39s.32.1,0,1.45a4.22,4.22,0,0,1-2,1.87c-.63.08-.94-.26-.16-.85C149.23,352.4,150.71,351.05,150.83,350.39Z" style="fill:#fafafa"></path><path d="M158.8,202.38c-1.48,1.59-5.15,6.91-5.74,15.1a23.42,23.42,0,0,0,4.53,14.92c1.18,18.15,1.16,52.44,1.16,52.44a61.25,61.25,0,0,0-9,19.29C148.12,309.5,142.1,328,142.1,328c9.86-1.39,13.29,10.09,13.29,10.09s10.29-16.28,18.63-29c6.12-9.34,10.23-16.3,12.07-21.81,1.69-5.06,2.91-11.19,4.56-23s3.26-27.38,4.07-39,.34-28.43.34-28.43Z" style="fill:#263238"></path><path d="M144.15,216.62a7,7,0,0,0,3.32-2.48,10.1,10.1,0,0,0,.85-2.57,28.13,28.13,0,0,1,1.4-4.36l.85.4a27.28,27.28,0,0,0-1.34,4.21,10.76,10.76,0,0,1-1,2.84,7.65,7.65,0,0,1-4,2.94C144.2,217.27,144.17,216.94,144.15,216.62Z"></path><path d="M166.34,227a2.43,2.43,0,0,1-.59-.06c-1.36-.32-2.41-1.27-4.52-4.1-1.59-2.15-1.43-3.69-1.16-6.25.1-.94,1-6,1.1-7.28l.9.52c-.07,1.36-1,5.92-1.07,6.87-.27,2.54-.39,3.7,1,5.54,1.94,2.61,2.87,3.48,4,3.74s5.81-.57,7.08-1.49c.72-.54,1.95-7.1,2.66-12.87l.93.12c-.36,2.92-1.65,12.53-3.06,13.56C172.3,226.23,168.23,227.07,166.34,227Z"></path></g><g id="freepik--top--inject-238"><polygon points="172.49 131.53 170.78 144.03 153.8 143.17 155.63 129.63 172.49 131.53" style="fill:#ffa8a7"></polygon><path d="M179.25,108.15c1.3,1.66,5.29,6.17,6,7.35l-3.81,2.31Z" style="fill:#f28f8f"></path><path d="M169.81,95.58c5.24-.56,8.65,3.16,10.17,14.32.06.44.71,1.13,1.2,2.8,2.1,7.17.93,14-.29,15.81-3,2.44-6.42,3.35-11.31,2.94-3.73-.32-13.25-1.46-18.08-6.49C145.83,119,143,110.1,147,105.46,152.67,98.94,166.91,95.89,169.81,95.58Z" style="fill:#ffa8a7"></path><path d="M180.89,128.51c-.67,1-5.47,3.46-8.49,3.66l.28-2.35A31.62,31.62,0,0,0,180.89,128.51Z" style="fill:#f28f8f"></path><path d="M170.84,115.15a1,1,0,0,1-1.75.29,13.08,13.08,0,0,0-1.92-2.22,4.74,4.74,0,0,0-3.24-1.09c-4.4.33-3.33,6.13-1.17,8.15,3.54,3.31,5.42.45,5.42.45s2.54,5.62-1.16,8.9c0,0-6.39,2.76-11.41,1.2a45.54,45.54,0,0,1-9.33-9.77c-6-8.25-5.46-16.72-1.62-19-.22-2.93,1.37-7.33,7.38-9.87,5.72-2.42,9.56-2.18,13.7-2s9.23,2.12,13.08-1.09a7.88,7.88,0,0,1-.64,7.17,2.6,2.6,0,0,1,2.25,4.69,2,2,0,0,1,.93,2.42,2.48,2.48,0,0,1-2.15,1.6,10.77,10.77,0,0,1-2.6-.17c-1.21,3.38-5,4.57-7.3,4.42.07,0,.36.47.4.53s.25.38.36.58a7.36,7.36,0,0,1,.54,1.26,7,7,0,0,1,.32,2.72A2.31,2.31,0,0,1,170.84,115.15Z" style="fill:#263238"></path><path d="M144.89,137.59c-4.41,2.46-7.14,9.35-6.18,19.32,1.13,11.89,3,14.46,4.34,24.38a100.58,100.58,0,0,1,1.1,15.53c0,4.73-.64,14.29-.64,14.29s5.9,7.31,22.11,8.26c20.68,1.22,29.85-3.78,29.85-3.78s.12-21.38-.37-34.73c-.74-19.8-.79-25.59-3.88-32.33-1-2-2.09-6.42-5.46-7.3-2.67-.69-11.75-2.76-14.19-3.13-4,1-14.37,1.11-16.94-1.08l0-.57C150.68,136.66,144.89,137.59,144.89,137.59Z" style="fill:#37474f"></path><path d="M151.29,136.73c2.64-2.36,3-2.68,3.79-3l-.16,1.19s.53,1.42,5.54,1.92c8.71.87,11.45-1.11,11.45-1.11L172,135a3.21,3.21,0,0,1,2.3.79c1.42,1,4.6,3.87,4.6,3.87l-2.27-.5s-5.08,4.43-17.5,2.67C150.49,140.56,151.29,136.73,151.29,136.73Z" style="fill:#263238"></path><path d="M252.63,149a6,6,0,0,1-1.26.44,21.28,21.28,0,0,1-10.91.36,1.73,1.73,0,0,1-1.27-.86,1.85,1.85,0,0,1,0-1l.42-2.48a11.53,11.53,0,0,0,.23-3.1,2.83,2.83,0,0,0-.74-1.77c-.47-.45-.81-.58-1.38-.26a3.16,3.16,0,0,0-.71,1.49c-.69,2.26-1.77,3.22-3,5.86s-2.11,4.32-6.47,8c-1.54,1.3-16.4,11.23-16.4,11.23s-1.78-2.06-10.68-13.63c-6.07-7.9-7.9-9.76-13.73-11,0,0-6.91,8.12-1.89,21.08,1.83,3.48,12.34,14.2,16.3,17.63,6.53,5.65,10.13,7.69,14.82,3.43,5.07-4.6,9-9.41,13.28-14.12,3.69-4,5.29-5.47,8.25-6.54a31.66,31.66,0,0,0,8.91-5.5,7.71,7.71,0,0,0,1.47-1.55c.37-.57.61-1.22,1-1.78a30,30,0,0,1,2.35-2.44,5.68,5.68,0,0,0,1.46-2.91C252.64,149.39,252.71,149.13,252.63,149Z" style="fill:#ffa8a7"></path><path d="M223.93,158.09l3.93-2.92a9.05,9.05,0,0,1,5.09,3.69,15.39,15.39,0,0,1,2.31,6.07l-3,2.65Z" style="fill:#f0f0f0"></path><path d="M186,141.31c5.93,1.27,8,1.93,11,5.56s14.1,19.29,14.1,19.29l14-9.31a12.43,12.43,0,0,1,5.28,3.79A12.27,12.27,0,0,1,233,167.4s-9,10-14.27,15.18S211,188.76,205.32,185s-18.15-16.33-18.15-16.33S176.39,153.66,186,141.31Z" style="fill:#455a64"></path><path d="M237.44,163.73a3.5,3.5,0,0,0,1.82-1.27c.57-1.08,1.36-1.74,1.61-2.94a7.61,7.61,0,0,1,.33-1.33,5,5,0,0,1,1.34-1.72c.51-.48.91-1,1.46-1.51.26-.23.74-.45,1.05-.14a4.18,4.18,0,0,1,.58-1.29c.29-.4,1.09-1.1,1.59-.64a1.31,1.31,0,0,1,.3.46c.48,1,.95,2,1.43,3a3,3,0,0,1,.29.78,2.47,2.47,0,0,1-.67,1.81,3.8,3.8,0,0,1-.85.8c-.39.27-.85.42-1.25.69-.81.55-1.27,1.56-2.16,2-.55.27-1.2.28-1.77.5s-.88.5-1.33.72A13.19,13.19,0,0,1,237.44,163.73Z" style="fill:#b16668"></path><path d="M237.44,163.73a3.5,3.5,0,0,0,1.82-1.27c.57-1.08,1.36-1.74,1.61-2.94a7.61,7.61,0,0,1,.33-1.33,5,5,0,0,1,1.34-1.72c.51-.48.91-1,1.46-1.51.26-.23.74-.45,1.05-.14a4.18,4.18,0,0,1,.58-1.29c.29-.4,1.09-1.1,1.59-.64a1.31,1.31,0,0,1,.3.46c.48,1,.95,2,1.43,3a3,3,0,0,1,.29.78,2.47,2.47,0,0,1-.67,1.81,3.8,3.8,0,0,1-.85.8c-.39.27-.85.42-1.25.69-.81.55-1.27,1.56-2.16,2-.55.27-1.2.28-1.77.5s-.88.5-1.33.72A13.19,13.19,0,0,1,237.44,163.73Z" style="fill:#b16668"></path></g></g><g id="freepik--Thumb--inject-238"><path d="M252.42,142.51c-2,1.37-3.95,1.27-6.68,1.31a16.46,16.46,0,0,0-2.62.16,4.42,4.42,0,0,0-.93.25,6.23,6.23,0,0,0-1,.72c-1.44,1-3.31,1.57-4.31,3.1-.58.88-.77,2-1.35,2.86a11,11,0,0,0-.74,1.09,1.22,1.22,0,0,0,.06,1.25,1.3,1.3,0,0,0,.51.35,3.2,3.2,0,0,0,2.2.07c1.46-.5,2.32-2,3.55-2.91a8.45,8.45,0,0,1,3.18-1.38,12.39,12.39,0,0,1,1.58-.35,6.81,6.81,0,0,1,1.27.11C249,149.3,252.42,142.51,252.42,142.51Z" style="fill:#b16668"></path></g></g><g id="freepik--light-bulb--inject-238"><g id="freepik--light-bulb--inject-238"><g id="freepik--Bulb--inject-238"><g id="freepik--Socket--inject-238"><path d="M226.6,107.19c-1.36-.76-1.37-2,0-2.82a5.4,5.4,0,0,1,4.89-.06c1.36.76,1.38,2,0,2.82A5.43,5.43,0,0,1,226.6,107.19Z" style="fill:#263238"></path><path d="M232.3,106.36h-.56a1.72,1.72,0,0,0-.73-.71,4.38,4.38,0,0,0-4,.06,1.74,1.74,0,0,0-.71.72h-.56l.66,1h0a1.78,1.78,0,0,0,.64.56,4.38,4.38,0,0,0,4-.05,2,2,0,0,0,.63-.57h0Z" style="fill:#263238"></path><path d="M225.42,106.3c-2-1.13-2-3,0-4.17a8,8,0,0,1,7.22-.08c2,1.13,2,3,0,4.17A8,8,0,0,1,225.42,106.3Z" style="fill:#455a64"></path><path d="M225.28,105.62c-2.08-1.17-2.1-3.11-.05-4.32a8.26,8.26,0,0,1,7.5-.08c2.08,1.17,2.1,3.11,0,4.32A8.24,8.24,0,0,1,225.28,105.62Z" style="fill:#37474f"></path><path d="M225.18,104.87c-2.14-1.2-2.16-3.19-.05-4.44a8.52,8.52,0,0,1,7.68-.08c2.14,1.21,2.16,3.19.05,4.44A8.48,8.48,0,0,1,225.18,104.87Z" style="fill:#455a64"></path><path d="M225.07,104.12c-2.18-1.23-2.21-3.27,0-4.55a8.72,8.72,0,0,1,7.88-.08c2.18,1.23,2.21,3.27,0,4.55A8.75,8.75,0,0,1,225.07,104.12Z" style="fill:#37474f"></path><path d="M225,103.37c-2.24-1.27-2.26-3.35-.05-4.66a8.88,8.88,0,0,1,8.06-.08c2.24,1.26,2.26,3.34.05,4.65A8.91,8.91,0,0,1,225,103.37Z" style="fill:#455a64"></path><path d="M224.87,102.61c-2.3-1.29-2.32-3.42-.05-4.76a9.12,9.12,0,0,1,8.25-.09c2.29,1.29,2.31,3.43.05,4.77A9.12,9.12,0,0,1,224.87,102.61Z" style="fill:#37474f"></path></g><path d="M235,97.11a3,3,0,0,0-1.81-2.47,9.53,9.53,0,0,0-8.64.09,3,3,0,0,0-1.76,2.51c0,.35,0,1.72,0,2.07a3,3,0,0,0,1.82,2.48,9.54,9.54,0,0,0,8.63-.09,3,3,0,0,0,1.76-2.52C235.06,98.83,235.05,97.46,235,97.11Z" style="fill:#CF9455"></path><path d="M228.5,55.49A18.35,18.35,0,0,0,210.33,74c.15,14.58,12.2,16.88,12.27,22.75a3.13,3.13,0,0,0,1.88,2.57,9.92,9.92,0,0,0,9-.09,3.15,3.15,0,0,0,1.83-2.61h0c-.06-5.88,11.94-8.42,11.79-23A18.37,18.37,0,0,0,228.5,55.49Z" style="fill:#CF9455"></path><path d="M228.5,55.49A18.35,18.35,0,0,0,210.33,74c.15,14.58,12.2,16.88,12.27,22.75a3.13,3.13,0,0,0,1.88,2.57,9.92,9.92,0,0,0,9-.09,3.15,3.15,0,0,0,1.83-2.61h0c-.06-5.88,11.94-8.42,11.79-23A18.37,18.37,0,0,0,228.5,55.49Z" style="fill:#fff;mix-blend-mode:screen;opacity:0.7000000000000001"></path><path d="M225.21,99c-2.08-1.17-2.1-3.11-.05-4.33a8.29,8.29,0,0,1,7.5-.07c2.08,1.17,2.1,3.11,0,4.32A8.27,8.27,0,0,1,225.21,99Z" style="fill:#CF9455"></path><path d="M225.21,99c-2.08-1.17-2.1-3.11-.05-4.33a8.29,8.29,0,0,1,7.5-.07c2.08,1.17,2.1,3.11,0,4.32A8.27,8.27,0,0,1,225.21,99Z" style="fill:#fff;opacity:0.55"></path><path d="M233.59,98.19a3.81,3.81,0,0,1-.89.69,8.27,8.27,0,0,1-7.49.08,3.64,3.64,0,0,1-.9-.67,3.77,3.77,0,0,1,.88-.7,8.29,8.29,0,0,1,7.5-.08A4.08,4.08,0,0,1,233.59,98.19Z" style="fill:#CF9455;opacity:0.25"></path><path d="M233.59,98.19a3.81,3.81,0,0,1-.89.69,8.27,8.27,0,0,1-7.49.08,3.64,3.64,0,0,1-.9-.67,3.77,3.77,0,0,1,.88-.7,8.29,8.29,0,0,1,7.5-.08A4.08,4.08,0,0,1,233.59,98.19Z" style="fill:#CF9455"></path><path d="M233.59,98.19a3.81,3.81,0,0,1-.89.69,8.27,8.27,0,0,1-7.49.08,3.64,3.64,0,0,1-.9-.67,3.77,3.77,0,0,1,.88-.7,8.29,8.29,0,0,1,7.5-.08A4.08,4.08,0,0,1,233.59,98.19Z" style="fill:#fff;opacity:0.35000000000000003"></path><path d="M243,65c-1.16-1.73-3-3.13-5.12-2.19a3.33,3.33,0,0,0-.64.39,2.73,2.73,0,0,0-.87,2.51c.28,1.78,2,2.87,3,4.24a15.74,15.74,0,0,1,2.45,5,9.63,9.63,0,0,0,.63,1.9,1.43,1.43,0,0,0,1.83.59,2.65,2.65,0,0,0,1.16-2A14.05,14.05,0,0,0,243,65Zm.49,13.63a1.5,1.5,0,0,0-1.47,1.06,2,2,0,0,0,.2,1.64,1.19,1.19,0,0,0,1.62.35,1.91,1.91,0,0,0,.86-1.6A1.43,1.43,0,0,0,243.53,78.62Z" style="fill:#fff;opacity:0.35000000000000003"></path><path d="M231.1,98.57h-.22c-.07-6.54.27-10.64,1.13-13.71a13.07,13.07,0,0,1,.87-2.3,11.27,11.27,0,0,1-4.12-2.38,11.33,11.33,0,0,1-4.08,2.47,12.4,12.4,0,0,1,.92,2.28c.92,3,1.35,7.14,1.42,13.68h-.22c-.06-6.51-.49-10.59-1.4-13.62a12.38,12.38,0,0,0-.93-2.28,4.84,4.84,0,0,1-.61.14c-2.13.38-3.38-.22-3.84-.91a1.39,1.39,0,0,1,0-1.58,1.41,1.41,0,0,1,1.45-.59c.93.13,2.1.92,3.09,2.69a11,11,0,0,0,4-2.42,4.68,4.68,0,0,1-.61-.72,3.55,3.55,0,0,1-.59-3.55,1.47,1.47,0,0,1,2.62,0,3.55,3.55,0,0,1-.51,3.56,5.92,5.92,0,0,1-.6.74A11.1,11.1,0,0,0,233,82.37c1-1.78,2.1-2.6,3-2.75a1.4,1.4,0,0,1,1.46.56,1.37,1.37,0,0,1,.06,1.57c-.45.7-1.68,1.33-3.82,1-.2,0-.41-.08-.61-.13a12,12,0,0,0-.88,2.3C231.36,88,231,92.05,231.1,98.57Zm2.1-16.14.54.11c2,.32,3.2-.26,3.61-.9a1.16,1.16,0,0,0,0-1.34,1.2,1.2,0,0,0-1.26-.47C235.22,80,234.11,80.74,233.2,82.43Zm-12-2.47a1.17,1.17,0,0,0-1,.51,1.19,1.19,0,0,0,0,1.35c.43.63,1.6,1.18,3.63.82a5.23,5.23,0,0,0,.54-.12c-1-1.67-2.07-2.42-2.9-2.54Zm7.49-4.8a1.24,1.24,0,0,0-1.11.71,3.44,3.44,0,0,0,.57,3.33,5,5,0,0,0,.59.69,4.87,4.87,0,0,0,.58-.7,3.47,3.47,0,0,0,.51-3.35A1.27,1.27,0,0,0,228.7,75.16Z" style="fill:#455a64"></path></g><path d="M229,52.24a.69.69,0,0,1-.69-.69V44.68a.69.69,0,0,1,1.38,0v6.87A.69.69,0,0,1,229,52.24Z" style="fill:#CF9455"></path><path d="M240.29,55.29a.73.73,0,0,1-.35-.09.7.7,0,0,1-.25-1l3.43-6a.69.69,0,0,1,1.2.69l-3.43,5.95A.68.68,0,0,1,240.29,55.29Z" style="fill:#CF9455"></path><path d="M248.53,63.57a.69.69,0,0,1-.6-.34.7.7,0,0,1,.25-.95l5.95-3.44a.69.69,0,1,1,.69,1.2l-5.94,3.44A.73.73,0,0,1,248.53,63.57Z" style="fill:#CF9455"></path><path d="M258.4,74.86h-6.87a.69.69,0,0,1,0-1.38h6.87a.69.69,0,0,1,0,1.38Z" style="fill:#CF9455"></path><path d="M254.43,89.58a.73.73,0,0,1-.35-.09l-6-3.43a.7.7,0,0,1-.25-1,.69.69,0,0,1,.94-.25l6,3.43a.68.68,0,0,1,.26.94A.7.7,0,0,1,254.43,89.58Z" style="fill:#CF9455"></path><path d="M203.43,89.5a.7.7,0,0,1-.6-.35.69.69,0,0,1,.25-.94L209,84.77a.69.69,0,1,1,.69,1.19l-5.94,3.44A.64.64,0,0,1,203.43,89.5Z" style="fill:#CF9455"></path><path d="M206.38,74.76h-6.87a.7.7,0,0,1,0-1.39h6.87a.69.69,0,1,1,0,1.38Z" style="fill:#CF9455"></path><path d="M209.43,63.48a.73.73,0,0,1-.35-.09l-6-3.43a.7.7,0,0,1-.25-1,.69.69,0,0,1,.94-.25l6,3.43a.69.69,0,0,1-.34,1.29Z" style="fill:#CF9455"></path><path d="M217.71,55.24a.7.7,0,0,1-.6-.35L213.67,49a.69.69,0,0,1,1.2-.7l3.44,6a.69.69,0,0,1-.25.94A.64.64,0,0,1,217.71,55.24Z" style="fill:#CF9455"></path></g></g><g id="freepik--speech-bubbles--inject-238"><g id="freepik--speech-bubble--inject-238"><g id="freepik--speech-bubble--inject-238"><path d="M102.57,77.79a28.56,28.56,0,0,1,13.08,16.5l.78,3.19a28.66,28.66,0,0,1-55.18,14.8l-.93-3.14a28.66,28.66,0,0,1,42.25-31.35Z" style="fill:#fff"></path><path d="M61.26,87.13a31.11,31.11,0,0,0,51,35.27l9.56,1.46a1.8,1.8,0,0,0,1.67-2.92l-6.07-7.52A31.11,31.11,0,0,0,61.26,87.13Zm41.27-9.37a28.58,28.58,0,0,1,13.11,16.48l.78,3.19a28.66,28.66,0,0,1-55.15,14.9l-.94-3.15a28.67,28.67,0,0,1,42.2-31.42Z" style="fill:#455a64"></path></g><g id="freepik--Check--inject-238"><path d="M83.88,119.1a4.53,4.53,0,0,1-3.29-1.42L70.4,106.79A4.5,4.5,0,0,1,77,100.64l6.62,7.07L99.25,87.87a4.5,4.5,0,0,1,7.06,5.57l-18.9,24a4.51,4.51,0,0,1-3.34,1.71Z" style="fill:#CF9455"></path></g></g><g id="freepik--speech-bubble--inject-238"><g id="freepik--speech-bubble--inject-238"><path d="M392.62,55.86a28.61,28.61,0,0,0-21.06.21l-3,1.4a28.65,28.65,0,0,0,23.18,52.21l3-1.25a28.66,28.66,0,0,0-2.19-52.57Z" style="fill:#fff"></path><path d="M393.55,53.61a31.16,31.16,0,0,0-38,13.12h-9.66a1.81,1.81,0,0,0-1.22,3.15l7.14,6.5a31.11,31.11,0,1,0,41.71-22.77ZM409.07,93a28.55,28.55,0,0,1-14.3,15.46l-3,1.26a28.66,28.66,0,0,1-23.09-52.26l3-1.4A28.67,28.67,0,0,1,409.07,93Z" style="fill:#455a64"></path></g><g id="freepik--check--inject-238"><path d="M378,99.11a4.52,4.52,0,0,1-3.28-1.41L364.5,86.83a4.5,4.5,0,0,1,6.55-6.16l6.64,7,15.62-19.87a4.49,4.49,0,0,1,7.07,5.55l-18.85,24a4.52,4.52,0,0,1-3.34,1.72Z" style="fill:#CF9455"></path></g></g></g></svg>
