<svg xmlns="http://www.w3.org/2000/svg" viewBox="0 0 750 500"><g id="freepik--background-complete--inject-160"><path d="M291.33,444.91a55.09,55.09,0,0,0-26.84-27.57c-11.88-5.56-38.37-3-38.37-3l-69.62-.15c1.43,6.12,6,21.82,9.35,27.1s8.4,9.74,14.44,11.45c7.39,2.09,15.22-.07,22.89-.57,13.49-.87,26.69,3.49,39.68,7.24s26.78,6.93,39.92,3.75c3.73-.91,7.64-2.57,9.45-5.95C294.24,453.48,293,448.83,291.33,444.91Z" style="fill:#e0e0e0"></path><path d="M77.56,198.11s-7.92-.57-7.19,17.19,2.54,27.23,2.54,27.23-.23,3.93-3.28,3.16S60.84,241.09,58,244s-1.89,7.53,2,12.9,12,17.44,12.74,18.54,1,3.09-1.16,2.89-16.76-5.14-18.69,1.93,11.38,20.24,12.81,21.71,1.51,2.39.93,3.28-5.33-1.24-9.54-2.47S47.79,300.79,47,305s5.09,16.38,27.06,29.2l10.57,5.28,10-6.38c20.57-15,25.19-27.69,24-31.76s-6.19-2.87-10.25-1.22-8.58,4.24-9.24,3.42-.68-1.76.59-3.36,13.21-16,10.58-22.88-16.66-.46-18.79-.05-2-1.62-1.44-2.76,7.47-14,10.82-19.72,3.92-10.38.7-13-8.43,1.82-11.39,2.9-3.58-2.83-3.58-2.83.85-9.59-.2-27.34-9.06-16.31-9.06-16.31" style="fill:#ebebeb"></path><path d="M78.19,214s0,.12,0,.37,0,.62.08,1.09c.07,1,.16,2.38.29,4.19.24,3.65.55,8.92.91,15.44.73,13,1.57,31.05,2.44,50.95s1.67,37.93,2.32,51c.33,6.51.6,11.78.79,15.44.09,1.81.16,3.22.21,4.2,0,.47,0,.83,0,1.09a3.64,3.64,0,0,1,0,.38s0-.13,0-.37,0-.63-.08-1.09c-.07-1-.17-2.39-.29-4.2-.24-3.64-.55-8.91-.91-15.43-.73-13-1.57-31.06-2.44-51s-1.67-37.92-2.32-51c-.34-6.5-.6-11.77-.79-15.44-.09-1.81-.16-3.22-.21-4.2,0-.46,0-.83,0-1.09A3.39,3.39,0,0,1,78.19,214Z" style="fill:#e0e0e0"></path><path d="M65.82,249.64a3.22,3.22,0,0,1,.65.54c.41.37,1,.92,1.68,1.61,1.4,1.39,3.27,3.34,5.3,5.55L78.62,263l1.57,1.71a3.11,3.11,0,0,1,.55.65,3.4,3.4,0,0,1-.66-.54c-.4-.37-1-.92-1.67-1.62-1.38-1.4-3.23-3.38-5.26-5.58L68,252c-.63-.66-1.15-1.23-1.59-1.7A3.22,3.22,0,0,1,65.82,249.64Z" style="fill:#e0e0e0"></path><path d="M81.79,265c-.08-.08,3.79-4.12,8.63-9s8.85-8.83,8.93-8.75-3.79,4.12-8.64,9S81.87,265.08,81.79,265Z" style="fill:#e0e0e0"></path><path d="M81.75,295.63a4.07,4.07,0,0,1,.74-.47L84.55,294c1.75-1,4.15-2.34,6.75-3.94s4.91-3.11,6.57-4.23l2-1.31a3.53,3.53,0,0,1,.75-.45,3.56,3.56,0,0,1-.66.58c-.44.34-1.09.83-1.9,1.42-1.63,1.18-3.92,2.74-6.53,4.34s-5,2.93-6.82,3.84c-.89.46-1.62.82-2.13,1.05A3.2,3.2,0,0,1,81.75,295.63Z" style="fill:#e0e0e0"></path><path d="M64.24,284.91a3.64,3.64,0,0,1,.73.34l1.92,1.07c1.61.91,3.81,2.2,6.24,3.64s4.61,2.77,6.18,3.75c.79.49,1.42.89,1.86,1.18a3.53,3.53,0,0,1,.65.47,2.81,2.81,0,0,1-.74-.34L79.17,294c-1.61-.92-3.82-2.2-6.25-3.65s-4.61-2.77-6.18-3.74c-.79-.49-1.42-.89-1.85-1.18A3.25,3.25,0,0,1,64.24,284.91Z" style="fill:#e0e0e0"></path><path d="M60.77,312a4.35,4.35,0,0,1,.93.45l2.46,1.35c2.06,1.16,4.91,2.79,8,4.61s6,3.49,8,4.71l2.4,1.47a5.14,5.14,0,0,1,.85.59,6.15,6.15,0,0,1-.93-.45L80,323.32c-2.07-1.16-4.91-2.79-8-4.61S66,315.22,64,314l-2.39-1.47A5,5,0,0,1,60.77,312Z" style="fill:#e0e0e0"></path><path d="M83,324.66a5.09,5.09,0,0,1,.92-.62l2.57-1.56c2.16-1.32,5.15-3.16,8.4-5.27s6.13-4.1,8.22-5.55l2.47-1.72a5.74,5.74,0,0,1,.93-.59,5.35,5.35,0,0,1-.84.72c-.56.44-1.37,1.06-2.4,1.82-2,1.51-4.91,3.54-8.16,5.66s-6.27,3.92-8.48,5.18c-1.11.62-2,1.12-2.64,1.45A6.39,6.39,0,0,1,83,324.66Z" style="fill:#e0e0e0"></path><polygon points="98.85 342.9 69.61 342.9 79.16 415.14 89.31 415.14 98.85 342.9" style="fill:#e0e0e0"></polygon><path d="M71.13,351.78s0,.1.16.26a1.82,1.82,0,0,0,.7.5,3.54,3.54,0,0,0,3.09-.38c1.18-.65,2.21-1.93,3.79-2.49a8.29,8.29,0,0,1,5.38.1,23.23,23.23,0,0,1,5,2.43,34.89,34.89,0,0,0,4.08,2.18,11.09,11.09,0,0,0,3,.87,5,5,0,0,0,.85.06c.19,0,.29,0,.29,0a15.19,15.19,0,0,1-4-1.2,40,40,0,0,1-4-2.26,22.35,22.35,0,0,0-5.09-2.5,8.59,8.59,0,0,0-5.68-.06,7.4,7.4,0,0,0-2.13,1.32,15.49,15.49,0,0,1-1.68,1.29,3.45,3.45,0,0,1-2.84.5A3,3,0,0,1,71.13,351.78Z" style="fill:#f5f5f5"></path><path d="M72.2,365.08s.23-.29.69-.77a6.45,6.45,0,0,1,2.33-1.48,10.45,10.45,0,0,1,4.07-.61,40.89,40.89,0,0,1,5.08.69,17.84,17.84,0,0,0,5.21.22,14.14,14.14,0,0,0,4.1-1.18,12.7,12.7,0,0,0,2.47-1.46,3.37,3.37,0,0,0,.78-.7,26.7,26.7,0,0,1-3.38,1.86,15.26,15.26,0,0,1-4,1,18.12,18.12,0,0,1-5.08-.25,38.25,38.25,0,0,0-5.15-.66,10.27,10.27,0,0,0-4.21.74,6,6,0,0,0-2.34,1.66,4.11,4.11,0,0,0-.44.65C72.22,365,72.18,365.08,72.2,365.08Z" style="fill:#f5f5f5"></path><path d="M95.54,372.21a2.42,2.42,0,0,0-.81-.42,8.25,8.25,0,0,0-2.42-.52,15.34,15.34,0,0,0-3.66.21c-1.37.22-2.83.6-4.36.92a18.1,18.1,0,0,1-4.36.49,9.47,9.47,0,0,1-3.45-.74,7.86,7.86,0,0,1-2.63-2,2.18,2.18,0,0,0,.5.77,6.09,6.09,0,0,0,2,1.49,9.23,9.23,0,0,0,3.58.88,17.21,17.21,0,0,0,4.47-.46c1.56-.33,3-.72,4.34-1a16.87,16.87,0,0,1,3.57-.3A13.2,13.2,0,0,1,95.54,372.21Z" style="fill:#f5f5f5"></path><path d="M74.78,382.23a4.69,4.69,0,0,1,2.84-.29,14,14,0,0,1,3,1.11,11.37,11.37,0,0,0,3.85,1.06,11.54,11.54,0,0,0,7-1.62,10.31,10.31,0,0,0,1.74-1.34c.36-.38.54-.6.51-.62a23.93,23.93,0,0,1-2.42,1.67,12.08,12.08,0,0,1-6.78,1.44c-2.77-.16-4.9-1.81-6.82-2a4.31,4.31,0,0,0-2.2.19C75,382,74.77,382.21,74.78,382.23Z" style="fill:#f5f5f5"></path><path d="M76.41,396.09a5.52,5.52,0,0,0,2.44-.48c1.47-.49,3.29-1.62,5.41-2.46a8.63,8.63,0,0,1,3.11-.65,5.66,5.66,0,0,1,2.5.57,5.37,5.37,0,0,1,1.8,1.55,1.36,1.36,0,0,0-.28-.61A3.85,3.85,0,0,0,90,392.77a5.71,5.71,0,0,0-2.65-.71,8.76,8.76,0,0,0-3.28.64c-2.2.88-4,2-5.37,2.59S76.4,396,76.41,396.09Z" style="fill:#f5f5f5"></path><path d="M77.84,402.54a6.82,6.82,0,0,0,1.85.61,37,37,0,0,0,4.63.78,34.22,34.22,0,0,0,4.69.13,7.16,7.16,0,0,0,1.94-.23c0-.14-3,0-6.58-.38S77.88,402.4,77.84,402.54Z" style="fill:#f5f5f5"></path><rect x="539.55" y="230.19" width="91.21" height="61.48" transform="translate(-43.43 136.92) rotate(-12.87)" style="fill:#f5f5f5"></rect><path d="M623.22,221.46a6.16,6.16,0,0,1-.65,1l-2,2.73-7.41,10c-6.37,8.44-15.09,20-24.76,32.8l-.2.27-.31-.15-.73-.35-37.47-18.2-11.32-5.59-3-1.56a6.54,6.54,0,0,1-1.05-.6,6.85,6.85,0,0,1,1.12.45l3.12,1.42L550,249l37.57,18,.74.36-.51.12c9.74-12.74,18.53-24.25,25-32.65,3.17-4.1,5.76-7.43,7.62-9.82l2.1-2.64A5.69,5.69,0,0,1,623.22,221.46Z" style="fill:#e0e0e0"></path><path d="M548,301.72c-.2-.11,4.61-9.85,10.74-21.76s11.28-21.49,11.48-21.39-4.61,9.85-10.74,21.77S548.19,301.82,548,301.72Z" style="fill:#e0e0e0"></path><path d="M599.6,251.07c.14-.18,8.61,6.47,18.92,14.84s18.54,15.31,18.39,15.49-8.61-6.47-18.92-14.85S599.45,251.25,599.6,251.07Z" style="fill:#e0e0e0"></path><rect x="230.67" y="54.69" width="36.25" height="53.78" transform="translate(113.32 305.64) rotate(-77)" style="fill:#f5f5f5"></rect><path d="M279.14,70.44a4,4,0,0,1-.6.36l-1.75.94-6.5,3.38-21.57,11-.18.09-.13-.15-.3-.38L232.92,66.42l-4.56-5.89-1.22-1.61a2.94,2.94,0,0,1-.4-.58,3.72,3.72,0,0,1,.47.52l1.3,1.56,4.68,5.78L248.5,85.41l.3.37-.3-.06,21.63-10.9,6.57-3.25,1.8-.86A3.24,3.24,0,0,1,279.14,70.44Z" style="fill:#e0e0e0"></path><path d="M218.58,93.66c-.08-.11,5-4,11.3-8.78s11.51-8.5,11.59-8.39-5,4-11.3,8.78S218.66,93.77,218.58,93.66Z" style="fill:#e0e0e0"></path><path d="M259,80.07c.12-.06,2.91,5.65,6.22,12.74s5.89,12.89,5.77,13-2.9-5.65-6.21-12.74S258.87,80.12,259,80.07Z" style="fill:#e0e0e0"></path><rect x="524.39" y="73.77" width="41.67" height="28.09" transform="translate(9.62 222.4) rotate(-23.25)" style="fill:#f5f5f5"></rect><path d="M559.08,67a3.38,3.38,0,0,1-.21.49l-.66,1.39c-.61,1.24-1.47,3-2.51,5.1l-8.43,16.78-.07.14-.15,0-.36-.09-18.33-5.1L522.81,84l-1.5-.45-.52-.18a2.59,2.59,0,0,1,.54.11l1.52.38,5.58,1.47,18.36,5,.36.1-.21.1c3.32-6.53,6.33-12.43,8.52-16.73,1.09-2.1,2-3.82,2.62-5l.72-1.36A2.46,2.46,0,0,1,559.08,67Z" style="fill:#e0e0e0"></path><path d="M531.88,109.21c-.1,0,1.26-4.81,3-10.67S538.22,88,538.32,88s-1.26,4.8-3,10.66S532,109.24,531.88,109.21Z" style="fill:#e0e0e0"></path><path d="M550.9,82.2c.05-.1,4.41,2.19,9.73,5.11s9.59,5.35,9.54,5.44-4.4-2.19-9.72-5.11S550.85,82.29,550.9,82.2Z" style="fill:#e0e0e0"></path></g><g id="freepik--Plant--inject-160"><path d="M609.52,327.76A31.52,31.52,0,0,0,596,323.09c-2.21-.22-4.63-.16-6.41,1.18a1.35,1.35,0,0,0-.66,1.17,1.5,1.5,0,0,0,.63.8,19.37,19.37,0,0,0,20,1.52" style="fill:#CF9455"></path><path d="M609.17,327.37a66.07,66.07,0,0,1-8.75-7.7,22,22,0,0,1-5.48-10.14,4.09,4.09,0,0,1,.43-3.4c7,5.45,12.45,12.5,13.8,21.24" style="fill:#CF9455"></path><path d="M609.45,327.7a31.41,31.41,0,0,1,.16-11.48,15.51,15.51,0,0,1,6.12-9.48c1.2,2.81.69,6.06-.16,9a43.65,43.65,0,0,1-6.07,12.78" style="fill:#CF9455"></path><path d="M616.29,340c-4.16.51-7.77,2.7-10.87,5.5a20.54,20.54,0,0,0-6.21,10.67c4.07-.25,7.52-3.12,10-6.34s4.24-6.75,7-9.76" style="fill:#CF9455"></path><path d="M617.77,341.91a26.81,26.81,0,0,1,3.09-25.34c2.37,8.41,1.5,17.91-3.09,25.34" style="fill:#CF9455"></path><path d="M626.8,352.67a19.39,19.39,0,0,0-18.52,10.67,1.44,1.44,0,0,0-.13,1.45,1.38,1.38,0,0,0,1.23.36c3.65-.24,6.89-2.43,9.56-4.93s5-5.4,7.95-7.56" style="fill:#CF9455"></path><path d="M626.52,352.09a34.46,34.46,0,0,1-.35-19.28c.68-2.48,1.82-5.09,4.11-6.26a.84.84,0,0,1,.63-.11.86.86,0,0,1,.4.46,11.52,11.52,0,0,1,1,5.53,34.3,34.3,0,0,1-.86,5.6c-.73,3.42-1.11,7.1-3,10.05a20.42,20.42,0,0,0-1.19,2.21c-.36.75-.36,1-.68,1.61" style="fill:#CF9455"></path><path d="M650.43,355.65c-1.77-6.74.11-14.91,4.36-20.44.31-.4.72-.84,1.23-.79.79.07,1,1.11,1,1.9a36.88,36.88,0,0,1-6.54,19.33" style="fill:#CF9455"></path><path d="M652.59,357.12a29.73,29.73,0,0,0,24.39-5,19.79,19.79,0,0,0-13.21-1.62c-4.41,1-8.44,3-11.18,6.58" style="fill:#CF9455"></path><path d="M654.4,352.63c4.59-7.47,13.38-12.35,22.14-12.8-1,3.57-3.94,6.34-7.24,8A40.4,40.4,0,0,1,658.67,351c-1.41.27-3.35.57-4.27,1.68" style="fill:#CF9455"></path><path d="M650.89,330.86a64.24,64.24,0,0,0,2.83-13,21.58,21.58,0,0,0-2.59-12.83c-4.28,8.29-4.71,18-.37,26.24" style="fill:#CF9455"></path><path d="M665.31,323.57c5-9.1,15.23-16.37,25.57-17.39-4,9.93-14.87,17.61-25.57,17.39" style="fill:#CF9455"></path><path d="M662.15,325.36c7.48,1.13,13.84,5.91,20.82,8.8a9.31,9.31,0,0,0,4.71.9,3.68,3.68,0,0,0,2.3-6.52,10,10,0,0,0-3.41-2.07c-7.61-3.17-15.76-3.25-23.77-1.33" style="fill:#CF9455"></path><path d="M657.83,330.6c1.69.48,2.27,1.36,3.61,2.5a38.88,38.88,0,0,0,15.79,8.11c.6.15,1.39.2,1.69-.34s-.07-1.05-.41-1.48a21.84,21.84,0,0,0-9.53-6.47c-3.64-1.35-6.8-3-11.15-2.64" style="fill:#CF9455"></path><path d="M653,299a29.88,29.88,0,0,0,22.91,7.79,1.54,1.54,0,0,0,1-.37c.58-.63-.12-1.6-.79-2.12-6.73-5.25-14.89-7.43-23.16-5.3" style="fill:#CF9455"></path><path d="M658.74,296.83a31.93,31.93,0,0,1,28.58-4.71,22.73,22.73,0,0,1-13.62,6,43.15,43.15,0,0,1-15-1.27" style="fill:#CF9455"></path><path d="M656.44,282.29c-.66-6.72-.23-12-.7-18.78,0-.54-.15-1.19-.66-1.38-.7-.27-1.29.59-1.52,1.31a21.54,21.54,0,0,0,2.87,18.7" style="fill:#CF9455"></path><path d="M656,283a39.4,39.4,0,0,0,11.13-10.82c2.2-3,4-6.61,3.55-10.3a10.65,10.65,0,0,0-8,4,22.33,22.33,0,0,0-4.09,8.23c-.89,3-1.52,6-2.56,8.9" style="fill:#CF9455"></path><path d="M666.89,280a89.74,89.74,0,0,0,27.4-16.16c-3.27-1.32-7-.53-10.29.79a32.46,32.46,0,0,0-17.25,15.29" style="fill:#CF9455"></path><path d="M659,286.71a56.15,56.15,0,0,0,15.21.08c4.94-.83,9.6-2.78,14.21-4.72a1.64,1.64,0,0,0,1-.74,1.11,1.11,0,0,0-.34-1.21,3,3,0,0,0-1.21-.57c-5-1.4-10.42-.74-15.35.92A71.35,71.35,0,0,0,659,286.71" style="fill:#CF9455"></path><path d="M630.15,299.18c-3.45-7-3.23-15.09-.25-22.27,2.1,3.19,2.36,7.27,2,11.07s-1.54,7.72-1.61,11.55" style="fill:#CF9455"></path><path d="M616.36,292.23a31,31,0,0,0-23.08,9.83,21.53,21.53,0,0,0,12.64-2.34,64.16,64.16,0,0,0,10.83-7.25" style="fill:#CF9455"></path><path d="M607.1,289.13c-4.22-.34-8.27-.87-12.33.38a14.78,14.78,0,0,0-9.39,8,22.27,22.27,0,0,0,11.55-2.18,67.16,67.16,0,0,0,10.17-6.16" style="fill:#CF9455"></path><path d="M620.82,289.27c-3.79-2.49-7.69-5-12.1-6s-9.53-.27-12.61,3c3.57,2.1,7.91,2.35,12,2.35s9.23-.05,13.13,1.33" style="fill:#CF9455"></path><path d="M620.84,289.47c-6.48-6.37-8.94-17.8-6.33-26.5a40.38,40.38,0,0,1,6.33,26.5" style="fill:#CF9455"></path><path d="M638.67,271.43c1.22-2.84,2.08-5.82,3.17-8.71a25.15,25.15,0,0,1,4.54-8,11.91,11.91,0,0,1,8-4.16,32.36,32.36,0,0,1-15.59,21" style="fill:#CF9455"></path><path d="M635.44,275.19c-2-2.78-4.36-6.56-7.1-8.64s-6.32-3.34-9.67-2.54a22.5,22.5,0,0,0,16.77,11.18" style="fill:#CF9455"></path><path d="M636.09,271.67a47.58,47.58,0,0,1-3.2-10.36,16.14,16.14,0,0,1,1.62-10.53c3.56,6.73,4.7,14,1.76,21" style="fill:#CF9455"></path><path d="M638.7,250.78c2-6.67,8.12-11.58,14.71-13.83a5.59,5.59,0,0,1,2.58-.39,2.24,2.24,0,0,1,1.9,1.59c.24,1.13-.69,2.15-1.58,2.9a50.09,50.09,0,0,1-17.61,9.73" style="fill:#CF9455"></path><path d="M638.77,245.33c.26-4.3.53-8.66,1.92-12.74s4.1-7.89,8-9.67c.67,4.34-1.25,8.66-3.56,12.39s-5.1,7.27-6.48,11.43" style="fill:#CF9455"></path><path d="M638.67,248.29c-1.67-4.86-1.84-11-4.75-15.27-2-3-5.29-5-7-8.11a12.4,12.4,0,0,0,.41,9.21,26.64,26.64,0,0,0,5.39,7.7c2.15,2.3,4,4,6,6.47" style="fill:#CF9455"></path><path d="M638.7,391.39c-.13,0-.24-32.41-.25-72.39s.09-72.41.22-72.41.24,32.41.25,72.41S638.83,391.39,638.7,391.39Z" style="fill:#263238"></path><path d="M667,294.29a7.59,7.59,0,0,1-1.22.46l-3.36,1.13c-2.82,1-6.71,2.36-10.93,4.08s-8.11,3.25-10.35,5.19a7.63,7.63,0,0,0-2.08,2.76c-.32.76-.38,1.22-.42,1.21s0-.11,0-.34a5.14,5.14,0,0,1,.24-.94,7.25,7.25,0,0,1,2-2.93,18.11,18.11,0,0,1,4.49-2.8c1.8-.83,3.79-1.71,5.91-2.58,4.23-1.73,8.14-3.08,11-4,1.43-.44,2.6-.77,3.41-1A7,7,0,0,1,667,294.29Z" style="fill:#263238"></path><path d="M676.31,271.48a1.66,1.66,0,0,1-.34.36l-1,1-3.88,3.53-12.93,11.51c-5,4.49-9.4,8.78-12.42,12-1.52,1.62-2.71,2.95-3.52,3.88l-.94,1.08a2.19,2.19,0,0,1-.35.35s.08-.15.28-.41.48-.65.87-1.13c.77-1,1.93-2.35,3.41-4a164.79,164.79,0,0,1,12.36-12.14c5.06-4.48,9.67-8.51,13-11.41l4-3.42c.44-.36.81-.66,1.1-.91A2.15,2.15,0,0,1,676.31,271.48Z" style="fill:#263238"></path><path d="M652.68,292.42c-.14-.05.92-2.49,2-5.57s1.56-5.67,1.69-5.65a19.18,19.18,0,0,1-1.25,5.8,37.55,37.55,0,0,1-1.57,3.9A6.36,6.36,0,0,1,652.68,292.42Z" style="fill:#263238"></path><path d="M638.73,312.05a6,6,0,0,1-.78-.91l-2-2.55c-1.67-2.16-4-5.15-6.58-8.42s-5-6.19-6.7-8.31l-2-2.52a6.71,6.71,0,0,1-.7-1,5.66,5.66,0,0,1,.84.84c.52.56,1.25,1.39,2.15,2.42,1.79,2.07,4.22,5,6.82,8.24s4.87,6.3,6.47,8.51c.81,1.11,1.45,2,1.88,2.65A6.21,6.21,0,0,1,638.73,312.05Z" style="fill:#263238"></path><path d="M632.52,304.07a11.34,11.34,0,0,1-2.61-4.87,14.14,14.14,0,0,1-.59-4.91l.21,0c-.09.37-.16.57-.2.56s0-.21,0-.6l.2,0a22.94,22.94,0,0,0,.83,4.78A35.43,35.43,0,0,0,632.52,304.07Z" style="fill:#263238"></path><path d="M624.5,294a9.1,9.1,0,0,0-1.82-1.05,12.15,12.15,0,0,0-5-.4,30.8,30.8,0,0,0-5.08.82,16.37,16.37,0,0,1-2.09.5,6.91,6.91,0,0,1,2-.82,23.21,23.21,0,0,1,5.13-1,11,11,0,0,1,5.2.56A3.22,3.22,0,0,1,624.5,294Z" style="fill:#263238"></path><path d="M622.6,291.54c0,.07-1.06-.42-2.79-1a28,28,0,0,0-14-1.07c-1.8.32-2.88.65-2.91.58a2.75,2.75,0,0,1,.74-.32,18.36,18.36,0,0,1,2.1-.59,24.87,24.87,0,0,1,14.21,1.08,17.36,17.36,0,0,1,2,.91A2.61,2.61,0,0,1,622.6,291.54Z" style="fill:#263238"></path><path d="M638.67,281.2a55.31,55.31,0,0,1-2-7.05,56,56,0,0,1-1.58-7.17,57.85,57.85,0,0,1,2,7.06A58.24,58.24,0,0,1,638.67,281.2Z" style="fill:#263238"></path><path d="M638.8,281.2a35.77,35.77,0,0,0-2.25-4.22,18.87,18.87,0,0,0-3.32-3.42,3.14,3.14,0,0,1,1.28.66,10.29,10.29,0,0,1,2.42,2.49A9.49,9.49,0,0,1,638.8,281.2Z" style="fill:#263238"></path><path d="M638.7,374.11c-.05,0-.15-.78-.51-2.15a30.45,30.45,0,0,0-2.17-5.62,77.71,77.71,0,0,0-11.49-16.19c-2.57-2.93-5.06-5.7-7.17-8.34a58.65,58.65,0,0,1-5.13-7.4,36.54,36.54,0,0,1-2.59-5.48c-.23-.68-.41-1.21-.5-1.57a3.11,3.11,0,0,1-.14-.56s.28.74.81,2.06a41.34,41.34,0,0,0,2.71,5.39,63.15,63.15,0,0,0,5.17,7.29c2.13,2.62,4.62,5.37,7.19,8.3,5.19,5.83,9.26,11.71,11.44,16.36a27.74,27.74,0,0,1,2,5.71,14.78,14.78,0,0,1,.29,1.63A3,3,0,0,1,638.7,374.11Z" style="fill:#263238"></path><path d="M664.3,345.2A14.86,14.86,0,0,1,663,346a29.74,29.74,0,0,0-3.48,2.3,39.35,39.35,0,0,0-4.57,4.17c-1.61,1.7-3.26,3.66-4.95,5.77-3.37,4.23-6.52,8-8.41,11-1,1.49-1.66,2.74-2.11,3.61a10.89,10.89,0,0,1-.74,1.35s0-.13.12-.38.24-.6.45-1.05a34.57,34.57,0,0,1,2-3.7,118.87,118.87,0,0,1,8.33-11.08c1.69-2.11,3.36-4.09,5-5.78a37.28,37.28,0,0,1,4.69-4.13,24.94,24.94,0,0,1,3.59-2.2c.45-.22.81-.36,1-.46S664.29,345.18,664.3,345.2Z" style="fill:#263238"></path><path d="M664.8,354.58A19.18,19.18,0,0,1,662,355a37.53,37.53,0,0,0-6.72,1.33,19.85,19.85,0,0,0-6,3.16c-1.39,1.07-2.05,2-2.11,1.9a2.33,2.33,0,0,1,.42-.65,10.08,10.08,0,0,1,1.48-1.51,18.16,18.16,0,0,1,6.08-3.35,30,30,0,0,1,6.84-1.21A15.4,15.4,0,0,1,664.8,354.58Z" style="fill:#263238"></path><path d="M647.94,360.35c-.15-.08,1.13-2,2.12-4.66s1.15-5,1.31-4.94a4.5,4.5,0,0,1,0,1.52,17,17,0,0,1-.83,3.58,17.53,17.53,0,0,1-1.65,3.29C648.35,359.93,648,360.39,647.94,360.35Z" style="fill:#263238"></path><path d="M672.59,320a3.54,3.54,0,0,1-.46.24l-1.33.6c-.58.25-1.29.57-2.09,1s-1.73.84-2.71,1.43l-1.55.88c-.53.3-1.06.67-1.63,1-1.14.7-2.28,1.55-3.5,2.42A65.38,65.38,0,0,0,652,334a66.94,66.94,0,0,0-6.18,7.52c-.83,1.25-1.64,2.42-2.29,3.59-.33.57-.68,1.12-1,1.66s-.56,1.08-.83,1.58c-.55,1-.94,1.94-1.33,2.76s-.69,1.53-.92,2.12-.41,1-.56,1.35a2.19,2.19,0,0,1-.22.46,1.75,1.75,0,0,1,.14-.49c.12-.37.28-.82.47-1.39s.48-1.33.85-2.16.74-1.79,1.27-2.8l.81-1.6c.28-.55.63-1.1,1-1.69.65-1.18,1.45-2.37,2.28-3.63a62.91,62.91,0,0,1,6.19-7.61,65.12,65.12,0,0,1,7.39-6.45c1.24-.87,2.4-1.71,3.55-2.39.58-.35,1.12-.71,1.66-1s1.07-.58,1.57-.86c1-.56,1.94-1,2.76-1.36a21.75,21.75,0,0,1,2.13-.92l1.37-.53A1.48,1.48,0,0,1,672.59,320Z" style="fill:#263238"></path><path d="M652.33,333.59a3.25,3.25,0,0,1,1.11-1.66,7.07,7.07,0,0,1,4.49-1.72,12.37,12.37,0,0,1,4.72.92,6.89,6.89,0,0,1,1.79.87,10.27,10.27,0,0,1-1.89-.55,14.1,14.1,0,0,0-4.6-.77,7.27,7.27,0,0,0-4.29,1.5A13,13,0,0,0,652.33,333.59Z" style="fill:#263238"></path><path d="M649.3,336.71a12,12,0,0,0,1-8.47,2.76,2.76,0,0,1,.53,1.21,8.57,8.57,0,0,1,.22,3.17,8.45,8.45,0,0,1-.95,3C649.69,336.38,649.35,336.75,649.3,336.71Z" style="fill:#263238"></path><path d="M616.31,378.76c.7,12.39,4.43,25,10.17,37.72h25c5.48-12.61,8.95-25.19,9.57-37.72Z" style="fill:#455a64"></path><path d="M657,398.8c0,.13-8.23.24-18.37.24s-18.36-.11-18.36-.24,8.22-.23,18.36-.23S657,398.68,657,398.8Z" style="fill:#fafafa"></path><path d="M656.42,403.29c0,.13-7.71.24-17.22.24s-17.21-.11-17.21-.24,7.71-.23,17.21-.23S656.42,403.16,656.42,403.29Z" style="fill:#fafafa"></path></g><g id="freepik--Device--inject-160"><rect x="175.89" y="156.3" width="384.52" height="254.28" rx="14.57" style="fill:#455a64"></rect><path d="M160.86,394.16H577.46a0,0,0,0,1,0,0v4.45a17.8,17.8,0,0,1-17.8,17.8h-381a17.8,17.8,0,0,1-17.8-17.8v-4.45a0,0,0,0,1,0,0Z" style="fill:#455a64"></path><rect x="186.21" y="166.4" width="362.8" height="214.73" style="fill:#263238"></rect><polygon points="330.25 391.77 335.41 400 408.16 400 412.96 391.77 330.25 391.77" style="fill:#263238"></polygon><rect x="193.69" y="173.67" width="348.6" height="206.78" rx="3.27" style="fill:#ebebeb"></rect><polygon points="541.91 380.75 193.31 380.75 193.69 189.13 541.91 189.13 541.91 380.75" style="fill:#fafafa"></polygon><path d="M222.28,181.66a2.79,2.79,0,1,1-2.79-2.78A2.78,2.78,0,0,1,222.28,181.66Z" style="fill:#263238"></path><path d="M205.4,181.66a2.79,2.79,0,1,1-2.78-2.78A2.77,2.77,0,0,1,205.4,181.66Z" style="fill:#263238"></path><path d="M213.5,181.66a2.79,2.79,0,1,1-2.78-2.78A2.77,2.77,0,0,1,213.5,181.66Z" style="fill:#263238"></path><path d="M557.1,391.77c0,.14-85.34.25-190.59.25s-190.62-.11-190.62-.25,85.33-.25,190.62-.25S557.1,391.64,557.1,391.77Z" style="fill:#263238"></path><polygon points="305.31 263.98 447.14 262.66 451.29 359.07 304.43 358.02 305.31 263.98" style="fill:#CF9455"></polygon><path d="M305.31,264l67-54.45a7.72,7.72,0,0,1,9.74,0l65.08,53.12" style="fill:#CF9455"></path><g style="opacity:0.30000000000000004"><path d="M305.31,264l67-54.45a7.72,7.72,0,0,1,9.74,0l65.08,53.12"></path></g><path d="M304.43,358c-.17-.17,11.15-12.59,25.3-27.74S355.5,303,355.68,303.14s-11.15,12.58-25.31,27.74S304.61,358.18,304.43,358Z" style="fill:#263238"></path><path d="M451.29,359.07c-.18.17-11.26-12-24.75-27.07s-24.28-27.5-24.1-27.66,11.26,12,24.76,27.08S451.47,358.91,451.29,359.07Z" style="fill:#263238"></path><g style="opacity:0.5"><polyline points="447.14 262.66 376.04 319.7 305.31 263.98"></polyline></g><polygon points="312.47 269.24 312.15 224.94 436.34 223.22 437.83 269.82 376.03 318.95 312.47 269.24" style="fill:#fafafa"></polygon><path d="M312.47,269.24s.41.29,1.18.88l3.38,2.61,12.86,10c11.08,8.65,27,21,46.27,36.08h-.26l61.77-49.17-.09.21c-.29-8.89-.59-18.22-.89-27.71-.21-6.39-.41-12.71-.61-18.9l.26.25-124.18,1.64.16-.17c.06,13.93.12,25,.15,32.58,0,3.79,0,6.71,0,8.7,0,1,0,1.73,0,2.25s0,.77,0,.77,0-.25,0-.75,0-1.26,0-2.23c0-2-.06-4.9-.1-8.68-.07-7.61-.18-18.68-.31-32.64v-.16h.16L436.33,223h.26v.26c.2,6.19.4,12.5.61,18.89.3,9.49.6,18.82.88,27.71v.13l-.1.08-61.84,49.1-.13.11-.13-.11-46.22-36.27-12.76-10.06-3.33-2.64Z" style="fill:#263238"></path><path d="M416.76,245.56c0,.14-19,.41-42.42.6s-42.42.23-42.42.09,19-.41,42.42-.61S416.76,245.41,416.76,245.56Z" style="fill:#263238"></path><path d="M416.78,258.07c0,.14-19,.42-42.41.61s-42.42.23-42.42.08,19-.41,42.42-.6S416.78,257.93,416.78,258.07Z" style="fill:#263238"></path><path d="M416.81,272.49c0,.15-19,.42-42.41.61s-42.42.23-42.42.08,19-.41,42.42-.6S416.81,272.35,416.81,272.49Z" style="fill:#263238"></path><path d="M416.84,286.91c0,.15-18.11.41-40.46.59s-40.47.22-40.47.07,18.11-.41,40.47-.59S416.84,286.77,416.84,286.91Z" style="fill:#263238"></path><path d="M401,299.6a1.65,1.65,0,0,1-.5.06l-1.43.06-5.24.13-17.31.32c-6.76.12-12.89.16-17.32.16l-5.24,0-1.43,0a2,2,0,0,1-.5-.05,1.65,1.65,0,0,1,.5-.06l1.42-.06,5.25-.13,17.31-.31c6.76-.13,12.88-.17,17.31-.17l5.25,0,1.43,0A2.55,2.55,0,0,1,401,299.6Z" style="fill:#263238"></path><path d="M385,311.8a76.73,76.73,0,0,1-9,.28,77.38,77.38,0,0,1-9-.24,79.42,79.42,0,0,1,9-.28A80.12,80.12,0,0,1,385,311.8Z" style="fill:#263238"></path></g><g id="freepik--Floor--inject-160"><path d="M709,415.55c0,.15-149.54.26-334,.26s-334-.11-334-.26,149.51-.26,334-.26S709,415.41,709,415.55Z" style="fill:#263238"></path></g></svg>