<svg xmlns="http://www.w3.org/2000/svg" viewBox="0 0 500 500"><g id="freepik--Floor--inject-155"><path id="freepik--floor--inject-155" d="M77.66,244.86c-95.18,54.95-95.17,144.05,0,199s249.49,54.95,344.67,0,95.17-144,0-199S172.84,189.91,77.66,244.86Z" style="fill:#f5f5f5"></path><g id="freepik--Flowers--inject-155"><g id="freepik--flowers--inject-155"><path d="M451.79,334.32s-.12-1.61-1.38-1.78c0,0-1-.17-1.61,1.43a3.29,3.29,0,0,0-3,.35,1.86,1.86,0,0,0,1.38,2.07,2.33,2.33,0,0,0-.52,2.52s2.58.86,3.21-.75c0,0,.23,1.44,2.76,1.44a2.41,2.41,0,0,0,0-2.87s1.78-.06,2.07-1.38C454.72,335.35,453.51,333.34,451.79,334.32Z" style="fill:#fff"></path><path d="M450.24,334.57a1.76,1.76,0,0,0-1.91,1.19s0,.93,1.61,1.07,1.85-.8,1.85-.8A1.58,1.58,0,0,0,450.24,334.57Z" style="fill:#CF9455"></path><path d="M450.24,334.57a1.76,1.76,0,0,0-1.91,1.19s0,.93,1.61,1.07,1.85-.8,1.85-.8A1.58,1.58,0,0,0,450.24,334.57Z" style="fill:#fff;opacity:0.6000000000000001"></path><path d="M459.79,331s-.56-1.15-1.49-1.28a2.54,2.54,0,0,0-.92,1.64,2.37,2.37,0,0,0-2,.5,2.19,2.19,0,0,0,1.29,1.49,2.88,2.88,0,0,0,.07,2.12,2.5,2.5,0,0,0,2.41-1.36,2.36,2.36,0,0,0,2.49.65,1.86,1.86,0,0,0-.67-2.17,2,2,0,0,0,1-1.73A2.83,2.83,0,0,0,459.79,331Z" style="fill:#fff"></path><path d="M458.78,331.69a1.31,1.31,0,0,0-1.27,1.08s.11.68,1.3.61,1.27-.8,1.27-.8A1.16,1.16,0,0,0,458.78,331.69Z" style="fill:#CF9455"></path><path d="M458.78,331.69a1.31,1.31,0,0,0-1.27,1.08s.11.68,1.3.61,1.27-.8,1.27-.8A1.16,1.16,0,0,0,458.78,331.69Z" style="fill:#fff;opacity:0.6000000000000001"></path><path d="M451.22,329.16s-.35-1-1-.67-.44,1,.14,1.14c0,0-1.25.41-.9,1.08s1.43,0,1.66-.38c0,0,.24,1,1.11.66s0-1.25,0-1.25,1.34-.52.61-1.14S451.22,329.16,451.22,329.16Z" style="fill:#fff"></path><path d="M457.62,344s.1-1.07-.66-1-.81.72-.33,1.1c0,0-1.32-.15-1.28.61s1.32.56,1.68.34c0,0-.21,1,.73,1.06s.52-1.14.52-1.14,1.44.08,1-.78S457.62,344,457.62,344Z" style="fill:#fff"></path><path d="M438.56,339.84s-.87-1.15-.21-1.42.94.71.94.71.66-.78,1-.23-.49,1.15-.49,1.15.91.48.39,1-1.15-.28-1.15-.28-.36.87-.91.63S437.9,340.12,438.56,339.84Z" style="fill:#fff"></path></g><g id="freepik--flowers--inject-155"><path d="M392.92,399.93s-.61-1.71-2-1.53c0,0-1.18.12-1.32,2a3.73,3.73,0,0,0-3.15,1.27,2.09,2.09,0,0,0,2.11,1.84,2.64,2.64,0,0,0,.19,2.9s3.07.17,3.28-1.77c0,0,.68,1.49,3.42.74a2.71,2.71,0,0,0-.85-3.12s1.92-.59,1.84-2.12C396.41,400.18,394.5,398.36,392.92,399.93Z" style="fill:#fff"></path><path d="M391.3,400.67a2,2,0,0,0-1.72,1.85s.28,1,2.07.69,1.78-1.42,1.78-1.42A1.79,1.79,0,0,0,391.3,400.67Z" style="fill:#CF9455"></path><path d="M391.3,400.67a2,2,0,0,0-1.72,1.85s.28,1,2.07.69,1.78-1.42,1.78-1.42A1.79,1.79,0,0,0,391.3,400.67Z" style="fill:#fff;opacity:0.6000000000000001"></path><path d="M407.47,389.33s-.64-1.29-1.68-1.44a2.89,2.89,0,0,0-1,1.86,2.63,2.63,0,0,0-2.29.56,2.44,2.44,0,0,0,1.45,1.68,3.26,3.26,0,0,0,.08,2.39,2.82,2.82,0,0,0,2.72-1.53s.75,1.11,2.8.72a2.09,2.09,0,0,0-.74-2.44,2.23,2.23,0,0,0,1.12-1.95A3.2,3.2,0,0,0,407.47,389.33Z" style="fill:#fff"></path><path d="M406.32,390.09a1.49,1.49,0,0,0-1.43,1.22s.12.77,1.47.69,1.43-.9,1.43-.9A1.33,1.33,0,0,0,406.32,390.09Z" style="fill:#CF9455"></path><path d="M406.32,390.09a1.49,1.49,0,0,0-1.43,1.22s.12.77,1.47.69,1.43-.9,1.43-.9A1.33,1.33,0,0,0,406.32,390.09Z" style="fill:#fff;opacity:0.6000000000000001"></path><path d="M393.83,390.39s-.39-1.15-1.15-.76-.5,1.12.16,1.29c0,0-1.41.46-1,1.22s1.62,0,1.88-.43c0,0,.26,1.16,1.25.74s0-1.4,0-1.4,1.52-.59.69-1.29S393.83,390.39,393.83,390.39Z" style="fill:#fff"></path><path d="M414.72,398.29s.12-1.22-.73-1.17-.92.82-.38,1.24c0,0-1.48-.17-1.44.69s1.49.63,1.89.38c0,0-.24,1.17.83,1.2s.58-1.28.58-1.28,1.63.09,1.16-.88S414.72,398.29,414.72,398.29Z" style="fill:#fff"></path><path d="M377.65,399.2s1.34-.91,1.62-.15-.86,1-.86,1,.83.79.19,1.11-1.26-.62-1.26-.62-.61,1-1.12.37.38-1.27.38-1.27-1-.46-.64-1.06S377.38,398.44,377.65,399.2Z" style="fill:#fff"></path></g><g id="freepik--flowers--inject-155"><path d="M290.87,455.12s-.12-1.7-1.46-1.89c0,0-1.1-.18-1.71,1.53a3.5,3.5,0,0,0-3.16.36,2,2,0,0,0,1.46,2.2,2.48,2.48,0,0,0-.55,2.68s2.74.91,3.41-.79c0,0,.25,1.52,2.93,1.52a2.55,2.55,0,0,0,0-3.05s1.89-.06,2.19-1.46C294,456.22,292.7,454.09,290.87,455.12Z" style="fill:#fff"></path><path d="M289.22,455.39a1.87,1.87,0,0,0-2,1.26s0,1,1.71,1.14,2-.85,2-.85A1.69,1.69,0,0,0,289.22,455.39Z" style="fill:#CF9455"></path><path d="M289.22,455.39a1.87,1.87,0,0,0-2,1.26s0,1,1.71,1.14,2-.85,2-.85A1.69,1.69,0,0,0,289.22,455.39Z" style="fill:#fff;opacity:0.6000000000000001"></path><path d="M307,450.92s-.6-1.21-1.58-1.35a2.72,2.72,0,0,0-1,1.74,2.5,2.5,0,0,0-2.15.53,2.3,2.3,0,0,0,1.37,1.58,3,3,0,0,0,.07,2.25,2.65,2.65,0,0,0,2.56-1.44s.71,1,2.64.69a2,2,0,0,0-.7-2.3,2.09,2.09,0,0,0,1.05-1.84A3,3,0,0,0,307,450.92Z" style="fill:#fff"></path><path d="M306,451.64a1.39,1.39,0,0,0-1.35,1.14s.11.73,1.38.65,1.35-.85,1.35-.85A1.25,1.25,0,0,0,306,451.64Z" style="fill:#CF9455"></path><path d="M306,451.64a1.39,1.39,0,0,0-1.35,1.14s.11.73,1.38.65,1.35-.85,1.35-.85A1.25,1.25,0,0,0,306,451.64Z" style="fill:#fff;opacity:0.6000000000000001"></path><path d="M292.57,447.07s-.37-1.08-1.08-.71-.47,1.05.15,1.21c0,0-1.33.43-1,1.15s1.52,0,1.77-.41c0,0,.25,1.1,1.18.7s0-1.32,0-1.32,1.42-.55.65-1.21S292.57,447.07,292.57,447.07Z" style="fill:#fff"></path><path d="M270.6,464.82s.11-1.14-.69-1.1-.86.77-.36,1.17c0,0-1.39-.16-1.35.64s1.4.6,1.78.37c0,0-.23,1.09.78,1.12s.55-1.2.55-1.2,1.52.08,1.09-.83S270.6,464.82,270.6,464.82Z" style="fill:#fff"></path><path d="M276.53,451s-.92-1.21-.22-1.51,1,.76,1,.76.7-.83,1-.24-.52,1.22-.52,1.22,1,.51.41,1-1.22-.3-1.22-.3-.38.93-1,.67S275.83,451.25,276.53,451Z" style="fill:#fff"></path></g><g id="freepik--flowers--inject-155"><path d="M119.11,426.73s-.12-1.62-1.38-1.79c0,0-1-.17-1.62,1.44a3.31,3.31,0,0,0-3,.35,1.86,1.86,0,0,0,1.38,2.07,2.35,2.35,0,0,0-.52,2.53s2.59.87,3.23-.75c0,0,.23,1.44,2.76,1.44a2.4,2.4,0,0,0,0-2.88s1.79-.05,2.08-1.38C122.05,427.76,120.84,425.75,119.11,426.73Z" style="fill:#fff"></path><path d="M117.55,427a1.76,1.76,0,0,0-1.91,1.19s0,.94,1.61,1.08,1.86-.81,1.86-.81A1.59,1.59,0,0,0,117.55,427Z" style="fill:#CF9455"></path><path d="M117.55,427a1.76,1.76,0,0,0-1.91,1.19s0,.94,1.61,1.08,1.86-.81,1.86-.81A1.59,1.59,0,0,0,117.55,427Z" style="fill:#fff;opacity:0.6000000000000001"></path><path d="M131.89,424.77s-.57-1.15-1.5-1.28a2.58,2.58,0,0,0-.92,1.65,2.35,2.35,0,0,0-2,.5,2.18,2.18,0,0,0,1.3,1.5,2.85,2.85,0,0,0,.06,2.12,2.53,2.53,0,0,0,2.43-1.36,2.33,2.33,0,0,0,2.48.64,1.85,1.85,0,0,0-.66-2.17,2,2,0,0,0,1-1.73A2.8,2.8,0,0,0,131.89,424.77Z" style="fill:#fff"></path><path d="M130.87,425.45a1.29,1.29,0,0,0-1.27,1.08s.1.69,1.3.61,1.28-.8,1.28-.8A1.18,1.18,0,0,0,130.87,425.45Z" style="fill:#CF9455"></path><path d="M130.87,425.45a1.29,1.29,0,0,0-1.27,1.08s.1.69,1.3.61,1.28-.8,1.28-.8A1.18,1.18,0,0,0,130.87,425.45Z" style="fill:#fff;opacity:0.6000000000000001"></path><path d="M120.38,420.64s-.35-1-1-.67-.44,1,.15,1.14c0,0-1.26.41-.91,1.09s1.44,0,1.67-.38c0,0,.23,1,1.11.66s0-1.25,0-1.25,1.35-.53.62-1.14S120.38,420.64,120.38,420.64Z" style="fill:#fff"></path><path d="M129,433.31s.11-1.08-.65-1-.81.73-.34,1.1c0,0-1.32-.15-1.28.61s1.32.57,1.68.35c0,0-.21,1,.74,1.06s.52-1.14.52-1.14,1.44.08,1-.78S129,433.31,129,433.31Z" style="fill:#fff"></path><path d="M105.22,424.31s-.87-1.15-.21-1.43.94.72.94.72.66-.79,1-.23-.49,1.15-.49,1.15.9.49.38,1-1.15-.28-1.15-.28-.36.87-.91.62S104.56,424.59,105.22,424.31Z" style="fill:#fff"></path></g><g id="freepik--flowers--inject-155"><path d="M53.18,338.72s.13-1.74,1.49-1.93c0,0,1.12-.18,1.75,1.56a3.56,3.56,0,0,1,3.23.37A2,2,0,0,1,58.16,341a2.55,2.55,0,0,1,.56,2.73s-2.8.94-3.49-.81c0,0-.24,1.56-3,1.56a2.61,2.61,0,0,1,0-3.11s-1.93-.06-2.24-1.49C50,339.84,51.32,337.66,53.18,338.72Z" style="fill:#fff"></path><path d="M54.86,339a1.91,1.91,0,0,1,2.07,1.28s0,1-1.74,1.16-2-.87-2-.87A1.7,1.7,0,0,1,54.86,339Z" style="fill:#CF9455"></path><path d="M54.86,339a1.91,1.91,0,0,1,2.07,1.28s0,1-1.74,1.16-2-.87-2-.87A1.7,1.7,0,0,1,54.86,339Z" style="fill:#fff;opacity:0.6000000000000001"></path><path d="M39.39,336.61s.61-1.24,1.61-1.38A2.75,2.75,0,0,1,42,337a2.55,2.55,0,0,1,2.2.54,2.33,2.33,0,0,1-1.4,1.61,3.09,3.09,0,0,1-.07,2.29A2.72,2.72,0,0,1,40.11,340s-.71,1.07-2.68.69a2,2,0,0,1,.71-2.34,2.11,2.11,0,0,1-1.07-1.88A3.06,3.06,0,0,1,39.39,336.61Z" style="fill:#fff"></path><path d="M40.49,337.34a1.41,1.41,0,0,1,1.37,1.17s-.11.74-1.41.66-1.37-.87-1.37-.87A1.27,1.27,0,0,1,40.49,337.34Z" style="fill:#CF9455"></path><path d="M40.49,337.34a1.41,1.41,0,0,1,1.37,1.17s-.11.74-1.41.66-1.37-.87-1.37-.87A1.27,1.27,0,0,1,40.49,337.34Z" style="fill:#fff;opacity:0.6000000000000001"></path><path d="M51.81,332.15s.38-1.1,1.11-.72.48,1.07-.16,1.23c0,0,1.36.44,1,1.17s-1.55,0-1.8-.41c0,0-.25,1.11-1.2.71s0-1.35,0-1.35-1.46-.56-.67-1.23S51.81,332.15,51.81,332.15Z" style="fill:#fff"></path><path d="M42.47,345.82s-.11-1.16.71-1.12.87.79.36,1.19c0,0,1.43-.16,1.38.66s-1.42.61-1.81.37c0,0,.23,1.12-.8,1.15s-.56-1.23-.56-1.23-1.56.09-1.11-.84S42.47,345.82,42.47,345.82Z" style="fill:#fff"></path><path d="M68.18,336.11s.94-1.24.22-1.54-1,.77-1,.77-.72-.84-1.06-.24.53,1.24.53,1.24-1,.53-.41,1.05,1.24-.3,1.24-.3.38.94,1,.68S68.89,336.41,68.18,336.11Z" style="fill:#fff"></path><path d="M62.14,376.17s-1.35-.78-1.55,0,.89.91.89.91-.75.82-.11,1.08,1.16-.68,1.16-.68.65.9,1.1.28-.45-1.2-.45-1.2.88-.5.54-1.06S62.35,375.42,62.14,376.17Z" style="fill:#fff"></path><path d="M95.46,364.49s-1.35-.78-1.55,0,.89.91.89.91-.75.81-.11,1.07,1.16-.68,1.16-.68.65.91,1.1.28-.45-1.19-.45-1.19.88-.5.54-1.06S95.67,363.74,95.46,364.49Z" style="fill:#fff"></path><path d="M79.74,403.59s-1.35-.78-1.56,0,.89.91.89.91-.75.82-.11,1.08,1.17-.68,1.17-.68.64.9,1.1.27-.46-1.19-.46-1.19.88-.5.55-1.06S80,402.84,79.74,403.59Z" style="fill:#fff"></path><path d="M188,458.74s-1.35-.78-1.55,0,.89.91.89.91-.75.82-.11,1.08,1.16-.68,1.16-.68.65.9,1.1.28-.45-1.2-.45-1.2.88-.5.54-1.06S188.24,458,188,458.74Z" style="fill:#fff"></path><path d="M449.34,377.74s-1.35-.78-1.56,0,.89.91.89.91-.74.81-.1,1.07,1.16-.67,1.16-.67.65.9,1.1.27-.46-1.19-.46-1.19.89-.5.55-1.06S449.55,377,449.34,377.74Z" style="fill:#fff"></path></g></g></g><g id="freepik--Clouds--inject-155"><path id="freepik--Cloud--inject-155" d="M215.63,70.66a11,11,0,0,0-3.75-.69c-1.21-.1-1.6-.34-1.83-.6a8.93,8.93,0,0,0-10.73-3.17,6.87,6.87,0,0,0-8.1-4.58c.14-3.77-4.68-7.83-9-8.75-4.15-.88-7.77-.51-10.14,2.22-2.53-5-12.47-6.35-17.85-3.73-3.1,1.51-5.72,3.06-7,5.89a11.83,11.83,0,0,0-1.17,5.63C144,61,139.76,60.54,137,61.62c-3,1.17-3.25,3.44-3.4,5.76a10.42,10.42,0,0,0-5.49-.1c-1.9.56-3,2-2.74,3.26-1.5-.08-5.09,1.13-4.67,2.72.46,1.78,4.55,1.6,6.08,1.55a29.56,29.56,0,0,0,4.28-.67,6.92,6.92,0,0,0,2.23.42c2.6,0,3.71-1.14,4.12-2.11,1.28,2.68,5.8,4.72,9,5.54,6,1.54,14.56.6,18.27-3.9a6.76,6.76,0,0,0,1.79,2.19A10.52,10.52,0,0,0,172,78.54c2.47.23,9.12.55,11-3.39,1.32,2.62,7.24,3.81,11.73,3.17a18.53,18.53,0,0,0,5-1.52,28.71,28.71,0,0,0,2.89-1.74,2.43,2.43,0,0,1,2.47-.17c3.09.93,6.67,1.32,9.82,0C217.46,73.83,218,71.73,215.63,70.66Z" style="fill:#f0f0f0"></path><path id="freepik--cloud--inject-155" d="M236.68,123.23a8.44,8.44,0,0,0-2.88-.53c-.93-.08-1.23-.26-1.41-.46a6.86,6.86,0,0,0-8.26-2.44,5.28,5.28,0,0,0-6.23-3.53c.1-2.9-3.61-6-6.94-6.73s-6-.39-7.8,1.71c-1.95-3.81-9.6-4.89-13.74-2.87-2.38,1.16-4.4,2.35-5.39,4.53a9.1,9.1,0,0,0-.89,4.34c-1.62-1.43-4.85-1.81-7-1-2.33.9-2.5,2.65-2.62,4.43a8.11,8.11,0,0,0-4.23-.07c-1.46.43-2.3,1.58-2.1,2.51-1.16-.07-3.92.87-3.6,2.09.35,1.38,3.5,1.24,4.68,1.19a21.07,21.07,0,0,0,3.29-.51,5,5,0,0,0,1.72.32c2,0,2.85-.87,3.18-1.62,1,2.06,4.46,3.63,6.92,4.26,4.64,1.19,11.2.47,14.06-3a5,5,0,0,0,1.38,1.68,8,8,0,0,0,4.29,1.74c1.91.18,7,.43,8.46-2.6,1,2,5.57,2.93,9,2.44a14.68,14.68,0,0,0,3.88-1.17,24.61,24.61,0,0,0,2.22-1.34,1.87,1.87,0,0,1,1.9-.13,11.28,11.28,0,0,0,7.56,0C238.09,125.67,238.5,124.05,236.68,123.23Z" style="fill:#f5f5f5"></path></g><g id="freepik--plants-2--inject-155"><path d="M426.94,245.44a68.27,68.27,0,0,1,7-3.6c4.71-2.17,9.46-4.25,14.19-6.38s9.16-3.85,13.31-6.76a65.16,65.16,0,0,1-8.55,18.5,39,39,0,0,1-11.51,11.08c-5.06,3.12-10.8,4.5-16.51,5.93-4.42,1.11-8.91,2.52-12.38,5.48a26,26,0,0,0,.14-2.93,29.16,29.16,0,0,1,.77-3.48,30.75,30.75,0,0,1,2.6-6.38,30.17,30.17,0,0,1,9.05-10.24C425.68,246.23,426.31,245.82,426.94,245.44Z" style="fill:#CF9455"></path><path d="M421.71,281.27a23.58,23.58,0,0,1,1.94-1.52A37.65,37.65,0,0,1,434.07,275c3.75-1.19,7.66-1.75,11.34-3.18a20,20,0,0,0,7.45-4.71,13,13,0,0,1-.75,3.8,43.44,43.44,0,0,1-8.39,14.53,25.49,25.49,0,0,1-10.48,7c-4.59,1.53-9.57,1.29-14.27.43-2.06-.38-4.18-.92-6.22-.45C415.4,288.44,418.13,284.38,421.71,281.27Z" style="fill:#CF9455"></path><path d="M401.38,256.42a39.93,39.93,0,0,1,.83-9.44c-11.88,10.74-15.4,32.53,0,41.7C406.59,278.07,402.27,267.21,401.38,256.42Z" style="fill:#CF9455"></path><path d="M413.85,311c7.51-4.43,16.67-2.21,24.5-5.67-8.15,14.31-17.2,14.3-31.76,14.53C408.37,316.59,410.31,312.8,413.85,311Z" style="fill:#CF9455"></path><path d="M413.75,292.77c-1.64.42-3.22,1-4.82,1.5-1.23,7.72-2.54,15.42-3.83,23.13-.15.85-.28,1.71-.42,2.56.41-.35.82-.69,1.26-1a15.85,15.85,0,0,1,3.7-2,8.24,8.24,0,0,1,2.07-.56c.65-.05,1.29-.12,1.94-.15.47,0,.55.94.11,1a23.25,23.25,0,0,0-3.79,1.39,21.51,21.51,0,0,0-3.27,1.77,17,17,0,0,0-2.44,2c-.8,5-1.59,10-2.6,14.94A126.08,126.08,0,0,0,399,352.94a.77.77,0,0,1-.63.81,8.1,8.1,0,0,1-6.33-.35.65.65,0,0,1-.35-.32.64.64,0,0,1,.12-.54,69.8,69.8,0,0,0,5.14-13.06c1.72-6,2.23-10.94,3.17-16.85a17.8,17.8,0,0,0-1-3.73,39.82,39.82,0,0,0-1.82-3.92c-.33-.64-.7-1.26-1-1.9a8.93,8.93,0,0,1-.89-2.95c0-.09,0-.31.18-.27,1.66.51,2.52,2.14,3.43,3.5a27,27,0,0,1,2.07,3.76q1.68-10.1,3.39-20.19c-.27-1.1-.49-2.19-.86-3.25-.74-2.11-1.87-4-2.78-6.05a28.91,28.91,0,0,1-2.26-6.72c-.41-2.19-1-4.35-.67-6.59.1-.6.61,0,.56.38-.29,2.43,1.76,4.65,2.87,6.65,1,1.83,2.09,3.65,3.09,5.5.46.86.91,1.73,1.33,2.62,1-6.29,2-12.91,4.78-18.59a30.42,30.42,0,0,1,6.69-9,31.52,31.52,0,0,1,5.39-3.86,47.06,47.06,0,0,1,6.53-2.81c.22-.09.37.43.2.55-1.65,1.14-3.15,2.47-4.81,3.59a49.69,49.69,0,0,0-5.13,3.92,20.23,20.23,0,0,0-5.63,8.31c-2.3,6.38-3.24,13.06-4.27,19.73,3-1.14,6.41-1.37,9.5-1.91a29.57,29.57,0,0,0,9.84-3.13c.42-.23.63.71.36.93-2.9,2.37-6.38,3.45-10,4.28C417.33,291.91,415.53,292.32,413.75,292.77Z" style="fill:#CF9455"></path><path d="M413.75,292.77c-1.64.42-3.22,1-4.82,1.5-1.23,7.72-2.54,15.42-3.83,23.13-.15.85-.28,1.71-.42,2.56.41-.35.82-.69,1.26-1a15.85,15.85,0,0,1,3.7-2,8.24,8.24,0,0,1,2.07-.56c.65-.05,1.29-.12,1.94-.15.47,0,.55.94.11,1a23.25,23.25,0,0,0-3.79,1.39,21.51,21.51,0,0,0-3.27,1.77,17,17,0,0,0-2.44,2c-.8,5-1.59,10-2.6,14.94A126.08,126.08,0,0,0,399,352.94a.77.77,0,0,1-.63.81,8.1,8.1,0,0,1-6.33-.35.65.65,0,0,1-.35-.32.64.64,0,0,1,.12-.54,69.8,69.8,0,0,0,5.14-13.06c1.72-6,2.23-10.94,3.17-16.85a17.8,17.8,0,0,0-1-3.73,39.82,39.82,0,0,0-1.82-3.92c-.33-.64-.7-1.26-1-1.9a8.93,8.93,0,0,1-.89-2.95c0-.09,0-.31.18-.27,1.66.51,2.52,2.14,3.43,3.5a27,27,0,0,1,2.07,3.76q1.68-10.1,3.39-20.19c-.27-1.1-.49-2.19-.86-3.25-.74-2.11-1.87-4-2.78-6.05a28.91,28.91,0,0,1-2.26-6.72c-.41-2.19-1-4.35-.67-6.59.1-.6.61,0,.56.38-.29,2.43,1.76,4.65,2.87,6.65,1,1.83,2.09,3.65,3.09,5.5.46.86.91,1.73,1.33,2.62,1-6.29,2-12.91,4.78-18.59a30.42,30.42,0,0,1,6.69-9,31.52,31.52,0,0,1,5.39-3.86,47.06,47.06,0,0,1,6.53-2.81c.22-.09.37.43.2.55-1.65,1.14-3.15,2.47-4.81,3.59a49.69,49.69,0,0,0-5.13,3.92,20.23,20.23,0,0,0-5.63,8.31c-2.3,6.38-3.24,13.06-4.27,19.73,3-1.14,6.41-1.37,9.5-1.91a29.57,29.57,0,0,0,9.84-3.13c.42-.23.63.71.36.93-2.9,2.37-6.38,3.45-10,4.28C417.33,291.91,415.53,292.32,413.75,292.77Z" style="opacity:0.5"></path><path d="M287.24,57.11c-2.09-12-6.89-23.31-8.55-35.43-20.2,24.11-18.88,62,10.44,78C288.15,85.47,290.94,71.15,287.24,57.11Z" style="fill:#CF9455"></path><path d="M302.49,97.6c.88-15,11.31-27.67,15.83-41.7,5.85,23.33,6,42.2-13.85,58.53A41.24,41.24,0,0,1,302.49,97.6Z" style="fill:#CF9455"></path><path d="M256.37,94.58a139,139,0,0,0-18.94-3.34c3.95,4.19,5.88,7.42,9.88,12.77,11,15.12,27.83,18.85,45.28,18.13C282.09,107.79,275.44,100.05,256.37,94.58Z" style="fill:#CF9455"></path><path d="M323.05,128c2.22-12.22,12.23-22.43,12.45-34.88,8.32,14.26,12.26,33.8-.2,46.9-3.14,3.2-6.46,7.28-10.06,9.73C321.14,144.07,321.76,134.83,323.05,128Z" style="fill:#CF9455"></path><path d="M341.22,169.31c2.9-8.23,11.7-14.16,14.29-22.72,8.33,15.76,2.86,32.09-11.9,41.45C336.88,196.48,339.27,172.11,341.22,169.31Z" style="fill:#CF9455"></path><path d="M307.66,180.62c-12.08-5.37-27.19-2.44-37.83-11.31,5,12.71,14.61,24.58,27.7,29.43,10,4.12,20.73-.46,30.84.57C323,192.07,316.06,184.49,307.66,180.62Z" style="fill:#CF9455"></path><path d="M363.36,200.72c4.63,19.73-4.42,23.29-15,36.2-4.23-22.07,5.71-25.85,11.79-42.87A31.11,31.11,0,0,1,363.36,200.72Z" style="fill:#CF9455"></path><path d="M330.88,226.52c-7.68-11.49-22.82-12.81-33.39-20.67,3.62,11.76,8.28,24.84,19.52,31.36a62.4,62.4,0,0,0,19.94,7C340.59,243.65,332.48,228.58,330.88,226.52Z" style="fill:#CF9455"></path><path d="M276.72,112.83A182.15,182.15,0,0,1,296,122.24c1.21.65,2.53,1.35,3.84,2.13l-.31-.53c-5.74-9.63-11.19-19.44-15.17-29.94-2-5.3-3.74-10.71-5.22-16.17a174,174,0,0,1-3.24-17.1c-.11-.68.63-1.16.83-.33,1.21,5.2,3.09,10.26,4.74,15.34s3.47,9.88,5.51,14.7a224.46,224.46,0,0,0,13.78,27.14l2.1,3.48c0-.82,0-1.6,0-2.29a48.63,48.63,0,0,1,.88-9.55,56.26,56.26,0,0,1,2.35-8.73c.94-2.61,2-6.18,4.09-8.07.32-.28.57.26.53.54-.45,2.72-2.06,5.33-2.91,8a50.45,50.45,0,0,0-1.93,8.58,58.25,58.25,0,0,0-.46,8.76c.05,2.5.71,5.21.41,7.71,3.76,6.21,7.48,12.43,10.85,18.86,1.52,2.92,3,5.88,4.37,8.85l.09-.39a56,56,0,0,1,3.62-9.86c3.31-7.33,7.13-14.48,8.38-22.53.06-.41.45-.09.45.19-.14,7-2.65,13.66-5,20.13-1.28,3.49-2.45,7-3.4,10.61a36.83,36.83,0,0,0-1,5.31c-.11.92-.17,1.8-.33,2.66l.47,1.08a9.53,9.53,0,0,1,1.36,3.19c1,2.28,1.9,4.57,2.8,6.88,3.24,8.36,6.06,16.87,8.52,25.49a54.42,54.42,0,0,1,2.54-9.38,52.43,52.43,0,0,1,4.25-9.11c1.65-2.8,3.51-6.48,6.07-8.53.32-.25.44.52.37.69-1.31,3-3.28,5.54-4.56,8.52a92.39,92.39,0,0,0-3.31,8.75A133.9,133.9,0,0,0,338.76,203a338.32,338.32,0,0,1,7.18,35.29c1.84-4.57,4.22-8.87,6.49-13.28.3-.58.77.31.61.69a90.69,90.69,0,0,0-5.41,16.7c-.23,1.15-.44,2.31-.63,3.47,1.64,12.68,2.64,25.45,3,38.2.1,3.56.33,6.85.48,10.93.19,5,.72,9.66,1.35,14.61a2.39,2.39,0,0,1,0,1,2.23,2.23,0,0,1-1.47,1.33,7.55,7.55,0,0,1-5.57-.06c-1-.41-1.44-.58-1.35-1.56a31.57,31.57,0,0,1,.76-3.38c1.3-6.31,1.32-12.67,1.17-19.07-.23-9.94-.83-19.89-1.8-29.79a36.34,36.34,0,0,0-4-7.8C335,243.67,328,239.36,323.3,233c-.26-.35-.16-1.75.54-1.35,3.9,2.19,7.27,5.28,10.71,8.1a41.13,41.13,0,0,1,7.89,8.09c-.73-5.79-1.56-11.57-2.58-17.32q-1.71-9.59-4-19.06a28.86,28.86,0,0,1-2.38-2.86c-1.05-1.36-2-2.76-3.17-4.06a32.67,32.67,0,0,0-7.51-6.3,31.3,31.3,0,0,0-8.08-3.59,42,42,0,0,0-4.1-1,14,14,0,0,1-4.31-1c-.2-.1-.29-.59-.06-.7,2.9-1.51,7.32-.71,10.37,0a31,31,0,0,1,16.84,10c-2.41-8.9-5.21-17.7-8.44-26.34-1.92-5.14-4-10.19-6.25-15.16a24.53,24.53,0,0,0-5.74-3.32,80.28,80.28,0,0,0-8.71-2.8,51,51,0,0,1-8.12-3.26c-.34-.16-.4-1.08.08-.95,3.37.92,7,1.18,10.44,1.85a44.68,44.68,0,0,1,9.34,2.6c-3.35-7-7-13.91-10.79-20.71-1.39-1.65-2.48-3.53-4.19-4.94-2.4-2-5.26-3.3-7.95-4.82A189.85,189.85,0,0,1,276.42,114C276.08,113.72,276.19,112.62,276.72,112.83Z" style="fill:#CF9455"></path><path d="M276.72,112.83A182.15,182.15,0,0,1,296,122.24c1.21.65,2.53,1.35,3.84,2.13l-.31-.53c-5.74-9.63-11.19-19.44-15.17-29.94-2-5.3-3.74-10.71-5.22-16.17a174,174,0,0,1-3.24-17.1c-.11-.68.63-1.16.83-.33,1.21,5.2,3.09,10.26,4.74,15.34s3.47,9.88,5.51,14.7a224.46,224.46,0,0,0,13.78,27.14l2.1,3.48c0-.82,0-1.6,0-2.29a48.63,48.63,0,0,1,.88-9.55,56.26,56.26,0,0,1,2.35-8.73c.94-2.61,2-6.18,4.09-8.07.32-.28.57.26.53.54-.45,2.72-2.06,5.33-2.91,8a50.45,50.45,0,0,0-1.93,8.58,58.25,58.25,0,0,0-.46,8.76c.05,2.5.71,5.21.41,7.71,3.76,6.21,7.48,12.43,10.85,18.86,1.52,2.92,3,5.88,4.37,8.85l.09-.39a56,56,0,0,1,3.62-9.86c3.31-7.33,7.13-14.48,8.38-22.53.06-.41.45-.09.45.19-.14,7-2.65,13.66-5,20.13-1.28,3.49-2.45,7-3.4,10.61a36.83,36.83,0,0,0-1,5.31c-.11.92-.17,1.8-.33,2.66l.47,1.08a9.53,9.53,0,0,1,1.36,3.19c1,2.28,1.9,4.57,2.8,6.88,3.24,8.36,6.06,16.87,8.52,25.49a54.42,54.42,0,0,1,2.54-9.38,52.43,52.43,0,0,1,4.25-9.11c1.65-2.8,3.51-6.48,6.07-8.53.32-.25.44.52.37.69-1.31,3-3.28,5.54-4.56,8.52a92.39,92.39,0,0,0-3.31,8.75A133.9,133.9,0,0,0,338.76,203a338.32,338.32,0,0,1,7.18,35.29c1.84-4.57,4.22-8.87,6.49-13.28.3-.58.77.31.61.69a90.69,90.69,0,0,0-5.41,16.7c-.23,1.15-.44,2.31-.63,3.47,1.64,12.68,2.64,25.45,3,38.2.1,3.56.33,6.85.48,10.93.19,5,.72,9.66,1.35,14.61a2.39,2.39,0,0,1,0,1,2.23,2.23,0,0,1-1.47,1.33,7.55,7.55,0,0,1-5.57-.06c-1-.41-1.44-.58-1.35-1.56a31.57,31.57,0,0,1,.76-3.38c1.3-6.31,1.32-12.67,1.17-19.07-.23-9.94-.83-19.89-1.8-29.79a36.34,36.34,0,0,0-4-7.8C335,243.67,328,239.36,323.3,233c-.26-.35-.16-1.75.54-1.35,3.9,2.19,7.27,5.28,10.71,8.1a41.13,41.13,0,0,1,7.89,8.09c-.73-5.79-1.56-11.57-2.58-17.32q-1.71-9.59-4-19.06a28.86,28.86,0,0,1-2.38-2.86c-1.05-1.36-2-2.76-3.17-4.06a32.67,32.67,0,0,0-7.51-6.3,31.3,31.3,0,0,0-8.08-3.59,42,42,0,0,0-4.1-1,14,14,0,0,1-4.31-1c-.2-.1-.29-.59-.06-.7,2.9-1.51,7.32-.71,10.37,0a31,31,0,0,1,16.84,10c-2.41-8.9-5.21-17.7-8.44-26.34-1.92-5.14-4-10.19-6.25-15.16a24.53,24.53,0,0,0-5.74-3.32,80.28,80.28,0,0,0-8.71-2.8,51,51,0,0,1-8.12-3.26c-.34-.16-.4-1.08.08-.95,3.37.92,7,1.18,10.44,1.85a44.68,44.68,0,0,1,9.34,2.6c-3.35-7-7-13.91-10.79-20.71-1.39-1.65-2.48-3.53-4.19-4.94-2.4-2-5.26-3.3-7.95-4.82A189.85,189.85,0,0,1,276.42,114C276.08,113.72,276.19,112.62,276.72,112.83Z" style="opacity:0.5"></path></g><g id="freepik--House--inject-155"><g id="freepik--house--inject-155"><g id="freepik--house--inject-155"><polygon points="137.13 371.3 137.13 279.95 248.72 344.38 248.72 435.73 137.13 371.3" style="fill:#CF9455"></polygon><polygon points="137.13 371.3 137.13 279.95 248.72 344.38 248.72 435.73 137.13 371.3" style="fill:#fff;opacity:0.6000000000000001"></polygon><polygon points="137.13 279.95 248.73 344.38 248.73 380.77 137.13 316.39 137.13 279.95" style="fill:#CF9455;opacity:0.30000000000000004"></polygon><g id="freepik--Window--inject-155"><g id="freepik--window--inject-155"><g id="freepik--Frame--inject-155"><polygon points="160.17 319.14 159.57 319.48 159.57 345.98 160.17 345.64 160.17 319.14" style="fill:#ebebeb"></polygon><polygon points="160.17 345.64 160.17 319.83 179.34 330.9 179.34 356.72 160.17 345.64" style="fill:#455a64"></polygon><path d="M180.46,359.35V330.26l-22-12.72v29.09ZM159.57,346v-26.5l19.77,11.42v26.51Z" style="fill:#fafafa"></path><polygon points="159.57 345.98 160.17 345.64 179.34 356.72 179.34 357.4 159.57 345.98" style="fill:#e0e0e0"></polygon><polygon points="170.6 325.85 170 325.5 170 352 170.6 351.67 170.6 325.85" style="fill:#ebebeb"></polygon><polygon points="180.46 359.35 181.06 359 181.06 329.91 180.46 330.26 180.46 359.35" style="fill:#ebebeb"></polygon><polygon points="181.06 329.91 180.46 330.26 158.45 317.54 159.05 317.19 181.06 329.91" style="fill:#e0e0e0"></polygon><polygon points="179.34 342.99 179.34 343.68 159.57 332.25 160.17 331.9 179.34 342.99" style="fill:#e0e0e0"></polygon></g><polygon points="179.34 344.97 179.34 343.68 159.57 332.25 159.57 333.55 179.34 344.97" style="fill:#fafafa"></polygon><polygon points="170 353.3 168.88 352.65 168.88 323.56 170 324.21 170 353.3" style="fill:#fafafa"></polygon><polygon points="170 338.28 170.6 337.93 170.6 325.85 170 325.5 170 338.28" style="fill:#ebebeb"></polygon></g></g><g id="freepik--window--inject-155"><g id="freepik--window--inject-155"><g id="freepik--frame--inject-155"><polygon points="206.51 345.89 205.91 346.23 205.91 372.73 206.51 372.39 206.51 345.89" style="fill:#ebebeb"></polygon><polygon points="206.51 372.39 206.52 346.57 225.69 357.65 225.68 383.47 206.51 372.39" style="fill:#455a64"></polygon><path d="M226.81,386.09V357l-22-12.73v29.09Zm-20.9-13.36v-26.5l19.78,11.42v26.5Z" style="fill:#fafafa"></path><polygon points="205.91 372.73 206.51 372.39 225.68 383.47 225.69 384.15 205.91 372.73" style="fill:#e0e0e0"></polygon><polygon points="216.95 352.6 216.35 352.25 216.35 378.75 216.95 378.42 216.95 352.6" style="fill:#ebebeb"></polygon><polygon points="226.81 386.1 227.41 385.75 227.41 356.66 226.81 357 226.81 386.1" style="fill:#ebebeb"></polygon><polygon points="227.41 356.66 226.81 357 204.79 344.29 205.39 343.94 227.41 356.66" style="fill:#e0e0e0"></polygon><polygon points="225.69 369.73 225.69 370.43 205.91 359 206.51 358.65 225.69 369.73" style="fill:#e0e0e0"></polygon></g><polygon points="225.68 371.72 225.69 370.43 205.91 359 205.91 360.3 225.68 371.72" style="fill:#fafafa"></polygon><polygon points="216.34 380.05 215.23 379.4 215.23 350.31 216.34 350.96 216.34 380.05" style="fill:#fafafa"></polygon><polygon points="216.35 365.03 216.95 364.68 216.95 352.6 216.35 352.25 216.35 365.03" style="fill:#ebebeb"></polygon></g></g><polygon points="354.3 374.78 354.3 283.48 301.47 265.72 248.73 344.38 248.73 435.73 354.3 374.78" style="fill:#CF9455"></polygon><polygon points="354.3 374.78 354.3 283.48 301.47 265.72 248.73 344.38 248.73 435.73 354.3 374.78" style="fill:#fff;opacity:0.8"></polygon><polygon points="240.03 359.61 301.47 265.72 301.47 255.57 231.24 364.68 240.03 359.61" style="fill:#263238"></polygon><polygon points="192.93 192.84 301.47 255.57 231.24 364.68 122.7 301.96 192.93 192.84" style="fill:#455a64"></polygon><polygon points="301.47 255.57 371.88 283.48 263.54 220.76 193.13 192.84 301.47 255.57" style="fill:#37474f"></polygon><polygon points="301.47 265.72 363.09 288.56 371.88 283.48 301.47 255.57 301.47 265.72" style="fill:#263238"></polygon><path d="M316.6,396.56,286.32,414l87.87,51.43a287.16,287.16,0,0,0,35.23-14.67Z" style="fill:#e0e0e0"></path><g id="freepik--Door--inject-155"><polygon points="315.15 328.16 315.15 396.32 287.87 412.08 287.86 343.92 315.15 328.16" style="fill:#CF9455"></polygon><polygon points="312.99 395.11 312.99 329.41 287.86 343.92 287.86 409.61 312.99 395.11" style="fill:#CF9455"></polygon><polygon points="312.99 395.11 312.99 329.41 287.86 343.92 287.86 409.61 312.99 395.11" style="fill:#fff;opacity:0.6000000000000001"></polygon><polygon points="312.99 395.11 316.07 396.85 287.86 413.14 287.87 409.61 312.99 395.11" style="fill:#37474f"></polygon><polygon points="308.33 337.73 291.48 347.48 291.46 375.65 308.33 365.9 308.33 337.73" style="fill:#455a64"></polygon><polygon points="298.9 371.35 299.95 371.95 291.46 376.85 291.46 375.65 298.9 371.35" style="fill:#CF9455"></polygon><polygon points="298.9 371.35 299.95 371.95 291.46 376.85 291.46 375.65 298.9 371.35" style="fill:#fff;opacity:0.30000000000000004"></polygon><polygon points="308.33 365.9 308.33 337.73 309.37 337.12 309.37 366.5 308.33 365.9" style="fill:#CF9455"></polygon><polygon points="308.33 365.9 309.37 366.5 300.97 371.36 300.97 370.15 308.33 365.9" style="fill:#CF9455"></polygon><polygon points="308.33 365.9 309.37 366.5 300.97 371.36 300.97 370.15 308.33 365.9" style="fill:#fff;opacity:0.30000000000000004"></polygon><polygon points="299.95 371.95 300.97 371.36 300.97 341.98 299.95 342.58 299.95 371.95" style="fill:#CF9455"></polygon><polygon points="299.95 371.95 300.97 371.36 300.97 341.98 299.95 342.58 299.95 371.95" style="fill:#fff;opacity:0.6000000000000001"></polygon><polygon points="299.95 371.95 298.9 371.35 298.9 343.18 299.95 342.58 299.95 371.95" style="fill:#CF9455"></polygon><polygon points="299.94 356.72 298.91 356.13 291.46 360.44 291.46 361.63 299.94 356.72" style="fill:#CF9455"></polygon><polygon points="299.94 356.72 298.91 356.13 291.46 360.44 291.46 361.63 299.94 356.72" style="fill:#fff;opacity:0.30000000000000004"></polygon><polygon points="299.94 356.72 299.94 357.92 291.46 362.82 291.46 361.63 299.94 356.72" style="fill:#CF9455"></polygon><polygon points="299.94 356.72 299.94 357.92 291.46 362.82 291.46 361.63 299.94 356.72" style="fill:#fff;opacity:0.6000000000000001"></polygon><polygon points="309.36 351.27 308.33 350.68 300.97 354.94 300.97 356.13 309.36 351.27" style="fill:#CF9455"></polygon><polygon points="309.36 351.27 308.33 350.68 300.97 354.94 300.97 356.13 309.36 351.27" style="fill:#fff;opacity:0.30000000000000004"></polygon><polygon points="309.36 351.27 309.36 352.47 300.97 357.32 300.97 356.13 309.36 351.27" style="fill:#CF9455"></polygon><polygon points="309.36 351.27 309.36 352.47 300.97 357.32 300.97 356.13 309.36 351.27" style="fill:#fff;opacity:0.6000000000000001"></polygon><polygon points="312.99 329.41 312.99 331.61 287.86 346.12 287.86 343.92 312.99 329.41" style="fill:#CF9455;opacity:0.2"></polygon><polygon points="315.15 396.32 316.07 396.85 316.07 327.63 315.15 328.16 315.15 396.32" style="fill:#ebebeb"></polygon><polygon points="316.07 396.85 319.71 394.75 319.71 321.33 284.22 341.82 284.22 415.24 287.86 413.14 287.86 343.92 316.07 327.63 316.07 396.85" style="fill:#fafafa"></polygon><polygon points="319.71 321.33 284.22 341.82 283.32 341.3 318.81 320.81 319.71 321.33" style="fill:#e0e0e0"></polygon><polygon points="284.22 415.24 284.22 341.82 283.32 341.3 283.32 414.72 284.22 415.24" style="fill:#ebebeb"></polygon></g><g id="freepik--window--inject-155"><g id="freepik--window--inject-155"><g id="freepik--frame--inject-155"><polygon points="346.26 313.98 346.86 314.32 346.86 340.82 346.26 340.48 346.26 313.98" style="fill:#ebebeb"></polygon><polygon points="346.26 340.48 346.26 314.67 327.09 325.74 327.09 351.56 346.26 340.48" style="fill:#455a64"></polygon><path d="M348,341.47V312.38L326,325.1v29.09Zm-20.89,10.78V325.74l19.77-11.42v26.5Z" style="fill:#fafafa"></path><polygon points="346.86 340.82 346.26 340.48 327.09 351.56 327.09 352.25 346.86 340.82" style="fill:#e0e0e0"></polygon><polygon points="335.82 320.69 336.43 320.34 336.43 346.84 335.82 346.51 335.82 320.69" style="fill:#ebebeb"></polygon><polygon points="325.97 354.19 325.37 353.84 325.37 324.75 325.97 325.1 325.97 354.19" style="fill:#ebebeb"></polygon><polygon points="325.37 324.75 325.97 325.1 347.98 312.38 347.38 312.03 325.37 324.75" style="fill:#e0e0e0"></polygon><polygon points="327.09 337.82 327.09 338.52 346.86 327.09 346.26 326.74 327.09 337.82" style="fill:#e0e0e0"></polygon></g><polygon points="327.09 339.81 327.09 338.52 346.86 327.09 346.86 328.39 327.09 339.81" style="fill:#fafafa"></polygon><polygon points="336.43 348.14 337.55 347.49 337.55 318.4 336.43 319.05 336.43 348.14" style="fill:#fafafa"></polygon><polygon points="336.43 333.12 335.82 332.77 335.82 320.69 336.43 320.34 336.43 333.12" style="fill:#ebebeb"></polygon></g></g><g id="freepik--window--inject-155"><g id="freepik--window--inject-155"><g id="freepik--frame--inject-155"><polygon points="275.94 354.57 276.54 354.91 276.54 381.41 275.94 381.07 275.94 354.57" style="fill:#ebebeb"></polygon><polygon points="275.94 381.07 275.94 355.26 256.77 366.34 256.77 392.15 275.94 381.07" style="fill:#455a64"></polygon><path d="M277.66,382.06V353l-22,12.72v29.09Zm-20.89,10.78v-26.5l19.77-11.43v26.5Z" style="fill:#fafafa"></path><polygon points="276.54 381.41 275.94 381.07 256.77 392.15 256.77 392.84 276.54 381.41" style="fill:#e0e0e0"></polygon><polygon points="265.5 361.29 266.11 360.94 266.11 387.44 265.5 387.1 265.5 361.29" style="fill:#ebebeb"></polygon><polygon points="255.65 394.78 255.04 394.43 255.04 365.34 255.65 365.69 255.65 394.78" style="fill:#ebebeb"></polygon><polygon points="255.04 365.34 255.65 365.69 277.66 352.97 277.06 352.62 255.04 365.34" style="fill:#e0e0e0"></polygon><polygon points="256.77 378.42 256.77 379.12 276.54 367.69 275.94 367.34 256.77 378.42" style="fill:#e0e0e0"></polygon></g><polygon points="256.77 380.41 256.77 379.12 276.54 367.69 276.54 368.98 256.77 380.41" style="fill:#fafafa"></polygon><polygon points="266.11 388.73 267.23 388.09 267.23 359 266.11 359.64 266.11 388.73" style="fill:#fafafa"></polygon><polygon points="266.11 373.71 265.5 373.37 265.5 361.29 266.11 360.94 266.11 373.71" style="fill:#ebebeb"></polygon></g></g><path d="M309.74,285.68c2,1.14,3.17,3.56,3.17,7,0,6.91-4.84,15.3-10.82,18.75-3,1.73-5.7,1.89-7.66.76l-1.15-.66c-1.95-1.14-3.17-3.56-3.17-7,0-6.91,4.85-15.3,10.83-18.75,3-1.73,5.7-1.89,7.65-.76Z" style="fill:#e0e0e0"></path><path d="M302.09,311.44c-3,1.73-5.7,1.89-7.66.76s-3.17-3.56-3.17-7c0-6.9,4.85-15.3,10.83-18.75,3-1.72,5.69-1.89,7.65-.76s3.17,3.56,3.17,7C312.91,299.6,308.07,308,302.09,311.44Z" style="fill:#fafafa"></path><path d="M297.25,311.7a4.37,4.37,0,0,1-2.21-.55c-1.65-1-2.56-3.07-2.56-6,0-6.5,4.58-14.44,10.22-17.69a8.72,8.72,0,0,1,4.22-1.32,4.35,4.35,0,0,1,2.21.56c1.66.95,2.56,3.07,2.56,5.95,0,6.51-4.58,14.44-10.21,17.7A8.7,8.7,0,0,1,297.25,311.7Z" style="fill:#e0e0e0"></path><path d="M300.59,309.84c5.63-3.25,10.21-11.19,10.21-17.69,0-2.57-.72-4.52-2-5.59a4.42,4.42,0,0,0-1.84-.38,8.72,8.72,0,0,0-4.22,1.32c-5.64,3.25-10.22,11.19-10.22,17.69,0,2.57.73,4.52,2,5.59a4.37,4.37,0,0,0,1.83.38A8.72,8.72,0,0,0,300.59,309.84Z" style="fill:#455a64"></path><polygon points="300.75 288.83 301.53 288.25 301.53 310.36 300.75 309.93 300.75 288.83" style="fill:#ebebeb"></polygon><path d="M292.61,303.25c0,.32-.07.62-.09.89l19.05-10.95-.78-.45Z" style="fill:#e0e0e0"></path><path d="M292.5,305.88a14.48,14.48,0,0,1,0-1.74l19.19-11a14.43,14.43,0,0,1-.15,1.75Z" style="fill:#fafafa"></path><polygon points="301.53 311.55 302.97 310.71 302.97 286.93 301.53 287.77 301.53 311.55" style="fill:#fafafa"></polygon><path d="M301.53,299l-.78-.44v-9.7c.26-.21.52-.41.78-.59Z" style="fill:#ebebeb"></path></g><g id="freepik--Fence--inject-155"><polygon id="freepik--Shadow--inject-155" points="122.49 394.08 207.76 443.3 211.9 440.86 126.64 391.63 122.49 394.08" style="fill:#e0e0e0"></polygon><g id="freepik--fence--inject-155"><polygon points="205.39 438.98 205.39 407.69 203.07 402.9 200.71 404.99 200.71 436.28 205.39 438.98" style="fill:#37474f"></polygon><polygon points="205.39 407.69 206.56 407.01 206.56 438.3 205.39 438.98 205.39 407.69" style="fill:#263238"></polygon><polygon points="203.07 402.9 204.25 402.21 206.56 407.01 205.39 407.69 203.07 402.9" style="fill:#455a64"></polygon><polygon points="188.07 429.02 188.07 397.73 185.75 392.95 183.38 395.04 183.38 426.32 188.07 429.02" style="fill:#37474f"></polygon><polygon points="188.07 397.73 189.24 397.06 189.24 428.35 188.07 429.02 188.07 397.73" style="fill:#263238"></polygon><polygon points="185.75 392.95 186.92 392.25 189.24 397.06 188.07 397.73 185.75 392.95" style="fill:#455a64"></polygon><polygon points="170.75 419.06 170.75 387.77 168.43 382.99 166.06 385.08 166.06 416.37 170.75 419.06" style="fill:#37474f"></polygon><polygon points="170.75 387.77 171.92 387.1 171.92 418.39 170.75 419.06 170.75 387.77" style="fill:#263238"></polygon><polygon points="168.43 382.99 169.6 382.29 171.92 387.1 170.75 387.77 168.43 382.99" style="fill:#455a64"></polygon><polygon points="153.43 409.11 153.43 377.82 151.11 373.04 148.74 375.12 148.74 406.41 153.43 409.11" style="fill:#37474f"></polygon><polygon points="153.43 377.82 154.6 377.14 154.6 408.43 153.43 409.11 153.43 377.82" style="fill:#263238"></polygon><polygon points="151.11 373.04 152.28 372.34 154.6 377.14 153.43 377.82 151.11 373.04" style="fill:#455a64"></polygon><polygon points="136.1 399.15 136.1 367.86 133.78 363.08 131.42 365.17 131.42 396.46 136.1 399.15" style="fill:#37474f"></polygon><polygon points="136.1 367.86 137.28 367.19 137.28 398.48 136.1 399.15 136.1 367.86" style="fill:#263238"></polygon><polygon points="133.78 363.08 134.96 362.38 137.28 367.19 136.1 367.86 133.78 363.08" style="fill:#455a64"></polygon><polygon points="131.42 377.74 136.1 380.43 136.1 378.58 131.42 375.89 131.42 377.74" style="fill:#263238"></polygon><polygon points="153.43 388.54 148.74 385.84 148.74 387.69 153.43 390.38 153.43 388.54" style="fill:#263238"></polygon><polygon points="188.07 408.44 183.38 405.75 183.38 407.59 188.07 410.28 188.07 408.44" style="fill:#263238"></polygon><polygon points="170.75 398.49 166.06 395.8 166.06 397.64 170.75 400.33 170.75 398.49" style="fill:#263238"></polygon><polygon points="205.39 418.39 200.71 415.7 200.71 417.54 205.39 420.24 205.39 418.39" style="fill:#263238"></polygon><polygon points="131.42 389.62 136.1 392.31 136.1 390.47 131.42 387.77 131.42 389.62" style="fill:#263238"></polygon><polygon points="153.43 400.42 148.74 397.73 148.74 399.57 153.43 402.26 153.43 400.42" style="fill:#263238"></polygon><polygon points="188.07 420.32 183.38 417.63 183.38 419.47 188.07 422.17 188.07 420.32" style="fill:#263238"></polygon><polygon points="170.75 410.37 166.06 407.68 166.06 409.52 170.75 412.21 170.75 410.37" style="fill:#263238"></polygon><polygon points="205.39 430.27 200.71 427.58 200.71 429.43 205.39 432.12 205.39 430.27" style="fill:#263238"></polygon><polygon points="210.7 432.04 126.45 383.63 126.45 385.48 210.7 433.88 210.7 432.04" style="fill:#37474f"></polygon><polygon points="210.7 432.04 211.9 431.35 211.9 433.19 210.7 433.88 210.7 432.04" style="fill:#263238"></polygon><polygon points="126.45 383.63 210.7 432.04 211.9 431.35 127.66 382.94 126.45 383.63" style="fill:#455a64"></polygon><polygon points="210.7 420.24 126.45 371.84 126.45 373.68 210.7 422.08 210.7 420.24" style="fill:#37474f"></polygon><polygon points="210.7 420.24 211.9 419.55 211.9 421.39 210.7 422.08 210.7 420.24" style="fill:#263238"></polygon><polygon points="126.45 371.84 210.7 420.24 211.9 419.55 127.66 371.14 126.45 371.84" style="fill:#455a64"></polygon></g></g></g></g><g id="freepik--Bird--inject-155"><path d="M413.68,85.83c-3.5,4.55-7.23,9-10.35,13.79-1-9.74-1.9-19.64-.14-29.27,2.08-11.41,7.34-21.71,13.87-31.2,4.42-6.44,10.39-12.07,15.89-17.39-2.58,9.7-3.16,20.61-4.34,27.26-1.45,8.87-3.36,17.82-7.6,25.82A78.69,78.69,0,0,1,413.68,85.83Z" style="fill:#CF9455"></path><path d="M365.25,58.65c.07-4.64.42-9.28.77-13.9A14.45,14.45,0,0,1,367.28,39a94.56,94.56,0,0,0,12.1,26c3.5,5.26,7.93,10.5,9.93,16.54,2.44,7.32,4.71,18.5,1.95,26-5.61-5.09-12.76-9.21-17.58-15.13s-6.91-14.81-7.86-22.19A80.21,80.21,0,0,1,365.25,58.65Z" style="fill:#CF9455"></path><path d="M424.07,118.17c-5.22,1-12.83.08-17.79.42,12.49-19.14,38.11-20,55.54-32.36C457.07,103.13,441.5,116.25,424.07,118.17Z" style="fill:#CF9455"></path><path d="M417.91,114.78q3.18-1.16,6.36-2.26c.33-.11.18-1-.17-.91-6,1.84-12.21,3.24-18.17,5.31a30.52,30.52,0,0,0-6.69,3.15l-.83.57c3.8-15.42,8.12-30.71,12.74-45.9.09-.3-.3-1-.52-.5a310.52,310.52,0,0,0-15.53,42.39c-.13-1.21-.31-2.42-.52-3.61a57.33,57.33,0,0,0-3.78-13A57.75,57.75,0,0,0,383.43,88c-2.94-3.85-5.83-7.86-7.59-12.4-.24-.61-.76,0-.62.45,2.68,8.4,8.51,15.38,11.93,23.48a67.49,67.49,0,0,1,4.1,12.78,60.39,60.39,0,0,1,1,6.7c.16,1.82.45,3.62.72,5.43-.85,3.26-1.67,6.53-2.43,9.8-1.19,5.2-2.27,10.43-3.28,15.66a44.32,44.32,0,0,0-5.14-10.19c-4.14-6.06-9.46-11.4-12.85-17.94-.21-.4-.48.09-.37.36,2.68,6.81,6.65,12.77,10.4,19a56.35,56.35,0,0,1,6.8,15.12c-1.88,10.59-3.44,21.23-4.56,31.92-1.87,17.67-2.66,35.44-3.39,53.19s-1.54,35.38-3.78,52.94c-.81,6.42-2.32,12.81-3.59,19.16s-2.66,12.36-4.33,18.53q-1.08,3.94-2.14,7.89c-.59,2.19,6.13,2.05,7.5,1.69a3,3,0,0,0,2.12-1.4,3.32,3.32,0,0,0,.21-1.21c.26-5.64.68-10.2,1.27-15.82.56-5.4,1.16-10.21,2-16.62.9-6.6,1.8-14.19,2.38-20.31,1.41-14.72,2.71-32,3.41-48.71l.09-.13a14.52,14.52,0,0,1,.17-3.38l-.12.12c.65-11.74.82-23.79,2-35.43.41-5.29.88-10.58,1.49-15.85,1.46-12.54,3.55-25,6-37.38q1.11-5.53,2.33-11c.43-1.92.86-3.82,1.3-5.73.25-1,.41-4.11,1.15-4.84.17-.16.32-.35.5-.5a17.77,17.77,0,0,1,2.94-2,46.7,46.7,0,0,1,6.5-2.81C411,117.3,414.45,116,417.91,114.78Z" style="fill:#CF9455"></path><path d="M417.91,114.78q3.18-1.16,6.36-2.26c.33-.11.18-1-.17-.91-6,1.84-12.21,3.24-18.17,5.31a30.52,30.52,0,0,0-6.69,3.15l-.83.57c3.8-15.42,8.12-30.71,12.74-45.9.09-.3-.3-1-.52-.5a310.52,310.52,0,0,0-15.53,42.39c-.13-1.21-.31-2.42-.52-3.61a57.33,57.33,0,0,0-3.78-13A57.75,57.75,0,0,0,383.43,88c-2.94-3.85-5.83-7.86-7.59-12.4-.24-.61-.76,0-.62.45,2.68,8.4,8.51,15.38,11.93,23.48a67.49,67.49,0,0,1,4.1,12.78,60.39,60.39,0,0,1,1,6.7c.16,1.82.45,3.62.72,5.43-.85,3.26-1.67,6.53-2.43,9.8-1.19,5.2-2.27,10.43-3.28,15.66a44.32,44.32,0,0,0-5.14-10.19c-4.14-6.06-9.46-11.4-12.85-17.94-.21-.4-.48.09-.37.36,2.68,6.81,6.65,12.77,10.4,19a56.35,56.35,0,0,1,6.8,15.12c-1.88,10.59-3.44,21.23-4.56,31.92-1.87,17.67-2.66,35.44-3.39,53.19s-1.54,35.38-3.78,52.94c-.81,6.42-2.32,12.81-3.59,19.16s-2.66,12.36-4.33,18.53q-1.08,3.94-2.14,7.89c-.59,2.19,6.13,2.05,7.5,1.69a3,3,0,0,0,2.12-1.4,3.32,3.32,0,0,0,.21-1.21c.26-5.64.68-10.2,1.27-15.82.56-5.4,1.16-10.21,2-16.62.9-6.6,1.8-14.19,2.38-20.31,1.41-14.72,2.71-32,3.41-48.71l.09-.13a14.52,14.52,0,0,1,.17-3.38l-.12.12c.65-11.74.82-23.79,2-35.43.41-5.29.88-10.58,1.49-15.85,1.46-12.54,3.55-25,6-37.38q1.11-5.53,2.33-11c.43-1.92.86-3.82,1.3-5.73.25-1,.41-4.11,1.15-4.84.17-.16.32-.35.5-.5a17.77,17.77,0,0,1,2.94-2,46.7,46.7,0,0,1,6.5-2.81C411,117.3,414.45,116,417.91,114.78Z" style="opacity:0.5"></path><g id="freepik--bird--inject-155"><path d="M418.89,199.33c1,.34,2.53,5.94,4.22,12.15s2.22,8.88,2.89,9.61,4,1.12,5.9,1.27a13.69,13.69,0,0,0,1.76,3.26c.79.75,8.07,1.61,9,1,.5-.3-1.11-3.45-1.11-3.45a20.66,20.66,0,0,0,7-.05c1.18-.32-5.26-9.22-9.32-14.52s-6.18-7.68-7.63-10.54a49.53,49.53,0,0,1-2.22-9.18C429,186.09,421.19,197.38,418.89,199.33Z" style="fill:#455a64"></path><path d="M431.9,222.36a221.86,221.86,0,0,0-8.35-20.69,216,216,0,0,0,8.35,20.69Z" style="fill:#37474f"></path><path d="M441.57,223.21Q435.5,212.32,428.43,202q6.09,10.89,13.14,21.19Z" style="fill:#37474f"></path><path d="M386.49,179.83A22.55,22.55,0,0,0,395.25,193a32.78,32.78,0,0,0,14.85,5.83c.5.07,1.11.07,1.35-.36a1.15,1.15,0,0,0,0-.94,15.53,15.53,0,0,0-2.89-4.49,185.17,185.17,0,0,1-12.31-16.91,56.74,56.74,0,0,0-4.38-6.49,8.8,8.8,0,0,0-3-2.49c-.95-.4-2.7-1.25-3.68-1.08a.56.56,0,0,0-.45.28.61.61,0,0,0,0,.4C385.72,171,385.57,175.47,386.49,179.83Z" style="fill:#37474f"></path><path d="M385.13,168.09c4.68,9.33,1.6,22,22.83,30.47,13.43,5.34,18.93,3.49,20.67.44,2.33-4.1,1-17.06-5.11-27.33-4.6-7.78-13.46-13.85-21-19.33-2.46-1.79-4.15-1.73-6.38-2.51C385.86,146.28,385.13,168.09,385.13,168.09Z" style="fill:#e0e0e0"></path><path d="M385.13,168.09c4.68,9.33,1.6,22,22.83,30.47,13.43,5.34,18.93,3.49,20.67.44,2.33-4.1,1-17.06-5.11-27.33-4.6-7.78-13.46-13.85-21-19.33-2.46-1.79-4.15-1.73-6.38-2.51C385.86,146.28,385.13,168.09,385.13,168.09Z" style="opacity:0.15"></path><path d="M402.52,152.34a10.35,10.35,0,0,0-1.94-1.13c-1.27,8,2.5,16.37,7.81,22.67,5.88,7,13.51,12.25,19.88,18.78a7.15,7.15,0,0,0,1.43,1.15c.16-5.87-1.77-14.7-6.18-22.14C418.92,163.89,410.06,157.82,402.52,152.34Z" style="fill:#37474f"></path><path d="M411.07,175c.22-.34,1.5-3.53.71-3.73a1.72,1.72,0,0,0,1.83-1.11,5,5,0,0,0,.19-2.31c0-.68-.09-1.37-.14-2.05a2.63,2.63,0,0,1,.06-1,5.41,5.41,0,0,1,.33-.63,4.11,4.11,0,0,0,.37-2.74c-2.18-1.87-4.48-3.64-6.78-5.34-2.38,4-2.73,8.87-2.36,13.53a39.34,39.34,0,0,0,3.11,4.28c.6.71,1.23,1.39,1.86,2.06A5.17,5.17,0,0,0,411.07,175Z" style="fill:#263238"></path><path d="M401.64,168.35a14.6,14.6,0,0,0,3.45,5.34,4.28,4.28,0,0,0,2.34,1.23c2.72.31,2.8-2.89,2.43-4.76a3,3,0,0,0,2.32-.83,3.28,3.28,0,0,0,.73-2.71,10,10,0,0,0-1-2.73,1.93,1.93,0,0,0,1.57-1.93,4.44,4.44,0,0,0-.94-2.51,17.39,17.39,0,0,0-4.84-4.6c-1.67-1.11-3.82-2.63-5.91-2.62-3.23,0-2.9,5.84-2.63,8a29.93,29.93,0,0,0,2,7C401.33,167.6,401.48,168,401.64,168.35Z" style="fill:#455a64"></path><path d="M394.3,148a14.25,14.25,0,0,1,4.51,1.8,16.87,16.87,0,0,1-4.43,8.85c-3.85,3.73-7.55,4.71-10.13,4.51,0,0-1.63,1.23.58,1.6l-2.81.61-2.87-3.2c-1-.66-1.8-4,.43-8.34C382.19,148.72,388.56,146.8,394.3,148Z" style="fill:#37474f"></path><path d="M395.32,162.6l-10.49,2.11-2.81.61,1.09,1.21a7.25,7.25,0,0,1,2,1.56h0s.26-.94,2.41-1.59A18.68,18.68,0,0,0,395.32,162.6Z" style="fill:#37474f"></path><path d="M394.38,158.6c-3.85,3.73-7.54,4.71-10.13,4.52,0,0-1.63,1.22.58,1.59s11.18-.75,14.64-5.22c3.19-4.13,3-7.15,3-7.15h0a43.44,43.44,0,0,0-3.71-2.59A16.87,16.87,0,0,1,394.38,158.6Z" style="fill:#ebebeb"></path><path d="M377.25,169.32c1.16.27,2.39-.42,3.55-.77,1.32-.4,3.47-1.25,3.47-1.25a2.23,2.23,0,0,0,.56-2.59,11.55,11.55,0,0,0-4.13,1.4A7.46,7.46,0,0,0,377.25,169.32Z" style="fill:#263238"></path><path d="M381.7,161.08c-1.17-.53-1.79.18-2.55,1-1.14,1.28-3,5.35-3.09,6.82s2.42-.23,4.51-1.63,3.54-2.08,4.26-2.6S383.32,161.82,381.7,161.08Z" style="fill:#455a64"></path><path d="M386.53,159.76a.5.5,0,0,1,0-.17,1.47,1.47,0,0,1,.08-.3c0-.2,0-.4.07-.6a1.28,1.28,0,0,1,.17-.46,1.57,1.57,0,0,1,.76-.61,1.88,1.88,0,0,1,1-.1,1.57,1.57,0,0,1,.75.29,1.3,1.3,0,0,0,.26.14l.14.05a.36.36,0,0,1,.15.39c0,.09-.1.16-.13.26a2.35,2.35,0,0,0-.05.37,1.26,1.26,0,0,1-.7,1.1,2.2,2.2,0,0,1-.72.2,2.1,2.1,0,0,1-.75-.11c-.25-.08-.47-.2-.72-.26a.54.54,0,0,1-.19-.07A.42.42,0,0,1,386.53,159.76Z"></path><path d="M389.88,234c4-18.16,7.22-32.21,14.51-39.12,0,0,.34-5,6.22-11.32,3.44-19.4,6.52-27.08,17.82-38.32,14.71-14.62,28.36-18.79,28.36-18.79s-3.33,28.54-13,44.45C424.55,202.47,399.21,213.31,389.88,234Z" style="fill:#CF9455"></path><path d="M435.71,157.54a355.5,355.5,0,0,1-25,40.44c-9,12.78-18.75,25-25.12,39.39a121,121,0,0,0-4.51,11.8c-1.35,4.14-2.56,8.59-2.51,13,0,.33.57,1.22.88.61,1.61-3.22,2.45-6.84,3.6-10.25,1.22-3.62,2.45-7.24,3.91-10.77a125.27,125.27,0,0,1,10.5-20.16c4.29-6.66,9.12-13,13.63-19.48s9-13.21,13-20.08A166.74,166.74,0,0,0,436,157.88C436.07,157.7,435.86,157.25,435.71,157.54Z" style="fill:#CF9455"></path><path d="M435.71,157.54a355.5,355.5,0,0,1-25,40.44c-9,12.78-18.75,25-25.12,39.39a121,121,0,0,0-4.51,11.8c-1.35,4.14-2.56,8.59-2.51,13,0,.33.57,1.22.88.61,1.61-3.22,2.45-6.84,3.6-10.25,1.22-3.62,2.45-7.24,3.91-10.77a125.27,125.27,0,0,1,10.5-20.16c4.29-6.66,9.12-13,13.63-19.48s9-13.21,13-20.08A166.74,166.74,0,0,0,436,157.88C436.07,157.7,435.86,157.25,435.71,157.54Z" style="opacity:0.5"></path><path d="M406.28,198.87l-.28-.26a9.36,9.36,0,0,1-1.11-1.24,2.12,2.12,0,0,1-.4-2.25c0-.05.05-.1,0-.14s-.07-.09-.13-.11a1.51,1.51,0,0,0-1.84.79.54.54,0,0,1-.07.13.24.24,0,0,1-.11.06,1.31,1.31,0,0,0-.62.67c-.06.13,0,.33-.1.45s-.14.08-.29.17l-.19.13a2.52,2.52,0,0,0-.3.35,4,4,0,0,0-.81,2.47,5,5,0,0,0,.37,1.83,2.94,2.94,0,0,0,1,1.21.4.4,0,0,0,.57,0,6.88,6.88,0,0,1-.73-2,3.29,3.29,0,0,1,.09-1.21c0-.12.34-1,.45-.8.21.32.34.69.52,1a3.65,3.65,0,0,0,1.34,1.39c.18.11.77.36.72-.06a.71.71,0,0,0-.15-.3,9.67,9.67,0,0,1-1.11-1.81,2.57,2.57,0,0,1,0-2.12c.12.09.19.27.3.39a7.83,7.83,0,0,0,1.25,1.19,5.75,5.75,0,0,0,.78.5,3.13,3.13,0,0,0,.32.15c.18.08.87.45.88,0a.39.39,0,0,0-.08-.2A3.38,3.38,0,0,0,406.28,198.87Z" style="fill:#455a64"></path><path d="M412.5,187.55l-.28-.26a9.36,9.36,0,0,1-1.11-1.24,2.14,2.14,0,0,1-.4-2.26s.05-.09,0-.13-.07-.09-.13-.11a1.5,1.5,0,0,0-1.84.79.83.83,0,0,1-.07.13.39.39,0,0,1-.11.06,1.31,1.31,0,0,0-.62.67c-.05.13,0,.32-.1.44s-.14.09-.29.18l-.19.13a2.52,2.52,0,0,0-.3.35,3.54,3.54,0,0,0-.41.67,3.88,3.88,0,0,0-.4,1.8,4.93,4.93,0,0,0,.37,1.82,2.87,2.87,0,0,0,1,1.21.39.39,0,0,0,.57,0,7,7,0,0,1-.73-2.05,3.29,3.29,0,0,1,.09-1.21c0-.12.34-1,.45-.8s.34.69.52,1a3.61,3.61,0,0,0,1.34,1.4c.18.11.77.36.72-.06a.81.81,0,0,0-.15-.31,9.35,9.35,0,0,1-1.11-1.81,2.55,2.55,0,0,1,0-2.11c.12.09.19.27.3.38a7.89,7.89,0,0,0,1.25,1.2,6.91,6.91,0,0,0,.78.5l.32.15c.18.07.87.45.88,0a.36.36,0,0,0-.08-.2A3.38,3.38,0,0,0,412.5,187.55Z" style="fill:#455a64"></path></g></g></svg>
